<?xml version="1.0" encoding="UTF-8" standalone="no"?>
<!DOCTYPE svg PUBLIC "-//W3C//DTD SVG 1.1//EN" "http://www.w3.org/Graphics/SVG/1.1/DTD/svg11.dtd">
<svg width="100%" height="100%" viewBox="0 0 8936 8937" version="1.1" xmlns="http://www.w3.org/2000/svg" xmlns:xlink="http://www.w3.org/1999/xlink" xml:space="preserve" xmlns:serif="http://www.serif.com/" style="fill-rule:evenodd;clip-rule:evenodd;stroke-linecap:round;stroke-linejoin:round;">
    <g id="guides">
        <path id="STROKE_30db2727-b088-4eaa-bf72-49c647e6015c" d="M8701.03,314.012C8700.43,311.491 8700.26,308.849 8700.52,306.086C8700.77,303.323 8700.92,297.991 8700.96,290.088C8700.99,282.185 8700.51,270.629 8699.52,255.418C8698.52,240.209 8697.4,222.528 8696.16,202.376C8694.92,182.224 8694.15,165.671 8693.83,152.718C8693.52,139.765 8693.34,126.807 8693.3,113.844C8693.26,100.881 8693.24,94.069 8693.25,93.408" style="fill:none;fill-rule:nonzero;stroke:black;stroke-width:9.6px;"/>
        <path id="STROKE_2198f27f-5bd1-402a-ac0d-c613f59cbf04" d="M8643.99,236.312C8646.83,236.927 8653.4,237.595 8663.68,238.316C8673.96,239.036 8684.62,240.016 8695.65,241.256C8706.68,242.496 8717.08,243.507 8726.85,244.288C8736.62,245.068 8745.8,245.616 8754.36,245.932C8762.93,246.248 8769.38,246.455 8773.69,246.552C8778.01,246.651 8781.84,246.698 8785.18,246.694C8788.52,246.69 8791.53,246.688 8794.2,246.688C8796.87,246.687 8800.96,246.532 8806.45,246.224C8811.94,245.916 8816.87,245.587 8821.22,245.238C8825.57,244.89 8830.1,244.579 8834.82,244.306C8839.54,244.031 8842.13,243.873 8842.59,243.832" style="fill:none;fill-rule:nonzero;stroke:black;stroke-width:9.6px;"/>
        <path id="STROKE_8dc34f65-b877-4186-be13-cdd166fdf027" d="M93.382,8667.03C102.959,8666.17 111.094,8665.26 117.786,8664.3C124.479,8663.34 129.739,8662.65 133.564,8662.21C137.391,8661.77 141.747,8661.38 146.634,8661.05C151.521,8660.72 160.479,8660.28 173.508,8659.75C186.537,8659.22 197.174,8658.88 205.418,8658.73C213.662,8658.58 222.632,8658.34 232.328,8658.04C242.023,8657.73 256.145,8657.99 274.696,8658.83C293.247,8659.66 309.833,8660.98 324.456,8662.77" style="fill:none;fill-rule:nonzero;stroke:black;stroke-width:9.6px;"/>
        <path id="STROKE_97962b0b-498b-4909-96ba-a41608fd1bcb" d="M240.806,8595.66L240.854,8601.62C239.582,8655.44 239.078,8690.77 239.342,8707.6C239.606,8724.43 239.875,8734.9 240.15,8739C240.423,8743.11 240.996,8752.52 241.868,8767.26C242.74,8781.99 243.355,8795.93 243.714,8809.08C244.074,8822.22 244.229,8831.71 244.18,8837.54" style="fill:none;fill-rule:nonzero;stroke:black;stroke-width:9.6px;"/>
    </g>
    <g id="artwork">
        <g id="art1">
            <path id="STROKE_81807fb1-a40c-4185-92d0-aad3d802c329" d="M1920.68,3153.34C1921.39,3162.04 1922.01,3170.05 1922.51,3177.38C1923.02,3184.71 1923.88,3199.53 1925.08,3221.84C1926.28,3244.15 1927.19,3260.49 1927.81,3270.86C1928.42,3281.23 1929.16,3292.31 1930.01,3304.1C1930.86,3315.89 1933.05,3343.08 1936.56,3385.65C1940.08,3428.23 1942.71,3459.71 1944.46,3480.08C1946.2,3500.46 1947.87,3519.97 1949.46,3538.62C1951.06,3557.27 1952.65,3576.14 1954.23,3595.24" style="fill:none;fill-rule:nonzero;stroke:black;stroke-width:17px;"/>
            <path id="STROKE_ca662c7a-de08-4a55-9b4c-12bf64ce2552" d="M2402.64,3149.36C2400.8,3169.84 2399.64,3182.41 2399.16,3187.08C2398.69,3191.76 2398.17,3196.59 2397.61,3201.6C2397.05,3206.61 2396.43,3211.78 2395.76,3217.12C2395.09,3222.46 2394.29,3228.36 2393.37,3234.83C2392.45,3241.29 2391.29,3248.9 2389.88,3257.65C2388.48,3266.4 2386.22,3279.52 2383.12,3296.99C2380.01,3314.47 2376.13,3335.63 2371.48,3360.46C2366.83,3385.29 2361.87,3411.51 2356.61,3439.11C2351.35,3466.71 2346.84,3490.32 2343.07,3509.94C2339.29,3529.55 2335.8,3547.7 2332.59,3564.38C2329.37,3581.07 2326.11,3597.88 2322.8,3614.83" style="fill:none;fill-rule:nonzero;stroke:black;stroke-width:17px;"/>
            <path id="STROKE_9c5a5d83-6402-48c9-9db3-181099058eed" d="M1954.63,3590.23C1957.38,3605.22 1959.18,3614.79 1960.02,3618.95C1960.87,3623.12 1961.74,3627.24 1962.66,3631.31C1963.57,3635.39 1965.07,3640.88 1967.14,3647.79C1969.21,3654.71 1970.92,3659.79 1972.26,3663.03C1973.61,3666.28 1974.67,3668.68 1975.45,3670.23C1976.23,3671.78 1977.7,3674.28 1979.88,3677.74C1982.05,3681.2 1983.54,3683.44 1984.33,3684.48C1985.12,3685.51 1986.51,3687.12 1988.5,3689.31C1990.49,3691.5 1993.38,3694.18 1997.19,3697.35C2000.99,3700.53 2005.13,3703.51 2009.62,3706.31C2014.11,3709.11 2017.47,3711.1 2019.71,3712.28C2021.95,3713.45 2024.92,3714.9 2028.63,3716.62C2032.34,3718.34 2036.03,3719.91 2039.7,3721.35C2043.37,3722.79 2045.5,3723.61 2046.08,3723.8C2046.66,3723.99 2049.53,3725.03 2054.68,3726.9C2059.83,3728.77 2064.68,3730.38 2069.22,3731.73C2073.77,3733.08 2078.35,3734.29 2082.97,3735.37C2087.59,3736.44 2093.41,3737.4 2100.42,3738.26C2107.44,3739.12 2112.69,3739.64 2116.18,3739.83C2119.68,3740.01 2124.86,3740.06 2131.75,3739.99C2138.63,3739.91 2143.64,3739.84 2146.77,3739.76C2149.91,3739.68 2153.15,3739.58 2156.49,3739.46C2159.84,3739.34 2164.93,3739.04 2171.76,3738.56C2178.59,3738.08 2184.58,3737.49 2189.73,3736.8C2194.87,3736.11 2202.19,3734.74 2211.67,3732.71C2221.47,3729.68 2227.76,3727.6 2230.52,3726.47C2233.29,3725.35 2236.45,3723.9 2240.01,3722.13C2243.57,3720.37 2247.38,3718.26 2251.43,3715.8C2255.49,3713.35 2259.41,3710.79 2263.18,3708.12C2269.18,3703.31 2273.89,3699.28 2277.31,3696.03C2280.73,3692.77 2283.39,3690.07 2285.29,3687.91C2287.2,3685.75 2289.27,3683.19 2291.51,3680.24C2293.75,3677.28 2295.37,3675.05 2296.36,3673.55C2297.35,3672.05 2298.68,3669.83 2300.35,3666.89C2302.02,3663.96 2304.17,3659.45 2306.8,3653.37C2309.44,3647.3 2313.14,3636.66 2317.92,3621.45" style="fill:none;fill-rule:nonzero;stroke:black;stroke-width:17px;"/>
            <path id="STROKE_1befdc91-47eb-4c05-a02f-fbf4fe1df3f1" d="M2406.7,3107.73C2408.93,3107.96 2410.66,3108.19 2411.9,3108.41C2413.14,3108.64 2414.53,3108.94 2416.07,3109.32C2417.61,3109.7 2418.99,3110.09 2420.2,3110.5C2421.41,3110.91 2423.63,3111.87 2426.87,3113.39C2430.11,3114.9 2432.51,3116.15 2434.09,3117.15C2435.66,3118.15 2437.85,3119.83 2440.64,3122.19C2443.43,3124.54 2445.58,3126.6 2447.1,3128.36C2448.62,3130.13 2450.25,3132.33 2451.97,3134.97C2453.7,3137.61 2455.15,3140.09 2456.33,3142.42C2457.51,3144.75 2458.58,3147.07 2459.53,3149.39C2460.49,3151.71 2461.82,3155.75 2463.54,3161.5C2465.26,3167.25 2466.57,3172.46 2467.48,3177.14C2468.39,3181.82 2469,3185.43 2469.32,3187.97C2469.64,3190.51 2469.98,3194.76 2470.34,3200.74C2470.69,3206.71 2470.77,3212.95 2470.59,3219.47C2470.4,3225.98 2470.13,3230.98 2469.77,3234.46C2469.41,3237.95 2468.65,3243.31 2467.49,3250.53C2466.32,3257.76 2465.08,3264.18 2463.75,3269.82C2462.43,3275.45 2461.14,3280.57 2459.89,3285.18C2458.64,3289.78 2457.2,3294.84 2455.56,3300.33C2453.92,3305.83 2452.04,3311.67 2449.91,3317.85C2447.78,3324.04 2446.21,3328.45 2445.2,3331.08C2444.2,3333.71 2443.13,3336.39 2442,3339.14C2440.87,3341.89 2438.9,3346.33 2436.09,3352.47C2433.28,3358.61 2430.79,3363.79 2428.62,3368.01C2426.45,3372.23 2423.84,3376.99 2420.79,3382.31C2417.74,3387.63 2415.51,3391.39 2414.11,3393.58C2412.72,3395.77 2410.14,3399.51 2406.37,3404.8C2402.61,3410.09 2399.83,3413.86 2398.02,3416.12C2396.22,3418.39 2393.49,3421.57 2389.83,3425.67C2386.18,3429.78 2382.8,3433.34 2379.69,3436.36C2376.58,3439.38 2373.47,3442.18 2370.35,3444.76C2367.23,3447.34 2365.43,3448.8 2364.92,3449.14C2364.42,3449.49 2362.11,3450.99 2357.99,3453.67" style="fill:none;fill-rule:nonzero;stroke:black;stroke-width:17px;"/>
            <path id="STROKE_1dfa62d8-33a2-4136-8bc8-98943e13776a" d="M2386.5,3068.45C2388.93,3068.95 2390.74,3069.38 2391.92,3069.73C2393.1,3070.07 2394.95,3070.72 2397.48,3071.67C2400,3072.62 2403.3,3074.02 2407.38,3075.88C2411.46,3077.74 2415.4,3079.86 2419.2,3082.25C2423.01,3084.64 2425.39,3086.21 2426.34,3086.96C2427.29,3087.71 2428.88,3089.12 2431.11,3091.2C2433.34,3093.28 2434.99,3094.92 2436.08,3096.11C2437.17,3097.3 2439.24,3100.01 2442.3,3104.24C2445.36,3108.47 2448.02,3112.74 2450.29,3117.07C2452.55,3121.4 2454.26,3125.08 2455.43,3128.09C2456.6,3131.11 2457.56,3133.81 2458.32,3136.18C2459.07,3138.55 2459.89,3141.34 2460.77,3144.53L2462.3,3150.36" style="fill:none;fill-rule:nonzero;stroke:black;stroke-width:17px;"/>
            <path id="STROKE_3c529696-acdf-4987-9fac-ff681e85a496" d="M2410.55,3165.43C2412.43,3171.45 2413.68,3175.5 2414.28,3177.58C2414.87,3179.66 2415.67,3182.64 2416.67,3186.52C2417.67,3190.4 2418.48,3193.92 2419.1,3197.06C2419.72,3200.2 2420.26,3203.49 2420.72,3206.92C2421.18,3210.34 2421.49,3214.12 2421.67,3218.25C2421.85,3222.38 2421.77,3227.43 2421.43,3233.41C2421.09,3239.39 2420.62,3244.38 2420.02,3248.38C2419.42,3252.37 2418.81,3255.78 2418.2,3258.6C2417.58,3261.43 2416.74,3264.8 2415.67,3268.73C2414.59,3272.67 2413.26,3276.97 2411.66,3281.63C2410.06,3286.3 2408.18,3291.18 2406.01,3296.28C2403.83,3301.37 2402.23,3304.94 2401.2,3306.97C2400.17,3309.01 2398.89,3311.38 2397.37,3314.08C2395.85,3316.78 2394.52,3319.03 2393.4,3320.83C2392.28,3322.63 2390.66,3325.1 2388.54,3328.23C2386.43,3331.36 2383.85,3335.03 2380.81,3339.23" style="fill:none;fill-rule:nonzero;stroke:black;stroke-width:17px;"/>
        </g>
    </g>
</svg>
