<?xml version="1.0" encoding="UTF-8" standalone="no"?>
<!DOCTYPE svg PUBLIC "-//W3C//DTD SVG 1.1//EN" "http://www.w3.org/Graphics/SVG/1.1/DTD/svg11.dtd">
<svg width="100%" height="100%" viewBox="0 0 8936 8937" version="1.1" xmlns="http://www.w3.org/2000/svg" xmlns:xlink="http://www.w3.org/1999/xlink" xml:space="preserve" xmlns:serif="http://www.serif.com/" style="fill-rule:evenodd;clip-rule:evenodd;stroke-linecap:round;stroke-linejoin:round;">
    <g id="guides">
        <path id="STROKE_30db2727-b088-4eaa-bf72-49c647e6015c" d="M8701.03,314.012C8700.43,311.491 8700.26,308.849 8700.52,306.086C8700.77,303.323 8700.92,297.991 8700.96,290.088C8700.99,282.185 8700.51,270.629 8699.52,255.418C8698.52,240.209 8697.4,222.528 8696.16,202.376C8694.92,182.224 8694.15,165.671 8693.83,152.718C8693.52,139.765 8693.34,126.807 8693.3,113.844C8693.26,100.881 8693.24,94.069 8693.25,93.408" style="fill:none;fill-rule:nonzero;stroke:black;stroke-width:9.6px;"/>
        <path id="STROKE_2198f27f-5bd1-402a-ac0d-c613f59cbf04" d="M8643.99,236.312C8646.83,236.927 8653.4,237.595 8663.68,238.316C8673.96,239.036 8684.62,240.016 8695.65,241.256C8706.68,242.496 8717.08,243.507 8726.85,244.288C8736.62,245.068 8745.8,245.616 8754.36,245.932C8762.93,246.248 8769.38,246.455 8773.69,246.552C8778.01,246.651 8781.84,246.698 8785.18,246.694C8788.52,246.69 8791.53,246.688 8794.2,246.688C8796.87,246.687 8800.96,246.532 8806.45,246.224C8811.94,245.916 8816.87,245.587 8821.22,245.238C8825.57,244.89 8830.1,244.579 8834.82,244.306C8839.54,244.031 8842.13,243.873 8842.59,243.832" style="fill:none;fill-rule:nonzero;stroke:black;stroke-width:9.6px;"/>
        <path id="STROKE_8dc34f65-b877-4186-be13-cdd166fdf027" d="M93.382,8667.03C102.959,8666.17 111.094,8665.26 117.786,8664.3C124.479,8663.34 129.739,8662.65 133.564,8662.21C137.391,8661.77 141.747,8661.38 146.634,8661.05C151.521,8660.72 160.479,8660.28 173.508,8659.75C186.537,8659.22 197.174,8658.88 205.418,8658.73C213.662,8658.58 222.632,8658.34 232.328,8658.04C242.023,8657.73 256.145,8657.99 274.696,8658.83C293.247,8659.66 309.833,8660.98 324.456,8662.77" style="fill:none;fill-rule:nonzero;stroke:black;stroke-width:9.6px;"/>
        <path id="STROKE_97962b0b-498b-4909-96ba-a41608fd1bcb" d="M240.806,8595.66L240.854,8601.62C239.582,8655.44 239.078,8690.77 239.342,8707.6C239.606,8724.43 239.875,8734.9 240.15,8739C240.423,8743.11 240.996,8752.52 241.868,8767.26C242.74,8781.99 243.355,8795.93 243.714,8809.08C244.074,8822.22 244.229,8831.71 244.18,8837.54" style="fill:none;fill-rule:nonzero;stroke:black;stroke-width:9.6px;"/>
    </g>
    <g id="artwork">
        <g id="art2">
            <path id="STROKE_28455579-b319-4843-873e-8398e3dcf679" d="M3613.44,2405.73C3608.47,2404.57 3602.41,2403.13 3595.26,2401.42C3588.12,2399.71 3577.65,2397.24 3563.85,2394C3550.05,2390.76 3530.4,2386.22 3504.91,2380.38C3479.42,2374.54 3460.32,2370.18 3447.62,2367.29C3434.93,2364.41 3422.95,2361.67 3411.71,2359.09C3400.46,2356.51 3388.74,2353.84 3376.55,2351.06" style="fill:none;fill-rule:nonzero;stroke:black;stroke-width:17px;"/>
            <path id="STROKE_326a094d-f567-424e-bd09-d787fae58368" d="M3353.68,2547.1C3359.11,2550.24 3370.3,2556.77 3387.25,2566.68C3404.21,2576.59 3423.26,2587.7 3444.38,2600.01C3465.5,2612.32 3489.88,2626.57 3517.5,2642.77C3545.13,2658.97 3567.69,2672.27 3585.19,2682.67C3602.68,2693.07 3624.66,2706.2 3651.13,2722.08" style="fill:none;fill-rule:nonzero;stroke:black;stroke-width:17px;"/>
            <path id="STROKE_ba544107-1aff-4df9-b009-b35e979c4196" d="M3364.23,2936.31C3367.71,2939.38 3374.45,2945.28 3384.47,2954.03C3394.48,2962.78 3407.87,2974.44 3424.62,2989.03C3441.38,3003.62 3455.77,3016.17 3467.79,3026.69C3479.81,3037.21 3492.8,3048.62 3506.76,3060.94C3520.72,3073.26 3538.2,3088.76 3559.19,3107.45C3580.18,3126.14 3602.02,3145.64 3624.71,3165.97C3647.39,3186.3 3665.73,3202.74 3679.71,3215.3C3693.7,3227.85 3708.61,3241.29 3724.46,3255.6" style="fill:none;fill-rule:nonzero;stroke:black;stroke-width:17px;"/>
            <path id="STROKE_30451781-19c5-435d-80a3-295c29b7ae09" d="M3383.55,3204.83C3390.98,3212.92 3401.87,3224.7 3416.21,3240.16C3430.56,3255.63 3444.73,3270.85 3458.73,3285.83C3472.73,3300.8 3491.31,3320.65 3514.45,3345.38C3537.6,3370.1 3564.58,3399.05 3595.4,3432.22C3626.23,3465.39 3648.61,3489.5 3662.54,3504.55C3676.47,3519.61 3686.32,3530.25 3692.07,3536.47C3697.83,3542.7 3717.96,3564.43 3752.48,3601.67L3763.28,3613.27" style="fill:none;fill-rule:nonzero;stroke:black;stroke-width:17px;"/>
            <path id="STROKE_8eef2b81-4c82-469a-9657-20736df27e56" d="M3472.57,3658.65C3510.02,3705.7 3539.69,3743.03 3561.59,3770.62C3583.49,3798.21 3602.91,3822.74 3619.87,3844.2C3636.82,3865.66 3654.98,3888.64 3674.34,3913.13C3693.7,3937.62 3716.81,3966.92 3743.66,4001.03C3770.51,4035.13 3798.81,4071.21 3828.58,4109.27" style="fill:none;fill-rule:nonzero;stroke:black;stroke-width:17px;"/>
            <path id="STROKE_879f9bac-8e28-4f95-82db-82a3c1b260bb" d="M3480.25,3885.98C3509.1,3931.17 3527.06,3959.22 3534.11,3970.12C3541.16,3981.01 3548.03,3991.56 3554.71,4001.76C3561.39,4011.96 3567.53,4021.3 3573.13,4029.76C3578.73,4038.23 3585.45,4048.32 3593.29,4060.04C3601.14,4071.75 3609.59,4084.29 3618.67,4097.65C3627.74,4111.01 3638.01,4126 3649.47,4142.62C3660.93,4159.24 3670.72,4173.37 3678.84,4185.01C3686.96,4196.65 3698.22,4212.7 3712.64,4233.18C3727.06,4253.66 3741.64,4274.21 3756.38,4294.84C3771.12,4315.47 3781.31,4329.68 3786.95,4337.47C3792.59,4345.26 3799.87,4355.29 3808.78,4367.54C3817.7,4379.8 3830.76,4397.78 3847.96,4421.48" style="fill:none;fill-rule:nonzero;stroke:black;stroke-width:17px;"/>
            <path id="STROKE_10e49a6e-5d3d-454b-8c5f-7da72623fa22" d="M3236.36,2245.56C3237.42,2254.88 3240.09,2278.69 3244.36,2316.99C3248.63,2355.28 3251.66,2382.68 3253.46,2399.19C3255.25,2415.69 3257.17,2433.85 3259.23,2453.65C3261.28,2473.46 3262.95,2489.85 3264.23,2502.81C3265.51,2515.78 3267.27,2534.44 3269.53,2558.81C3271.79,2583.18 3273.66,2603.95 3275.15,2621.12C3276.64,2638.29 3278.67,2662.83 3281.23,2694.71C3283.8,2726.6 3285.36,2746.31 3285.93,2753.83C3286.5,2761.35 3287.93,2781.71 3290.23,2814.92C3292.53,2848.12 3294.57,2879.22 3296.34,2908.19C3298.12,2937.17 3300.79,2982.73 3304.35,3044.87C3307.91,3107.02 3309.91,3141.65 3310.33,3148.75C3310.75,3155.86 3312.1,3177.83 3314.4,3214.64C3316.69,3251.45 3318.6,3281.59 3320.14,3305.04C3321.67,3328.5 3323.61,3356.83 3325.94,3390.04C3328.28,3423.25 3330.11,3448.49 3331.42,3465.76C3332.73,3483.03 3334.39,3504.22 3336.42,3529.32C3338.44,3554.42 3340.61,3580.5 3342.92,3607.55C3345.24,3634.6 3346.79,3652.62 3347.6,3661.61C3348.4,3670.6 3350.03,3688.26 3352.47,3714.6C3354.92,3740.94 3357.6,3769.11 3360.49,3799.1C3363.39,3829.09 3365.91,3855.02 3368.05,3876.88C3370.19,3898.74 3373.48,3932.88 3377.92,3979.3C3382.37,4025.72 3385.7,4061 3387.93,4085.15C3390.16,4109.3 3392.64,4136.65 3395.39,4167.22C3398.13,4197.78 3402.53,4247.62 3408.58,4316.73" style="fill:none;fill-rule:nonzero;stroke:black;stroke-width:17px;"/>
            <path id="STROKE_0c4081e2-7937-4fba-9be2-c1e5435a6ef2" d="M3233.89,2253.57C3241.11,2252.13 3247.99,2250.8 3254.53,2249.56C3261.08,2248.32 3267.97,2247.05 3275.22,2245.76C3282.47,2244.47 3292.98,2242.61 3306.76,2240.18C3320.54,2237.75 3330.83,2235.95 3337.62,2234.78C3344.41,2233.62 3350.67,2232.52 3356.4,2231.5C3362.13,2230.48 3370.41,2228.95 3381.24,2226.94" style="fill:none;fill-rule:nonzero;stroke:black;stroke-width:17px;"/>
            <path id="STROKE_61da069e-ce59-44b9-ae9a-c9188310d805" d="M3387.48,2249.25L3400.53,2359.96" style="fill:none;fill-rule:nonzero;stroke:black;stroke-width:17px;"/>
            <path id="STROKE_6f287c5e-5d1c-4c87-aa2c-eebbc1b1fd6e" d="M3424.07,2584.11C3425.29,2598.21 3426.68,2614.51 3428.22,2633.03C3429.77,2651.54 3431.16,2668.66 3432.39,2684.36C3433.62,2700.07 3435,2718.43 3436.52,2739.46C3438.04,2760.49 3439.64,2783.73 3441.34,2809.17C3443.03,2834.61 3444.99,2865.06 3447.2,2900.5C3449.42,2935.95 3451.95,2976.89 3454.79,3023.33" style="fill:none;fill-rule:nonzero;stroke:black;stroke-width:17px;"/>
            <path id="STROKE_b2ed6b90-1426-4a8e-b7cb-04be3a0df67e" d="M3472.57,3290.61C3473.83,3307.7 3475.82,3334.23 3478.55,3370.18C3481.27,3406.14 3485.18,3455.83 3490.27,3519.26C3495.35,3582.7 3500.21,3643.07 3504.85,3700.39" style="fill:none;fill-rule:nonzero;stroke:black;stroke-width:17px;"/>
            <path id="STROKE_19f4f56c-b469-4833-a568-d6506a593e72" d="M3523.14,3947.9C3526.37,3997.48 3528.68,4033.85 3530.1,4057.02C3531.51,4080.19 3533.12,4107.68 3534.91,4139.5C3536.7,4171.31 3539.85,4230.72 3544.35,4317.72L3545.59,4344.44" style="fill:none;fill-rule:nonzero;stroke:black;stroke-width:17px;"/>
            <path id="STROKE_0777bd6c-dcd8-44ce-88f6-cf3535b7a7a3" d="M3302.09,1998.06C3294.82,1999.95 3290.28,2001.18 3288.47,2001.76C3286.65,2002.34 3283.96,2003.34 3280.39,2004.76C3276.82,2006.18 3274.37,2007.21 3273.04,2007.83C3271.71,2008.44 3267.19,2011.36 3259.47,2016.58C3251.75,2021.8 3246.05,2026.27 3242.36,2029.99C3238.68,2033.71 3235.85,2036.81 3233.87,2039.27C3231.89,2041.74 3229.79,2044.63 3227.56,2047.96C3225.34,2051.29 3222.08,2057.44 3217.77,2066.41C3213.47,2075.38 3210.14,2084.5 3207.78,2093.77C3205.43,2103.04 3204.04,2112.49 3203.62,2122.13C3203.2,2131.76 3203.37,2139.35 3204.14,2144.89C3204.9,2150.43 3206.13,2156.04 3207.83,2161.72C3209.53,2167.4 3211.57,2172.62 3213.95,2177.38C3216.33,2182.14 3218.91,2186.41 3221.68,2190.17C3224.45,2193.93 3226.8,2196.81 3228.73,2198.8C3230.65,2200.8 3233.37,2203.19 3236.88,2205.96C3240.4,2208.72 3243.68,2211.01 3246.73,2212.79C3249.78,2214.58 3253.69,2216.45 3258.46,2218.4C3263.23,2220.34 3267.34,2221.76 3270.79,2222.65C3274.24,2223.54 3276.95,2224.15 3278.93,2224.48C3280.9,2224.8 3284.01,2225.12 3288.25,2225.42C3292.49,2225.72 3296.26,2225.81 3299.58,2225.68C3302.9,2225.55 3305.92,2225.33 3308.64,2225.01C3311.36,2224.69 3314.13,2224.23 3316.94,2223.64C3319.76,2223.04 3322.73,2222.26 3325.86,2221.3C3328.99,2220.33 3332.31,2219.09 3335.81,2217.58C3339.31,2216.07 3342.7,2214.39 3345.97,2212.54C3349.24,2210.69 3352.88,2208.3 3356.9,2205.38C3360.91,2202.47 3365.41,2198.48 3370.41,2193.42C3375.41,2188.37 3378.68,2184.84 3380.2,2182.85C3381.73,2180.87 3383.98,2177.43 3386.96,2172.55C3389.93,2167.66 3392.76,2161.87 3395.42,2155.15C3398.09,2148.44 3399.96,2142.41 3401.03,2137.05C3402.1,2131.7 3402.72,2128.24 3402.89,2126.66C3403.05,2125.08 3402.96,2120.51 3402.62,2112.97C3402.28,2105.42 3401.49,2099.2 3400.27,2094.3C3399.05,2089.41 3397.06,2083.93 3394.3,2077.89C3391.54,2071.85 3389.07,2067.18 3386.89,2063.89C3384.71,2060.6 3382.18,2057.25 3379.31,2053.84C3376.44,2050.43 3372.23,2046.42 3366.69,2041.81C3361.16,2037.2 3356.92,2034.02 3353.99,2032.26C3351.06,2030.51 3348.28,2029 3345.65,2027.74C3343.02,2026.48 3338.91,2024.88 3333.31,2022.94C3327.71,2021 3323.62,2019.73 3321.03,2019.13C3318.45,2018.53 3315.32,2017.93 3311.63,2017.34C3307.95,2016.75 3298.04,2015.82 3281.9,2014.56" style="fill:none;fill-rule:nonzero;stroke:black;stroke-width:17px;"/>
            <path id="STROKE_1b3930f1-65da-4149-a539-cc5e258cbc8e" d="M3578.33,4326.43C3587.31,4324.76 3597.81,4323 3609.82,4321.15C3621.84,4319.3 3630.9,4317.98 3637.01,4317.2C3643.12,4316.41 3650.71,4315.58 3659.79,4314.7C3668.87,4313.82 3686.11,4312.64 3711.51,4311.17" style="fill:none;fill-rule:nonzero;stroke:black;stroke-width:17px;"/>
            <path id="STROKE_9441346f-a1ef-4869-bee6-845fc54ba0f9" d="M4076.08,4297.25L4086.64,4296.15C4158.46,4290.91 4212.98,4287.51 4250.21,4285.96C4287.44,4284.4 4309.94,4283.49 4317.72,4283.21C4325.5,4282.93 4346.46,4281.9 4380.59,4280.13C4414.73,4278.36 4439.74,4276.77 4455.64,4275.37C4471.53,4273.97 4490.86,4271.93 4513.63,4269.26C4536.39,4266.6 4554.39,4264.42 4567.61,4262.75C4580.83,4261.08 4593.44,4259.56 4605.45,4258.2C4617.45,4256.83 4631.41,4255.38 4647.34,4253.83C4663.27,4252.28 4675.94,4251.14 4685.35,4250.4C4694.76,4249.66 4704.76,4248.91 4715.32,4248.15C4725.9,4247.39 4738.36,4246.64 4752.71,4245.91C4767.07,4245.18 4779.51,4244.62 4790.04,4244.23C4800.58,4243.83 4814.7,4243.42 4832.41,4242.97" style="fill:none;fill-rule:nonzero;stroke:black;stroke-width:17px;"/>
            <path id="STROKE_4af8de47-01ba-4dec-9fc7-72d3c458c317" d="M4838.83,4253.42C4848.74,4237.91 4855.27,4227.97 4858.41,4223.61C4861.56,4219.26 4865.1,4214.62 4869.04,4209.72C4872.98,4204.82 4877.68,4199.63 4883.13,4194.14C4888.59,4188.65 4894.16,4183.71 4899.88,4179.3C4905.59,4174.9 4909.86,4171.85 4912.69,4170.16C4915.52,4168.46 4919.51,4166.5 4924.66,4164.28C4929.81,4162.06 4934.47,4160.4 4938.66,4159.3C4942.85,4158.2 4947.48,4157.44 4952.56,4157.02C4957.64,4156.61 4962.11,4156.58 4965.95,4156.95C4969.8,4157.32 4974.52,4158.52 4980.11,4160.56C4985.69,4162.6 4989.73,4164.41 4992.24,4165.97C4994.74,4167.54 4997.93,4170.12 5001.81,4173.71C5005.68,4177.29 5008.22,4179.82 5009.44,4181.28C5010.65,4182.74 5012.8,4186.15 5015.87,4191.52C5018.95,4196.88 5021.43,4202.11 5023.33,4207.19C5025.22,4212.27 5027.39,4220.46 5029.83,4231.74C5032.28,4243.02 5034.45,4256.32 5036.34,4271.65" style="fill:none;fill-rule:nonzero;stroke:black;stroke-width:17px;"/>
            <path id="STROKE_aaa270c7-963f-4e2f-8615-61371f5dde81" d="M5045.9,4287.72L5051.56,4290.84C5067.51,4300.44 5083.56,4310.12 5099.73,4319.9C5115.9,4329.68 5127.71,4336.99 5135.16,4341.84C5142.61,4346.69 5150.72,4352.19 5159.49,4358.35C5168.26,4364.5 5175.39,4369.68 5180.9,4373.88C5186.41,4378.07 5193.59,4383.77 5202.44,4390.96C5211.3,4398.15 5219.43,4404.99 5226.85,4411.5C5234.27,4418.01 5240.98,4424.01 5246.98,4429.5C5252.98,4434.99 5257.74,4439.43 5261.26,4442.81C5264.77,4446.19 5268.12,4449.49 5271.32,4452.72C5274.52,4455.95 5282.39,4464.3 5294.92,4477.77" style="fill:none;fill-rule:nonzero;stroke:black;stroke-width:17px;"/>
            <path id="STROKE_8a283f72-ca27-4e14-883e-f82bff83e3a0" d="M4855.77,4270.72C4865.18,4274.5 4872.07,4277.17 4876.42,4278.73C4880.77,4280.3 4888.82,4282.8 4900.56,4286.23C4915.74,4289.35 4937.53,4290.77 4965.92,4290.47C4994.3,4290.17 5011.58,4289.47 5017.75,4288.38C5023.92,4287.28 5032.26,4285.63 5042.76,4283.42" style="fill:none;fill-rule:nonzero;stroke:black;stroke-width:17px;"/>
            <path id="STROKE_66231a95-1ebf-4c9d-8549-d43ec464cc12" d="M3399.94,4341.68L3400.2,4351.62C3400.23,4359.87 3400.08,4372.04 3399.75,4388.12C3399.42,4404.19 3399.03,4417.86 3398.58,4429.1C3398.12,4440.35 3397.54,4453.01 3396.83,4467.07" style="fill:none;fill-rule:nonzero;stroke:black;stroke-width:17px;"/>
            <circle id="STROKE_2b7cb5fb-4bae-4a0c-9b60-923b72cbd837" cx="3509.76" cy="4441.62" r="3" style="stroke:black;stroke-width:17px;stroke-linecap:butt;stroke-linejoin:miter;"/>
            <path id="STROKE_480f2ab5-4843-43b1-8bbc-aff736ed2157" d="M3523.28,4383.77C3518.21,4393.33 3514.72,4399.7 3512.82,4402.87C3510.91,4406.04 3508.01,4410.73 3504.11,4416.94C3500.2,4423.15 3496.76,4428.55 3493.79,4433.14C3490.82,4437.73 3487.14,4443.52 3482.74,4450.51C3478.35,4457.5 3472.25,4467.29 3464.45,4479.89" style="fill:none;fill-rule:nonzero;stroke:black;stroke-width:17px;"/>
        </g>
    </g>
</svg>
