<?xml version="1.0" encoding="UTF-8" standalone="no"?>
<!DOCTYPE svg PUBLIC "-//W3C//DTD SVG 1.1//EN" "http://www.w3.org/Graphics/SVG/1.1/DTD/svg11.dtd">
<svg width="100%" height="100%" viewBox="0 0 8936 8937" version="1.1" xmlns="http://www.w3.org/2000/svg" xmlns:xlink="http://www.w3.org/1999/xlink" xml:space="preserve" xmlns:serif="http://www.serif.com/" style="fill-rule:evenodd;clip-rule:evenodd;stroke-linecap:round;stroke-linejoin:round;">
    <g id="guides">
        <path id="STROKE_30db2727-b088-4eaa-bf72-49c647e6015c" d="M8701.03,314.012C8700.43,311.491 8700.26,308.849 8700.52,306.086C8700.77,303.323 8700.92,297.991 8700.96,290.088C8700.99,282.185 8700.51,270.629 8699.52,255.418C8698.52,240.209 8697.4,222.528 8696.16,202.376C8694.92,182.224 8694.15,165.671 8693.83,152.718C8693.52,139.765 8693.34,126.807 8693.3,113.844C8693.26,100.881 8693.24,94.069 8693.25,93.408" style="fill:none;fill-rule:nonzero;stroke:black;stroke-width:9.6px;"/>
        <path id="STROKE_2198f27f-5bd1-402a-ac0d-c613f59cbf04" d="M8643.99,236.312C8646.83,236.927 8653.4,237.595 8663.68,238.316C8673.96,239.036 8684.62,240.016 8695.65,241.256C8706.68,242.496 8717.08,243.507 8726.85,244.288C8736.62,245.068 8745.8,245.616 8754.36,245.932C8762.93,246.248 8769.38,246.455 8773.69,246.552C8778.01,246.651 8781.84,246.698 8785.18,246.694C8788.52,246.69 8791.53,246.688 8794.2,246.688C8796.87,246.687 8800.96,246.532 8806.45,246.224C8811.94,245.916 8816.87,245.587 8821.22,245.238C8825.57,244.89 8830.1,244.579 8834.82,244.306C8839.54,244.031 8842.13,243.873 8842.59,243.832" style="fill:none;fill-rule:nonzero;stroke:black;stroke-width:9.6px;"/>
        <path id="STROKE_8dc34f65-b877-4186-be13-cdd166fdf027" d="M93.382,8667.03C102.959,8666.17 111.094,8665.26 117.786,8664.3C124.479,8663.34 129.739,8662.65 133.564,8662.21C137.391,8661.77 141.747,8661.38 146.634,8661.05C151.521,8660.72 160.479,8660.28 173.508,8659.75C186.537,8659.22 197.174,8658.88 205.418,8658.73C213.662,8658.58 222.632,8658.34 232.328,8658.04C242.023,8657.73 256.145,8657.99 274.696,8658.83C293.247,8659.66 309.833,8660.98 324.456,8662.77" style="fill:none;fill-rule:nonzero;stroke:black;stroke-width:9.6px;"/>
        <path id="STROKE_97962b0b-498b-4909-96ba-a41608fd1bcb" d="M240.806,8595.66L240.854,8601.62C239.582,8655.44 239.078,8690.77 239.342,8707.6C239.606,8724.43 239.875,8734.9 240.15,8739C240.423,8743.11 240.996,8752.52 241.868,8767.26C242.74,8781.99 243.355,8795.93 243.714,8809.08C244.074,8822.22 244.229,8831.71 244.18,8837.54" style="fill:none;fill-rule:nonzero;stroke:black;stroke-width:9.6px;"/>
    </g>
    <g id="artwork">
        <g id="art3">
            <path id="STROKE_caec8e54-0d6f-42ac-ad67-f1c13bba5a68" d="M7235.69,1603.14C7234.76,1608.51 7230.07,1636.31 7221.62,1686.54C7213.17,1736.76 7206.81,1774.47 7202.53,1799.67C7198.26,1824.87 7192.66,1857.98 7185.76,1898.99C7178.85,1940 7168.23,2003.97 7153.88,2090.89C7139.53,2177.81 7130.02,2235.58 7125.34,2264.21C7120.66,2292.84 7110.38,2355.25 7094.5,2451.45C7078.63,2547.65 7065.44,2626.73 7054.93,2688.69C7044.42,2750.65 7036.25,2798.52 7030.42,2832.29C7024.59,2866.06 7017.85,2904.52 7010.2,2947.67C7002.55,2990.81 6994.34,3036.5 6985.57,3084.73C6976.8,3132.96 6969.46,3172.87 6963.56,3204.46C6957.66,3236.05 6950.89,3271.68 6943.27,3311.37C6935.64,3351.05 6928.65,3387.11 6922.29,3419.54C6915.93,3451.97 6910.07,3481.56 6904.73,3508.3C6899.39,3535.05 6893.9,3562.34 6888.24,3590.18C6882.58,3618.02 6876.05,3649.7 6868.65,3685.22C6861.25,3720.74 6853.5,3757.41 6845.4,3795.23C6837.3,3833.05 6828.56,3873.39 6819.19,3916.25C6809.81,3959.12 6800.52,4001.18 6791.3,4042.46C6782.08,4083.73 6752.02,4215.2 6701.11,4436.88" style="fill:none;fill-rule:nonzero;stroke:black;stroke-width:17px;"/>
            <path id="STROKE_7296a7d5-234b-4eeb-9f76-f28dd89095ee" d="M7994.89,2285.43C8026.26,2282.33 8069.6,2278.11 8124.91,2272.79C8180.23,2267.46 8235.83,2262.09 8291.73,2256.67C8347.62,2251.24 8398.01,2246.42 8442.89,2242.2C8487.77,2237.98 8520.51,2234.92 8541.12,2233.03C8561.73,2231.13 8578.6,2229.58 8591.73,2228.38C8604.87,2227.18 8627.91,2225.04 8660.84,2221.94" style="fill:none;fill-rule:nonzero;stroke:black;stroke-width:17px;"/>
            <path id="STROKE_87b97ebf-3116-4dfc-8a2f-48b197d59d22" d="M7931.86,2306.69C7965.24,2106.05 7985.45,1984.73 7992.47,1942.72C7999.5,1900.72 8008.4,1848.51 8019.19,1786.09C8029.97,1723.67 8044.06,1643.11 8061.45,1544.42" style="fill:none;fill-rule:nonzero;stroke:black;stroke-width:17px;"/>
            <path id="STROKE_65e02a7e-b200-4dac-a711-47ee59ccf605" d="M8109.63,1571.2C8092.52,1690.03 8083.14,1755.19 8081.5,1766.67C8079.86,1778.16 8076.03,1804.7 8070.01,1846.29C8063.99,1887.87 8059.99,1915.51 8058.02,1929.2C8056.04,1942.9 8053.54,1960.16 8050.5,1981C8047.46,2001.83 8044.57,2021.82 8041.82,2040.96C8039.07,2060.09 8028.97,2129.77 8011.5,2250" style="fill:none;fill-rule:nonzero;stroke:black;stroke-width:17px;"/>
            <path id="STROKE_86f2d5d1-59a4-4491-b486-bb5bf831f904" d="M7948.37,2301.44C7953.24,2295.95 7958.65,2289.91 7964.6,2283.32C7970.54,2276.72 7976.65,2269.99 7982.91,2263.13C7989.17,2256.26 8002.74,2241.13 8023.62,2217.72" style="fill:none;fill-rule:nonzero;stroke:black;stroke-width:17px;"/>
            <path id="STROKE_5069e77c-5671-4094-840b-dea096c84466" d="M8020.68,2229.03C8056.69,2225.47 8085.51,2222.62 8107.13,2220.51C8128.77,2218.4 8171.72,2214.11 8236,2207.63C8300.28,2201.16 8349.07,2196.19 8382.35,2192.72C8415.64,2189.25 8444.47,2186.2 8468.84,2183.57C8493.21,2180.94 8515.05,2178.59 8534.35,2176.54C8553.65,2174.48 8591.78,2170.26 8648.75,2163.9" style="fill:none;fill-rule:nonzero;stroke:black;stroke-width:17px;"/>
            <path id="STROKE_1ca900ed-b9e3-48b9-bd20-b9c3524afa3b" d="M7817.02,3069.69C7873.01,3072.68 7912.2,3074.74 7934.58,3075.88C7956.97,3077.01 7977.81,3078.05 7997.1,3079C8016.39,3079.95 8039.17,3081.07 8065.44,3082.36C8091.71,3083.66 8135.7,3085.65 8197.42,3088.35C8259.14,3091.05 8318.34,3093.45 8375.02,3095.56C8431.71,3097.66 8480.01,3099.37 8519.94,3100.69C8559.87,3102.02 8619.03,3103.99 8697.41,3106.62" style="fill:none;fill-rule:nonzero;stroke:black;stroke-width:17px;"/>
            <path id="STROKE_27ea1747-a67f-435e-8644-0028e0ac42ca" d="M7825.11,3097.94C7809.2,3168.98 7797.29,3222.01 7789.4,3257.04C7781.52,3292.06 7772.61,3331.68 7762.68,3375.88C7752.76,3420.08 7742.94,3463.58 7733.25,3506.37C7723.55,3549.17 7708.69,3614.69 7688.67,3702.93C7668.65,3791.17 7651.26,3867.46 7636.51,3931.78C7621.75,3996.1 7606.17,4063.95 7589.76,4135.35" style="fill:none;fill-rule:nonzero;stroke:black;stroke-width:17px;"/>
            <path id="STROKE_650c96a9-a839-48ff-b2d9-cf82eaae4f1a" d="M7890.99,3169.18C7888.18,3180.23 7879.97,3212.88 7866.37,3267.15C7852.77,3321.41 7838.13,3379.91 7822.45,3442.64C7806.76,3505.37 7791.21,3567.38 7775.8,3628.68C7760.38,3689.97 7740.89,3767.67 7717.33,3861.77C7693.76,3955.87 7679.87,4011.35 7675.65,4028.2C7671.43,4045.06 7664.73,4071.73 7655.54,4108.2" style="fill:none;fill-rule:nonzero;stroke:black;stroke-width:17px;"/>
            <path id="STROKE_2c0a17ce-412a-4e4f-85d5-bb3871ff8120" d="M7594.39,4196.7L7613.27,4201.37C7669.81,4215.84 7717,4228.06 7754.85,4238.04C7792.7,4248.01 7826.85,4257.02 7857.31,4265.06C7887.77,4273.1 7918.87,4281.32 7950.61,4289.72C7982.36,4298.12 8012.63,4306.18 8041.42,4313.91C8070.22,4321.65 8099.91,4329.69 8130.49,4338.03C8161.07,4346.38 8194.74,4355.62 8231.48,4365.77C8268.23,4375.92 8313.29,4388.24 8366.68,4402.75" style="fill:none;fill-rule:nonzero;stroke:black;stroke-width:17px;"/>
            <path id="STROKE_9c28b0fc-5cf9-4230-ae80-fd78adebc25e" d="M7617.2,4158.84C7645.73,4166.71 7672.91,4174.25 7698.75,4181.47C7724.59,4188.68 7758.85,4198.21 7801.54,4210.06C7844.23,4221.91 7895.05,4235.87 7954,4251.95C8012.95,4268.03 8054.3,4279.33 8078.05,4285.83C8101.81,4292.34 8122.94,4298.09 8141.46,4303.09C8159.97,4308.1 8190.99,4316.38 8234.51,4327.94C8278.03,4339.51 8309.59,4347.89 8329.17,4353.1C8348.75,4358.31 8374.63,4365.14 8406.81,4373.61C8438.99,4382.07 8459.99,4387.6 8469.8,4390.18C8479.61,4392.77 8502.58,4398.77 8538.7,4408.18" style="fill:none;fill-rule:nonzero;stroke:black;stroke-width:17px;"/>
            <path id="STROKE_bedce6a8-64a2-4c62-856a-280fa89c0e6d" d="M7884.31,3167.9C7912.22,3170.08 7952.76,3173.37 8005.95,3177.78C8059.13,3182.19 8102,3185.82 8134.56,3188.68C8167.12,3191.53 8210.75,3195.49 8265.46,3200.57C8320.17,3205.65 8363.1,3209.75 8394.26,3212.88C8425.42,3216.01 8475.04,3221.04 8543.13,3227.97C8611.22,3234.9 8647.31,3238.58 8651.42,3239.02C8655.52,3239.45 8672.79,3241.19 8703.22,3244.24" style="fill:none;fill-rule:nonzero;stroke:black;stroke-width:17px;"/>
        </g>
    </g>
</svg>
