<?xml version="1.0" encoding="UTF-8" standalone="no"?>
<!DOCTYPE svg PUBLIC "-//W3C//DTD SVG 1.1//EN" "http://www.w3.org/Graphics/SVG/1.1/DTD/svg11.dtd">
<svg width="100%" height="100%" viewBox="0 0 8936 8937" version="1.1" xmlns="http://www.w3.org/2000/svg" xmlns:xlink="http://www.w3.org/1999/xlink" xml:space="preserve" xmlns:serif="http://www.serif.com/" style="fill-rule:evenodd;clip-rule:evenodd;stroke-linecap:round;stroke-linejoin:round;">
    <g id="guides">
        <path id="STROKE_30db2727-b088-4eaa-bf72-49c647e6015c" d="M8701.03,314.012C8700.43,311.491 8700.26,308.849 8700.52,306.086C8700.77,303.323 8700.92,297.991 8700.96,290.088C8700.99,282.185 8700.51,270.629 8699.52,255.418C8698.52,240.209 8697.4,222.528 8696.16,202.376C8694.92,182.224 8694.15,165.671 8693.83,152.718C8693.52,139.765 8693.34,126.807 8693.3,113.844C8693.26,100.881 8693.24,94.069 8693.25,93.408" style="fill:none;fill-rule:nonzero;stroke:black;stroke-width:9.6px;"/>
        <path id="STROKE_2198f27f-5bd1-402a-ac0d-c613f59cbf04" d="M8643.99,236.312C8646.83,236.927 8653.4,237.595 8663.68,238.316C8673.96,239.036 8684.62,240.016 8695.65,241.256C8706.68,242.496 8717.08,243.507 8726.85,244.288C8736.62,245.068 8745.8,245.616 8754.36,245.932C8762.93,246.248 8769.38,246.455 8773.69,246.552C8778.01,246.651 8781.84,246.698 8785.18,246.694C8788.52,246.69 8791.53,246.688 8794.2,246.688C8796.87,246.687 8800.96,246.532 8806.45,246.224C8811.94,245.916 8816.87,245.587 8821.22,245.238C8825.57,244.89 8830.1,244.579 8834.82,244.306C8839.54,244.031 8842.13,243.873 8842.59,243.832" style="fill:none;fill-rule:nonzero;stroke:black;stroke-width:9.6px;"/>
        <path id="STROKE_8dc34f65-b877-4186-be13-cdd166fdf027" d="M93.382,8667.03C102.959,8666.17 111.094,8665.26 117.786,8664.3C124.479,8663.34 129.739,8662.65 133.564,8662.21C137.391,8661.77 141.747,8661.38 146.634,8661.05C151.521,8660.72 160.479,8660.28 173.508,8659.75C186.537,8659.22 197.174,8658.88 205.418,8658.73C213.662,8658.58 222.632,8658.34 232.328,8658.04C242.023,8657.73 256.145,8657.99 274.696,8658.83C293.247,8659.66 309.833,8660.98 324.456,8662.77" style="fill:none;fill-rule:nonzero;stroke:black;stroke-width:9.6px;"/>
        <path id="STROKE_97962b0b-498b-4909-96ba-a41608fd1bcb" d="M240.806,8595.66L240.854,8601.62C239.582,8655.44 239.078,8690.77 239.342,8707.6C239.606,8724.43 239.875,8734.9 240.15,8739C240.423,8743.11 240.996,8752.52 241.868,8767.26C242.74,8781.99 243.355,8795.93 243.714,8809.08C244.074,8822.22 244.229,8831.71 244.18,8837.54" style="fill:none;fill-rule:nonzero;stroke:black;stroke-width:9.6px;"/>
    </g>
    <g id="artwork">
        <g id="art4">
            <path id="STROKE_53406a23-08e2-459f-8f9a-8e228471d64c" d="M1120.23,4831.07C1128.36,4831.13 1151.6,4831.58 1189.96,4832.42C1228.31,4833.26 1259.6,4833.95 1283.81,4834.52C1308.03,4835.08 1324.23,4835.45 1332.41,4835.63C1340.6,4835.81 1355.8,4836.02 1378.03,4836.26" style="fill:none;fill-rule:nonzero;stroke:black;stroke-width:17px;"/>
            <path id="STROKE_8731bb0d-9dcf-4915-8261-830b425694c4" d="M1417.31,4825.22C1413.43,4783.06 1409.73,4740.5 1406.21,4697.55C1402.69,4654.6 1399.03,4612.05 1395.23,4569.91" style="fill:none;fill-rule:nonzero;stroke:black;stroke-width:17px;"/>
            <path id="STROKE_cb36787c-d7ef-4abf-aa02-67747e0ea199" d="M1081.7,4566.18C1083.61,4596.52 1084.8,4616.39 1085.28,4625.78C1085.75,4635.17 1086.18,4647.82 1086.59,4663.74C1086.99,4679.65 1087.2,4696.5 1087.22,4714.28C1086.88,4733.74 1086.37,4748.73 1085.68,4759.26C1084.98,4769.78 1084.28,4778.15 1083.55,4784.35C1082.83,4790.55 1081.32,4799.81 1079.03,4812.12C1076.74,4824.43 1074.86,4833.95 1073.39,4840.69C1071.92,4847.42 1068.96,4860.52 1064.49,4879.99" style="fill:none;fill-rule:nonzero;stroke:black;stroke-width:17px;"/>
            <path id="STROKE_6ead92b2-f3e6-48ac-ae78-47e6e770a39b" d="M1068.93,4881.04C1077.07,4880.68 1092.45,4880.13 1115.09,4879.38C1137.73,4878.64 1161.03,4877.91 1184.99,4877.21C1208.95,4876.51 1228.84,4875.94 1244.68,4875.51C1260.51,4875.08 1272.3,4874.75 1280.04,4874.52C1287.78,4874.29 1307.12,4873.72 1338.07,4872.81L1372.94,4871.39" style="fill:none;fill-rule:nonzero;stroke:black;stroke-width:17px;"/>
            <path id="STROKE_850a7978-705f-4030-ad78-0de94d089828" d="M1094.8,4875.53C1095.04,4894.82 1095.34,4931.62 1095.68,4985.92C1096.03,5040.23 1096.19,5085.52 1096.19,5121.8C1096.18,5158.09 1096.09,5191.87 1095.92,5223.15C1095.75,5254.43 1095.59,5278.47 1095.44,5295.25C1095.29,5312.03 1094.94,5342.64 1094.38,5387.06C1093.82,5431.48 1093.28,5470.97 1092.76,5505.53C1092.25,5540.08 1091.64,5580.85 1090.93,5627.84C1090.23,5674.82 1089.69,5710.84 1089.31,5735.88C1088.92,5760.93 1088.56,5786.78 1088.2,5813.42C1087.85,5840.07 1087.52,5869.32 1087.21,5901.15C1086.9,5932.99 1086.66,5965.01 1086.47,5997.22C1086.29,6029.43 1086.18,6063.25 1086.16,6098.68C1086.13,6134.1 1086.21,6180.51 1086.41,6237.89C1086.61,6295.28 1086.75,6330.28 1086.82,6342.9C1086.89,6355.51 1087.13,6386.46 1087.53,6435.73C1087.93,6485 1088.21,6520.31 1088.38,6541.64C1088.55,6562.97 1088.85,6596.89 1089.27,6643.39C1089.7,6689.89 1090.19,6739.49 1090.73,6792.18C1091.27,6844.87 1091.65,6883.56 1091.87,6908.25C1092.1,6932.95 1092.45,6976.95 1092.94,7040.28C1093.42,7103.61 1093.79,7156.85 1094.04,7199.99" style="fill:none;fill-rule:nonzero;stroke:black;stroke-width:17px;"/>
            <path id="STROKE_2a74f7f1-61ed-4c60-8851-650498506b01" d="M1436.47,4793.83C1555.1,4791.63 1631.39,4790.17 1665.32,4789.46C1699.26,4788.75 1733.12,4788 1766.9,4787.2C1800.67,4786.4 1825.14,4785.81 1840.29,4785.43C1855.43,4785.06 1879.61,4784.34 1912.82,4783.29C1946.03,4782.25 1972.7,4781.33 1992.83,4780.55C2012.97,4779.77 2035.34,4778.86 2059.96,4777.81C2084.58,4776.77 2113.81,4775.47 2147.63,4773.93C2181.46,4772.38 2209.05,4771.08 2230.4,4770.02C2251.76,4768.96 2271.42,4767.96 2289.39,4767.02C2307.36,4766.09 2341.25,4764.26 2391.07,4761.54C2440.88,4758.83 2480.72,4756.62 2510.61,4754.94C2540.49,4753.25 2594.78,4750.1 2673.45,4745.47C2752.13,4740.85 2808.5,4737.54 2842.57,4735.54C2876.64,4733.55 2905.1,4731.86 2927.94,4730.46" style="fill:none;fill-rule:nonzero;stroke:black;stroke-width:17px;"/>
            <path id="STROKE_941f2ba7-9dfb-4087-b4fd-f1856dc13598" d="M1382.89,4878.28C1383.55,4939.26 1384,4983.9 1384.24,5012.21C1384.49,5040.52 1384.7,5073.18 1384.88,5110.17C1385.07,5147.16 1385.17,5177.65 1385.18,5201.62C1385.2,5225.59 1385.18,5248.11 1385.13,5269.19C1385.08,5290.27 1385.01,5310.92 1384.9,5331.15C1384.79,5351.37 1384.58,5378.71 1384.26,5413.16C1383.95,5447.61 1383.64,5477.18 1383.31,5501.87C1382.99,5526.56 1382.52,5558.97 1381.89,5599.09C1381.26,5639.23 1380.21,5699.59 1378.75,5780.18C1377.29,5860.78 1376.33,5914.37 1375.86,5940.97C1375.39,5967.57 1374.5,6017.21 1373.18,6089.87C1371.87,6162.53 1370.44,6242.74 1368.92,6330.47C1367.39,6418.21 1365.98,6499.93 1364.69,6575.65C1363.39,6651.37 1362.03,6730.76 1360.59,6813.82C1359.15,6896.88 1357.95,6966.54 1357,7022.81C1356.05,7079.08 1355.44,7115 1355.18,7130.58C1354.92,7146.15 1354.63,7164.8 1354.32,7186.53" style="fill:none;fill-rule:nonzero;stroke:black;stroke-width:17px;"/>
            <path id="STROKE_04c62398-df6f-43fc-9cd4-134ff7ac68cc" d="M1428.24,7171.35C1425.26,7174.41 1422.23,7177.59 1419.14,7180.89C1416.05,7184.2 1412.46,7188.07 1408.38,7192.51C1404.3,7196.94 1398.68,7203.01 1391.54,7210.71C1384.39,7218.4 1379.15,7224.04 1375.83,7227.62C1372.5,7231.2 1364.43,7239.55 1351.62,7252.65" style="fill:none;fill-rule:nonzero;stroke:black;stroke-width:17px;"/>
            <path id="STROKE_21b7f891-7df2-4a15-9197-a9bd2bd83ed4" d="M1056.59,7268.55C1093.79,7268.7 1123.86,7268.92 1146.79,7269.22C1169.72,7269.51 1188.17,7269.77 1202.16,7269.99C1216.14,7270.22 1227.16,7270.4 1235.2,7270.56C1243.24,7270.72 1257.94,7270.97 1279.3,7271.29C1300.66,7271.62 1323.5,7271.85 1347.83,7271.96" style="fill:none;fill-rule:nonzero;stroke:black;stroke-width:17px;"/>
            <path id="STROKE_77929ae8-079b-40af-86d9-6524636cbfc4" d="M932.78,7414.26C1071.44,7419.12 1160.95,7422.29 1201.3,7423.76C1241.65,7425.23 1285.27,7426.78 1332.17,7428.4C1379.06,7430.02 1431.73,7431.81 1490.18,7433.78C1548.63,7435.74 1605.54,7437.65 1660.92,7439.49C1716.29,7441.34 1767.55,7442.98 1814.71,7444.41C1861.87,7445.84 1899.6,7446.98 1927.91,7447.81C1956.22,7448.64 1995.11,7449.81 2044.59,7451.3C2094.06,7452.8 2139.8,7454.12 2181.8,7455.29C2223.79,7456.46 2258.14,7457.43 2284.84,7458.22C2311.54,7459.01 2353.8,7460.31 2411.61,7462.13C2469.43,7463.94 2527.09,7465.85 2584.6,7467.83C2642.11,7469.82 2701.88,7471.93 2763.9,7474.18C2825.93,7476.44 2876.82,7478.28 2916.58,7479.73" style="fill:none;fill-rule:nonzero;stroke:black;stroke-width:17px;"/>
            <path id="STROKE_5fb87507-9ba2-4eb4-8fe5-7dc437349555" d="M1061.46,7263.68C1054.93,7269.16 1038.48,7282.76 1012.1,7304.48C985.721,7326.21 966.187,7342.28 953.498,7352.68C940.809,7363.09 931.221,7370.98 924.736,7376.35C918.251,7381.72 904.915,7392.87 884.728,7409.8" style="fill:none;fill-rule:nonzero;stroke:black;stroke-width:17px;"/>
            <path id="STROKE_f2cfaf5b-e573-4199-8836-caf77e3d9b7c" d="M899.122,7420.42C900.646,7439.02 901.642,7451.02 902.11,7456.43C902.578,7461.85 903.53,7474.54 904.966,7494.5" style="fill:none;fill-rule:nonzero;stroke:black;stroke-width:17px;"/>
            <path id="STROKE_1d32c44a-5c0a-4e28-ac6f-aea85517ed58" d="M1525.02,4917.96C1524.72,5119.02 1524.54,5233.41 1524.48,5261.15C1524.41,5288.9 1524.25,5327.02 1524,5375.54C1523.74,5424.06 1523.49,5462.51 1523.25,5490.9C1523.01,5519.3 1522.66,5553.51 1522.2,5593.54C1521.74,5633.57 1521.25,5670.92 1520.75,5705.59C1520.24,5740.25 1519.69,5773.87 1519.1,5806.44C1518.51,5839.01 1518.01,5864.83 1517.59,5883.91C1517.17,5903 1516.65,5925.44 1516.03,5951.23" style="fill:none;fill-rule:nonzero;stroke:black;stroke-width:17px;"/>
            <path id="STROKE_7cc692df-0081-4df7-8fe9-55d340ab8251" d="M1523.84,4899.55C1564.32,4898.66 1600.51,4897.89 1632.41,4897.23C1664.3,4896.56 1700.47,4895.81 1740.91,4894.98C1781.34,4894.14 1827.55,4893.15 1879.53,4892C1931.5,4890.86 1991.94,4889.48 2060.85,4887.88C2129.76,4886.27 2182.11,4885.02 2217.92,4884.13C2253.73,4883.23 2293.62,4882.22 2337.6,4881.08C2381.57,4879.94 2428.12,4878.73 2477.22,4877.46L2503.17,4876.75" style="fill:none;fill-rule:nonzero;stroke:black;stroke-width:17px;"/>
            <path id="STROKE_62f77145-1ca3-4cbf-bedf-1c9e2d94e923" d="M2501.86,4879.85C2499.08,4961.8 2497.36,5012.41 2496.69,5031.66C2496.03,5050.92 2494.7,5091.39 2492.72,5153.07C2490.75,5214.75 2489.56,5252.7 2489.15,5266.94C2488.75,5281.17 2488.09,5306.3 2487.16,5342.32C2486.24,5378.33 2485.03,5425.53 2483.53,5483.92C2482.04,5542.31 2480.81,5589.79 2479.86,5626.36C2478.91,5662.94 2477.96,5700.71 2477,5739.68C2476.04,5778.65 2474.64,5837.65 2472.8,5916.67" style="fill:none;fill-rule:nonzero;stroke:black;stroke-width:17px;"/>
            <path id="STROKE_291f5285-cbbd-47e9-b924-d5952108bcbd" d="M1511.79,5959.02C1600.36,5956.69 1662.14,5955.08 1697.13,5954.2C1732.12,5953.32 1768.22,5952.37 1805.43,5951.34C1842.65,5950.31 1883.06,5949.08 1926.68,5947.63C1970.29,5946.19 2015.05,5944.58 2060.94,5942.81C2106.84,5941.03 2143.84,5939.56 2171.94,5938.39C2200.04,5937.22 2232.85,5935.81 2270.35,5934.16C2307.85,5932.51 2338.76,5931.14 2363.07,5930.06C2387.38,5928.98 2427.15,5927.14 2482.37,5924.54" style="fill:none;fill-rule:nonzero;stroke:black;stroke-width:17px;"/>
            <path id="STROKE_36539b4b-afca-4423-a634-71bf0e8f29c4" d="M1522.48,6034.67C1522.35,6042.97 1521.96,6070.35 1521.34,6116.81C1520.71,6163.26 1520.16,6204.92 1519.66,6241.78C1519.17,6278.63 1518.46,6333.11 1517.52,6405.21C1516.59,6477.31 1515.69,6543.25 1514.85,6603.04C1514,6662.82 1513.36,6706.76 1512.94,6734.86C1512.51,6762.95 1511.94,6798.39 1511.23,6841.16C1510.52,6883.94 1509.43,6946.34 1507.97,7028.34" style="fill:none;fill-rule:nonzero;stroke:black;stroke-width:17px;"/>
            <path id="STROKE_25bfdacb-dd0e-4e32-93ee-35f88053a18b" d="M1518.29,6036.17C1649.81,6032.97 1740.32,6030.68 1789.8,6029.31C1839.28,6027.95 1889.75,6026.51 1941.22,6025C1992.68,6023.5 2034.19,6022.25 2065.74,6021.27C2097.29,6020.29 2135.01,6019.04 2178.89,6017.52C2222.78,6016.01 2265.55,6014.53 2307.19,6013.09C2348.83,6011.65 2375.29,6010.72 2386.57,6010.3C2397.86,6009.88 2422.11,6008.98 2459.32,6007.62" style="fill:none;fill-rule:nonzero;stroke:black;stroke-width:17px;"/>
            <path id="STROKE_6d7898a2-e279-45fd-92e3-5a62d87ba380" d="M2473.76,6010.21C2466.74,6190.46 2462.47,6302.93 2460.95,6347.63C2459.43,6392.33 2457.99,6438.31 2456.63,6485.56C2455.27,6532.82 2454.28,6568.31 2453.65,6592.03C2453.03,6615.75 2452.36,6643.27 2451.64,6674.57C2450.93,6705.88 2450.33,6735 2449.83,6761.94C2449.34,6788.88 2448.7,6828.99 2447.9,6882.26C2447.11,6935.53 2446.43,6981.29 2445.84,7019.54" style="fill:none;fill-rule:nonzero;stroke:black;stroke-width:17px;"/>
            <path id="STROKE_04fd4806-c1c4-4329-92aa-1a6948d5638e" d="M1524.43,7030.66C1576.16,7030.63 1619.15,7030.59 1653.4,7030.54C1687.65,7030.5 1713.16,7030.45 1729.94,7030.4C1746.72,7030.36 1774.2,7030.24 1812.38,7030.07C1850.57,7029.89 1884.19,7029.71 1913.24,7029.53C1942.3,7029.36 1964.6,7029.21 1980.15,7029.1C1995.7,7028.98 2020.89,7028.76 2055.73,7028.43C2090.57,7028.1 2131.22,7027.65 2177.68,7027.08C2224.13,7026.52 2261.92,7026.03 2291.04,7025.62C2320.16,7025.22 2341.94,7024.92 2356.38,7024.72C2370.82,7024.52 2397.26,7024.14 2435.7,7023.56" style="fill:none;fill-rule:nonzero;stroke:black;stroke-width:17px;"/>
            <path id="STROKE_48adeee6-a8f1-4324-8b42-db7116cfb7e6" d="M2583.16,4891.43C2582.99,4898.11 2582.21,4924.27 2580.82,4969.9C2579.43,5015.53 2577.97,5061.97 2576.45,5109.23C2574.92,5156.5 2573.49,5200.59 2572.16,5241.51C2570.82,5282.43 2568.98,5340.41 2566.63,5415.44C2564.28,5490.48 2562.8,5538.28 2562.19,5558.85C2561.58,5579.41 2560.61,5613.69 2559.27,5661.69C2557.94,5709.69 2556.71,5754.21 2555.59,5795.25C2554.47,5836.28 2553.46,5872.76 2552.57,5904.67" style="fill:none;fill-rule:nonzero;stroke:black;stroke-width:17px;"/>
            <path id="STROKE_418be538-37ef-4b2d-80f1-48342fd66b1a" d="M2584.15,4878.18C2621.86,4876.89 2644.8,4876.12 2652.97,4875.88C2661.14,4875.65 2673.55,4875.35 2690.2,4874.98C2706.85,4874.61 2726.35,4874.13 2748.7,4873.56C2771.05,4872.98 2794.36,4872.42 2818.62,4871.88C2842.88,4871.34 2862.31,4870.84 2876.92,4870.38C2891.53,4869.92 2910.54,4869.26 2933.95,4868.39" style="fill:none;fill-rule:nonzero;stroke:black;stroke-width:17px;"/>
            <path id="STROKE_e42c0e85-fffb-4f37-941d-80fd9d12c56f" d="M2558.99,5910.44C2597.45,5908.7 2617.01,5907.82 2617.68,5907.78C2618.35,5907.74 2626.69,5907.39 2642.7,5906.74C2658.7,5906.08 2674.03,5905.5 2688.69,5905C2703.34,5904.49 2726.41,5903.73 2757.91,5902.7C2789.41,5901.68 2812.7,5900.94 2827.77,5900.51C2842.84,5900.08 2884.71,5898.68 2953.37,5896.32" style="fill:none;fill-rule:nonzero;stroke:black;stroke-width:17px;"/>
            <path id="STROKE_f5ed4e03-2587-405d-86f9-255925707ab9" d="M2541.46,6009.66C2548.89,6009.27 2573.08,6008.18 2614.05,6006.38C2655.01,6004.58 2684.05,6003.33 2701.16,6002.63C2718.27,6001.92 2738.41,6001.09 2761.56,6000.14C2784.72,5999.18 2796.82,5998.69 2797.87,5998.66C2798.92,5998.63 2815.11,5997.97 2846.46,5996.69C2877.81,5995.41 2901.6,5994.4 2917.85,5993.66C2934.09,5992.92 2946.94,5992.31 2956.4,5991.81" style="fill:none;fill-rule:nonzero;stroke:black;stroke-width:17px;"/>
            <path id="STROKE_2048c31a-47d7-491b-8b5a-34cd41ad4bf6" d="M2544.6,6014.69C2541.8,6128.33 2539.96,6201.85 2539.06,6235.24C2538.16,6268.63 2536.96,6311.25 2535.47,6363.12C2533.98,6414.98 2532.61,6458.96 2531.37,6495.05C2530.12,6531.14 2528.95,6562.89 2527.85,6590.31C2526.75,6617.74 2525.25,6653.24 2523.35,6696.83C2521.45,6740.41 2519.85,6776.15 2518.56,6804.02C2517.26,6831.9 2516.14,6855.57 2515.18,6875.02C2514.22,6894.47 2511.69,6943.42 2507.58,7021.87" style="fill:none;fill-rule:nonzero;stroke:black;stroke-width:17px;"/>
            <path id="STROKE_44e817d8-f0c5-49b7-9da2-9ccd0a936740" d="M2520.62,7024.21C2537.74,7024.25 2551.12,7024.28 2560.77,7024.31C2570.42,7024.33 2587.29,7024.36 2611.4,7024.41C2635.51,7024.45 2655.91,7024.48 2672.61,7024.51C2689.32,7024.54 2702.03,7024.56 2710.75,7024.57C2719.48,7024.59 2736.4,7024.62 2761.52,7024.67C2786.64,7024.73 2807.74,7024.78 2824.8,7024.83C2841.87,7024.87 2854.22,7024.91 2861.84,7024.94C2869.46,7024.96 2885.76,7025.01 2910.72,7025.08" style="fill:none;fill-rule:nonzero;stroke:black;stroke-width:17px;"/>
            <path id="STROKE_fae16dd5-73a9-4e1b-ba02-aa3fce51da48" d="M889.49,6120.96C888.955,6181.08 888.627,6219.24 888.506,6235.44C888.385,6251.64 888.244,6268.28 888.084,6285.38C887.923,6302.47 887.761,6319.13 887.598,6335.36C887.434,6351.59 887.276,6372.56 887.124,6398.28C886.972,6424 886.833,6448.68 886.706,6472.31C886.581,6495.95 886.499,6513.75 886.46,6525.72" style="fill:none;fill-rule:nonzero;stroke:black;stroke-width:17px;"/>
            <path id="STROKE_b203403d-92bf-4a17-a16d-9cbc9560fe39" d="M694.574,6153.33C700.291,6152.91 708.175,6152.4 718.226,6151.79C728.277,6151.18 742.003,6150.44 759.406,6149.58C776.807,6148.72 791.133,6148.01 802.384,6147.46C813.636,6146.91 822.021,6146.5 827.54,6146.24C833.059,6145.98 837.982,6145.72 842.31,6145.47C846.638,6145.22 858.829,6144.4 878.884,6143.03" style="fill:none;fill-rule:nonzero;stroke:black;stroke-width:17px;"/>
            <path id="STROKE_4d7a1103-b283-4f22-af3f-e67d431a9202" d="M672.604,6160.23C674.231,6198.11 675.366,6225.28 676.01,6241.73C676.655,6258.18 677.699,6286.72 679.14,6327.34C680.583,6367.97 681.803,6400.2 682.8,6424.04C683.799,6447.88 685.198,6479.02 686.998,6517.44" style="fill:none;fill-rule:nonzero;stroke:black;stroke-width:17px;"/>
            <path id="STROKE_5766f2c1-1541-47c2-838b-5cadc13378e7" d="M672.928,6509.25C696.377,6507.69 716.355,6506.34 732.86,6505.21C749.365,6504.09 761.55,6503.27 769.414,6502.75C777.278,6502.24 789.167,6501.45 805.082,6500.39C820.997,6499.32 841.701,6498.01 867.196,6496.43" style="fill:none;fill-rule:nonzero;stroke:black;stroke-width:17px;"/>
            <path id="STROKE_b61eb87e-9bc5-4d59-8189-b5e8c076ca75" d="M728.99,6224.97C732.85,6233.43 735.598,6239.16 737.234,6242.18C738.871,6245.19 740.427,6247.9 741.902,6250.29C743.377,6252.68 744.668,6254.64 745.776,6256.16C746.884,6257.68 748.12,6259.22 749.484,6260.78C750.849,6262.34 758.34,6269.36 771.956,6281.84" style="fill:none;fill-rule:nonzero;stroke:black;stroke-width:17px;"/>
            <path id="STROKE_25d7a798-7840-45d3-9e62-bff960dc2edd" d="M738.622,6214.66C743.739,6213.4 747.405,6212.54 749.62,6212.08C751.836,6211.63 756.005,6210.85 762.128,6209.76C768.252,6208.67 782.278,6206.38 804.206,6202.9" style="fill:none;fill-rule:nonzero;stroke:black;stroke-width:17px;"/>
            <path id="STROKE_4d37b98e-f510-4e24-ac45-79260a7d176a" d="M814.596,6199.82C817.773,6206.47 819.907,6211.12 820.996,6213.77C822.084,6216.41 823.143,6219.34 824.174,6222.56C825.206,6225.78 826.293,6230.14 827.436,6235.62C828.579,6241.11 829.231,6244.47 829.394,6245.69C829.558,6246.92 829.742,6250.53 829.946,6256.52C830.15,6262.52 830.053,6267.51 829.656,6271.49C829.259,6275.47 827.775,6284.76 825.204,6299.36" style="fill:none;fill-rule:nonzero;stroke:black;stroke-width:17px;"/>
            <path id="STROKE_0da4b3ef-4c06-40db-a8df-f4c98f56854f" d="M758.536,6302.85C762.117,6302.03 767.997,6300.83 776.176,6299.28C784.353,6297.72 790.73,6296.54 795.306,6295.75C799.883,6294.95 809.849,6293.29 825.204,6290.76" style="fill:none;fill-rule:nonzero;stroke:black;stroke-width:17px;"/>
            <path id="STROKE_4e93faa8-92cf-42f7-8551-0b935f9485a5" d="M774.662,6240.46C774.537,6245.32 774.645,6257.73 774.986,6277.7" style="fill:none;fill-rule:nonzero;stroke:black;stroke-width:17px;"/>
            <path id="STROKE_28996be9-c8b4-4410-b671-adca54d9b2fb" d="M792.518,6243.22L794.494,6250.37L798.362,6266.34" style="fill:none;fill-rule:nonzero;stroke:black;stroke-width:17px;"/>
            <path id="STROKE_a02ad55e-3a40-446b-8417-5fac7858cd9c" d="M727.908,6397.21C728.219,6404 728.526,6409.32 728.83,6413.16C729.134,6417 729.753,6421.59 730.688,6426.92C731.624,6432.25 732.639,6436.63 733.732,6440.06C734.827,6443.49 735.782,6446.19 736.598,6448.17C737.413,6450.15 740.36,6456.72 745.44,6467.87" style="fill:none;fill-rule:nonzero;stroke:black;stroke-width:17px;"/>
            <path id="STROKE_0127f5df-8bee-498f-ada5-bd11f2ebe12e" d="M731.046,6384.15C748.761,6383.08 759.857,6382.45 764.336,6382.25C768.815,6382.04 772.949,6381.9 776.74,6381.83C780.531,6381.76 785.11,6381.75 790.478,6381.8C795.846,6381.85 805.942,6382.06 820.766,6382.44" style="fill:none;fill-rule:nonzero;stroke:black;stroke-width:17px;"/>
            <path id="STROKE_111d24f2-9f21-4798-a699-ae217c3c697a" d="M821.74,6371.41C822.345,6374.51 823.008,6377.93 823.728,6381.67C824.447,6385.4 825.225,6390.37 826.062,6396.55C826.899,6402.74 827.497,6407.6 827.856,6411.13C828.213,6414.66 828.543,6419.72 828.846,6426.33C829.149,6432.93 829.261,6438.97 829.182,6444.43C829.102,6449.89 828.569,6458.98 827.584,6471.68" style="fill:none;fill-rule:nonzero;stroke:black;stroke-width:17px;"/>
            <path id="STROKE_c3af1bce-40db-40d8-ace5-ac90825b6239" d="M749.228,6479.96C757.504,6476.84 766.329,6473.96 775.704,6471.33C785.079,6468.69 794.005,6466.47 802.484,6464.65C810.964,6462.82 818.361,6461.39 824.674,6460.34C830.987,6459.29 837.116,6458.37 843.06,6457.57" style="fill:none;fill-rule:nonzero;stroke:black;stroke-width:17px;"/>
            <path id="STROKE_5e87708e-22e4-46d2-ba1a-9247c3c0ed9c" d="M761.566,6436.15C761.231,6437.87 760.546,6446.39 759.51,6461.71" style="fill:none;fill-rule:nonzero;stroke:black;stroke-width:17px;"/>
            <path id="STROKE_2918679f-5c1c-49e9-b3e1-892c3ccb1ede" d="M791.544,6412.78L798.038,6437.2" style="fill:none;fill-rule:nonzero;stroke:black;stroke-width:17px;"/>
            <path id="STROKE_376ed18f-6ae0-41cb-8dc1-690ab61ed032" d="M1412.11,7185.14C1449.27,7184.61 1472.1,7184.3 1480.58,7184.19C1489.07,7184.08 1500.82,7183.92 1515.84,7183.72C1530.86,7183.51 1543.37,7183.36 1553.39,7183.26C1563.41,7183.15 1575.04,7183.06 1588.29,7182.98C1601.53,7182.9 1617.14,7182.84 1635.12,7182.8C1653.09,7182.76 1665.07,7182.74 1671.05,7182.75C1677.04,7182.76 1693.72,7182.84 1721.1,7183.01C1748.48,7183.17 1781.58,7183.43 1820.41,7183.79C1859.24,7184.15 1888.24,7184.44 1907.4,7184.65C1926.56,7184.86 1939.49,7184.99 1946.18,7185.05C1952.88,7185.11 1964.74,7185.18 1981.77,7185.27C1998.8,7185.35 2017.77,7185.41 2038.68,7185.43C2059.59,7185.46 2075.43,7185.46 2086.19,7185.43C2096.95,7185.4 2116.32,7185.29 2144.3,7185.09C2172.27,7184.89 2200.81,7184.65 2229.91,7184.36C2259.02,7184.08 2286.81,7183.79 2313.28,7183.5C2339.75,7183.21 2370.95,7182.86 2406.89,7182.45C2442.82,7182.04 2467.5,7181.78 2480.93,7181.67C2494.35,7181.56 2514.67,7181.43 2541.87,7181.27C2569.07,7181.11 2589.27,7181 2602.45,7180.96C2615.64,7180.91 2645.32,7180.88 2691.51,7180.84C2737.69,7180.81 2772.3,7180.79 2795.34,7180.78C2818.38,7180.78 2840.39,7180.79 2861.37,7180.81C2882.35,7180.83 2902.04,7180.85 2920.43,7180.87" style="fill:none;fill-rule:nonzero;stroke:black;stroke-width:17px;"/>
            <path id="STROKE_eac52059-7dc3-4438-911c-d4134cdfa167" d="M1800.09,7114.39C1800.38,7112.78 1801.12,7109.46 1802.29,7104.45C1803.47,7099.43 1804.53,7095.69 1805.48,7093.23C1806.43,7090.77 1807.62,7088.33 1809.05,7085.93C1810.49,7083.52 1811.93,7081.49 1813.37,7079.83C1814.82,7078.18 1815.82,7077.09 1816.39,7076.56C1816.96,7076.03 1819.38,7074.43 1823.67,7071.78C1827.96,7069.13 1831.35,7067.36 1833.85,7066.48C1836.35,7065.6 1838.25,7064.99 1839.54,7064.66C1840.82,7064.33 1843.34,7063.91 1847.08,7063.38C1850.83,7062.86 1854.06,7062.52 1856.77,7062.36C1859.49,7062.21 1864.97,7062.18 1873.22,7062.29C1881.47,7062.4 1888.93,7062.54 1895.59,7062.72C1902.26,7062.89 1910.5,7063.03 1920.32,7063.14C1930.14,7063.25 1938.75,7063.44 1946.14,7063.72C1953.53,7064 1959.48,7064.49 1964,7065.2C1968.52,7065.91 1971.52,7066.49 1972.99,7066.93C1974.47,7067.37 1975.79,7067.82 1976.94,7068.27C1978.1,7068.73 1979.59,7069.47 1981.42,7070.49C1983.25,7071.51 1984.4,7072.2 1984.88,7072.57C1985.36,7072.93 1986.15,7073.64 1987.26,7074.7C1988.37,7075.76 1989.34,7076.85 1990.16,7077.95C1990.98,7079.07 1991.68,7080.12 1992.25,7081.11C1992.82,7082.11 1993.84,7085.52 1995.3,7091.35C1996.75,7097.19 1997.52,7100.64 1997.58,7101.72C1997.65,7102.79 1997.66,7106.82 1997.62,7113.78" style="fill:none;fill-rule:nonzero;stroke:black;stroke-width:17px;"/>
            <path id="STROKE_e8f3a8e0-9b82-48e9-b75c-b8478ca602b3" d="M1797.36,7126.42L1799.01,7126.56C1811.61,7128.04 1820.07,7128.98 1824.39,7129.38C1828.72,7129.79 1832.99,7130.09 1837.21,7130.3C1841.44,7130.51 1846.1,7130.6 1851.2,7130.57C1856.31,7130.55 1863,7130.35 1871.27,7129.96C1879.55,7129.57 1886.96,7129.26 1893.52,7129C1900.08,7128.75 1906.2,7128.55 1911.9,7128.4C1917.6,7128.26 1923.66,7128.11 1930.06,7127.97C1936.47,7127.83 1943.74,7127.75 1951.88,7127.72C1960.02,7127.69 1965.81,7127.71 1969.26,7127.77C1972.7,7127.83 1977.89,7127.99 1984.83,7128.25" style="fill:none;fill-rule:nonzero;stroke:black;stroke-width:17px;"/>
            <path id="STROKE_75398c50-63c2-4064-9b75-18261e9d2e3c" d="M2837.78,7119.89C2838.03,7119.49 2839.47,7117.27 2842.1,7113.25C2844.73,7109.22 2847.59,7105.24 2850.68,7101.29C2853.78,7097.35 2856.14,7094.56 2857.78,7092.95C2859.42,7091.33 2860.79,7090.06 2861.9,7089.12C2863,7088.19 2865.12,7086.7 2868.25,7084.64C2871.38,7082.59 2874.2,7081.01 2876.7,7079.89C2879.2,7078.78 2881.4,7077.92 2883.3,7077.3C2885.2,7076.68 2887.31,7076.12 2889.65,7075.63C2891.99,7075.13 2894.65,7074.72 2897.64,7074.41C2900.64,7074.09 2906.04,7073.95 2913.86,7073.99L2921.63,7074.88" style="fill:none;fill-rule:nonzero;stroke:black;stroke-width:17px;"/>
            <path id="STROKE_150b2b1f-a7a7-4654-bb7a-15f9dbef3805" d="M2843.53,7126.42C2849.68,7127.34 2854.19,7128.04 2857.05,7128.51C2859.91,7128.98 2861.87,7129.3 2862.94,7129.45C2864.01,7129.61 2867.97,7130.13 2874.84,7131.02C2881.7,7131.9 2886.59,7132.53 2889.48,7132.91C2892.38,7133.29 2895.77,7133.78 2899.65,7134.37C2903.53,7134.96 2907.3,7135.64 2910.96,7136.41C2911.78,7136.62 2913.97,7137.2 2917.51,7138.17" style="fill:none;fill-rule:nonzero;stroke:black;stroke-width:17px;"/>
        </g>
    </g>
</svg>
