<?xml version="1.0" encoding="UTF-8" standalone="no"?>
<!DOCTYPE svg PUBLIC "-//W3C//DTD SVG 1.1//EN" "http://www.w3.org/Graphics/SVG/1.1/DTD/svg11.dtd">
<svg width="100%" height="100%" viewBox="0 0 8936 8937" version="1.1" xmlns="http://www.w3.org/2000/svg" xmlns:xlink="http://www.w3.org/1999/xlink" xml:space="preserve" xmlns:serif="http://www.serif.com/" style="fill-rule:evenodd;clip-rule:evenodd;stroke-linecap:round;stroke-linejoin:round;">
    <g id="guides">
        <path id="STROKE_30db2727-b088-4eaa-bf72-49c647e6015c" d="M8701.03,314.012C8700.43,311.491 8700.26,308.849 8700.52,306.086C8700.77,303.323 8700.92,297.991 8700.96,290.088C8700.99,282.185 8700.51,270.629 8699.52,255.418C8698.52,240.209 8697.4,222.528 8696.16,202.376C8694.92,182.224 8694.15,165.671 8693.83,152.718C8693.52,139.765 8693.34,126.807 8693.3,113.844C8693.26,100.881 8693.24,94.069 8693.25,93.408" style="fill:none;fill-rule:nonzero;stroke:black;stroke-width:9.6px;"/>
        <path id="STROKE_2198f27f-5bd1-402a-ac0d-c613f59cbf04" d="M8643.99,236.312C8646.83,236.927 8653.4,237.595 8663.68,238.316C8673.96,239.036 8684.62,240.016 8695.65,241.256C8706.68,242.496 8717.08,243.507 8726.85,244.288C8736.62,245.068 8745.8,245.616 8754.36,245.932C8762.93,246.248 8769.38,246.455 8773.69,246.552C8778.01,246.651 8781.84,246.698 8785.18,246.694C8788.52,246.69 8791.53,246.688 8794.2,246.688C8796.87,246.687 8800.96,246.532 8806.45,246.224C8811.94,245.916 8816.87,245.587 8821.22,245.238C8825.57,244.89 8830.1,244.579 8834.82,244.306C8839.54,244.031 8842.13,243.873 8842.59,243.832" style="fill:none;fill-rule:nonzero;stroke:black;stroke-width:9.6px;"/>
        <path id="STROKE_8dc34f65-b877-4186-be13-cdd166fdf027" d="M93.382,8667.03C102.959,8666.17 111.094,8665.26 117.786,8664.3C124.479,8663.34 129.739,8662.65 133.564,8662.21C137.391,8661.77 141.747,8661.38 146.634,8661.05C151.521,8660.72 160.479,8660.28 173.508,8659.75C186.537,8659.22 197.174,8658.88 205.418,8658.73C213.662,8658.58 222.632,8658.34 232.328,8658.04C242.023,8657.73 256.145,8657.99 274.696,8658.83C293.247,8659.66 309.833,8660.98 324.456,8662.77" style="fill:none;fill-rule:nonzero;stroke:black;stroke-width:9.6px;"/>
        <path id="STROKE_97962b0b-498b-4909-96ba-a41608fd1bcb" d="M240.806,8595.66L240.854,8601.62C239.582,8655.44 239.078,8690.77 239.342,8707.6C239.606,8724.43 239.875,8734.9 240.15,8739C240.423,8743.11 240.996,8752.52 241.868,8767.26C242.74,8781.99 243.355,8795.93 243.714,8809.08C244.074,8822.22 244.229,8831.71 244.18,8837.54" style="fill:none;fill-rule:nonzero;stroke:black;stroke-width:9.6px;"/>
    </g>
    <g id="artwork">
        <g id="art5">
            <path id="STROKE_6b9cb892-672b-4108-a268-c3685ef718ac" d="M4791.61,5052.92C4785.44,5050.69 4781.12,5049.14 4778.64,5048.29C4776.16,5047.44 4767.87,5045.02 4753.76,5041.03C4739.65,5037.05 4727.34,5034.02 4716.84,5031.95C4706.33,5029.87 4698.45,5028.44 4693.2,5027.65C4687.94,5026.86 4677.84,5025.57 4662.9,5023.79C4647.95,5022 4634.8,5020.69 4623.44,5019.85C4612.08,5019.02 4602.34,5018.46 4594.21,5018.2C4586.07,5017.93 4578.59,5017.81 4571.76,5017.84C4564.92,5017.87 4555.8,5018.06 4544.38,5018.42C4532.96,5018.79 4522.38,5019.2 4512.64,5019.66C4502.9,5020.12 4488.83,5020.69 4470.44,5021.38C4452.05,5022.07 4437.51,5022.56 4426.82,5022.85C4416.13,5023.14 4405.11,5023.52 4393.78,5023.99C4382.44,5024.45 4372.69,5024.94 4364.52,5025.45C4356.34,5025.96 4346.12,5026.76 4333.84,5027.86C4321.56,5028.96 4314.09,5029.66 4311.44,5029.96C4308.8,5030.26 4300.11,5031.5 4285.39,5033.69C4270.67,5035.87 4258.42,5037.93 4248.63,5039.85C4238.83,5041.78 4228.21,5044.01 4216.76,5046.53C4205.31,5049.06 4192.68,5051.89 4178.86,5055.02C4165.05,5058.16 4153.97,5060.69 4145.63,5062.6C4137.29,5064.52 4126.04,5067.23 4111.88,5070.73C4097.72,5074.22 4081.67,5078.61 4063.74,5083.89C4045.82,5089.16 4032.48,5093.28 4023.74,5096.25C4015,5099.21 4001.1,5104.23 3982.03,5111.32C3962.96,5118.4 3946.78,5124.62 3933.49,5129.99C3920.19,5135.36 3910.39,5139.42 3904.07,5142.16C3897.75,5144.9 3886.9,5149.95 3871.51,5157.3C3856.13,5164.65 3844.02,5170.68 3835.17,5175.38C3826.32,5180.08 3814.03,5187.1 3798.3,5196.44C3782.57,5205.77 3771.9,5212.29 3766.29,5215.98C3760.68,5219.68 3754.43,5223.97 3747.55,5228.85C3740.66,5233.73 3732.37,5239.95 3722.66,5247.49C3712.95,5255.04 3704.15,5262.15 3696.27,5268.82C3688.39,5275.5 3680.35,5282.59 3672.15,5290.1C3663.95,5297.62 3649.66,5311.76 3629.26,5332.52C3608.86,5353.28 3596.38,5366.19 3591.82,5371.25C3587.26,5376.31 3579.7,5385.13 3569.11,5397.72C3558.53,5410.32 3552.16,5418 3550,5420.76C3547.84,5423.52 3542.78,5430.41 3534.83,5441.42C3526.88,5452.43 3520.22,5462.09 3514.85,5470.38C3509.49,5478.67 3504.03,5487.44 3498.48,5496.71C3492.94,5505.97 3484.99,5519.54 3474.66,5537.41C3464.33,5555.29 3456.02,5569.8 3449.74,5580.93C3443.46,5592.07 3437.2,5603.53 3430.97,5615.3C3424.74,5627.07 3420.36,5635.51 3417.84,5640.62C3415.32,5645.73 3411.93,5652.93 3407.66,5662.22C3403.39,5671.51 3397.57,5685.03 3390.19,5702.78C3382.8,5720.54 3376.93,5735.22 3372.57,5746.83C3368.21,5758.44 3362.13,5776.3 3354.34,5800.42C3346.54,5824.54 3341.84,5839.51 3340.22,5845.33C3338.6,5851.15 3337.11,5856.71 3335.74,5862.01C3334.37,5867.31 3333,5872.81 3331.63,5878.5C3330.26,5884.2 3327.66,5896.01 3323.84,5913.93C3320.02,5931.85 3316.94,5947.25 3314.59,5960.12C3312.24,5973 3310.45,5983.49 3309.22,5991.58C3307.98,5999.67 3306.87,6007.5 3305.88,6015.07C3304.9,6022.64 3303.69,6033.73 3302.27,6048.35C3300.85,6062.97 3299.85,6074.93 3299.27,6084.23C3298.69,6093.53 3298.24,6102.78 3297.91,6111.97C3297.58,6121.15 3297.34,6131.44 3297.2,6142.81C3297.07,6154.18 3297.1,6167.93 3297.3,6184.04C3297.5,6200.16 3297.8,6213.03 3298.21,6222.65C3298.61,6232.28 3299.24,6242.51 3300.09,6253.35C3300.94,6264.18 3301.53,6271.08 3301.84,6274.05C3302.15,6277.02 3303.02,6283.68 3304.45,6294.03C3305.87,6304.38 3307.79,6316.21 3310.21,6329.52C3312.62,6342.83 3315.13,6355.5 3317.74,6367.53C3320.36,6379.56 3323.56,6392.93 3327.35,6407.64C3331.14,6422.35 3334.35,6433.95 3337,6442.45C3339.64,6450.94 3343.28,6461.27 3347.94,6473.42C3352.59,6485.58 3356.67,6495.44 3360.17,6503.02C3363.68,6510.6 3367.21,6517.86 3370.77,6524.8C3374.34,6531.75 3378.96,6540.36 3384.65,6550.64C3390.35,6560.91 3396.52,6571.65 3403.19,6582.84C3409.86,6594.03 3415.93,6604.04 3421.42,6612.86C3426.9,6621.67 3431.99,6629.65 3436.7,6636.79C3441.4,6643.93 3448.22,6653.74 3457.15,6666.21C3466.08,6678.69 3473.43,6688.57 3479.18,6695.85C3484.94,6703.13 3493.83,6713.49 3505.84,6726.92C3517.85,6740.36 3528.64,6751.69 3538.2,6760.93C3547.76,6770.16 3555.65,6777.46 3561.86,6782.83C3568.07,6788.2 3574.56,6793.57 3581.32,6798.95C3588.09,6804.33 3594.53,6809.26 3600.67,6813.75C3606.8,6818.23 3612.07,6821.99 3616.48,6825.04C3620.89,6828.08 3625.04,6830.88 3628.94,6833.44C3632.85,6836 3640.16,6840.58 3650.89,6847.17C3661.62,6853.77 3670.16,6858.9 3676.5,6862.57C3682.84,6866.24 3695,6872.84 3712.99,6882.37C3730.98,6891.9 3743.46,6898.28 3750.42,6901.5C3757.39,6904.73 3766.12,6908.49 3776.62,6912.78C3787.13,6917.07 3796.58,6920.66 3804.98,6923.55C3813.39,6926.43 3820.62,6928.78 3826.66,6930.58C3832.71,6932.39 3840.29,6934.46 3849.39,6936.8C3858.5,6939.13 3865.67,6940.9 3870.92,6942.1C3876.17,6943.3 3883.7,6944.92 3893.53,6946.96C3903.35,6948.99 3918.15,6951.94 3937.92,6955.79C3957.69,6959.65 3975.22,6963.19 3990.5,6966.42C4005.78,6969.65 4021.69,6973.15 4038.21,6976.92C4054.73,6980.69 4070.8,6984.39 4086.4,6988.02C4102.01,6991.64 4114.28,6994.42 4123.21,6996.34C4132.15,6998.27 4143.65,7000.53 4157.72,7003.14C4171.79,7005.75 4185.34,7007.96 4198.37,7009.77C4211.4,7011.57 4223.99,7013.04 4236.17,7014.16C4248.34,7015.28 4260.18,7016.12 4271.68,7016.68C4283.18,7017.25 4292.36,7017.59 4299.2,7017.71C4306.05,7017.83 4319.05,7017.72 4338.21,7017.39C4357.36,7017.06 4372.3,7016.67 4383.01,7016.22C4393.72,7015.77 4403.05,7015.34 4411.01,7014.92C4418.97,7014.5 4431.07,7013.68 4447.32,7012.45C4463.57,7011.23 4478.97,7009.96 4493.5,7008.66C4508.04,7007.36 4525.48,7005.72 4545.83,7003.75C4566.18,7001.78 4582.85,6999.92 4595.82,6998.17C4608.8,6996.43 4617.38,6995.2 4621.56,6994.49C4625.75,6993.78 4631.17,6992.78 4637.82,6991.48C4644.48,6990.19 4653.88,6988.08 4666.02,6985.17C4678.17,6982.26 4690.08,6979.11 4701.75,6975.74C4713.41,6972.36 4724.51,6968.88 4735.02,6965.3C4745.53,6961.72 4753.76,6958.8 4759.73,6956.53C4765.7,6954.26 4771.08,6952.14 4775.89,6950.17C4780.7,6948.19 4788.81,6944.6 4800.22,6939.4C4811.63,6934.19 4824.21,6928.07 4837.95,6921.03C4851.7,6914 4865.52,6906.53 4879.4,6898.62C4893.27,6890.71 4905.79,6883.18 4916.94,6876.02C4928.09,6868.86 4936.87,6862.99 4943.29,6858.42C4949.7,6853.84 4955.98,6849.21 4962.13,6844.51C4968.28,6839.82 4979.66,6830.47 4996.28,6816.46C5012.89,6802.45 5025.63,6791.32 5034.5,6783.06C5043.37,6774.81 5051.34,6767.18 5058.42,6760.18C5065.5,6753.17 5072.41,6746.11 5079.15,6738.99C5085.9,6731.86 5092.59,6724.56 5099.22,6717.06C5105.86,6709.57 5114.42,6699.49 5124.91,6686.83C5135.4,6674.17 5145.24,6662.02 5154.42,6650.37C5163.6,6638.72 5169.22,6631.6 5171.27,6629.01C5173.32,6626.42 5176.8,6621.93 5181.71,6615.54C5186.62,6609.14 5191.67,6602.42 5196.85,6595.37C5202.03,6588.32 5208.74,6578.8 5216.99,6566.78C5225.23,6554.77 5231.6,6545.15 5236.09,6537.93C5240.59,6530.71 5245.22,6522.85 5250,6514.35C5254.78,6505.85 5260.98,6493.63 5268.59,6477.68C5276.21,6461.73 5281.88,6449.11 5285.6,6439.85C5289.33,6430.58 5293.94,6417.72 5299.44,6401.28C5304.94,6384.83 5308.41,6374.12 5309.85,6369.14C5311.29,6364.16 5314.2,6353.01 5318.57,6335.68C5322.94,6318.35 5326.83,6301.67 5330.23,6285.64C5333.63,6269.6 5336.4,6255.61 5338.54,6243.67C5340.68,6231.72 5342.58,6220.07 5344.25,6208.73C5345.92,6197.38 5347.53,6184.72 5349.06,6170.76C5350.6,6156.79 5351.67,6146.29 5352.27,6139.25C5352.88,6132.22 5353.43,6125.01 5353.94,6117.62C5354.45,6110.23 5354.97,6102.29 5355.5,6093.81C5356.02,6085.32 5356.5,6076.22 5356.93,6066.51C5357.36,6056.8 5358.04,6043.52 5358.98,6026.67C5359.92,6009.81 5360.6,5998.35 5361.03,5992.27C5361.46,5986.19 5362.21,5976.81 5363.27,5964.13C5364.33,5951.45 5365.27,5939.82 5366.08,5929.21C5366.89,5918.61 5367.53,5908.35 5368,5898.42C5368.48,5888.49 5368.75,5879.05 5368.82,5870.09C5368.89,5861.13 5368.65,5850.6 5368.1,5838.49C5367.55,5826.38 5367.09,5818.44 5366.74,5814.68C5366.38,5810.9 5365.34,5803.02 5363.63,5791.02C5361.91,5779.02 5358.81,5762.44 5354.32,5741.28C5349.84,5720.12 5345.54,5701.57 5341.44,5685.64C5337.33,5669.71 5334.44,5658.61 5332.75,5652.34C5331.06,5646.07 5328.55,5637.18 5325.23,5625.68C5321.91,5614.17 5318.43,5602.62 5314.79,5591.03C5311.16,5579.44 5308.4,5570.85 5306.53,5565.25C5304.66,5559.65 5300.76,5548.82 5294.83,5532.75C5288.9,5516.68 5283.52,5502.9 5278.68,5491.42C5273.83,5479.94 5269.49,5470.19 5265.66,5462.18C5261.82,5454.17 5257.2,5445.18 5251.8,5435.22C5246.4,5425.26 5242.05,5417.55 5238.76,5412.11C5235.47,5406.67 5227.09,5394.17 5213.61,5374.63C5200.14,5355.08 5191.09,5342.15 5186.45,5335.84C5181.82,5329.52 5177.46,5323.7 5173.38,5318.36C5169.29,5313.02 5165.5,5308.18 5162.01,5303.83C5158.52,5299.48 5153.2,5293.14 5146.05,5284.82C5138.91,5276.5 5132.35,5269.08 5126.36,5262.56C5120.38,5256.04 5114.15,5249.33 5107.69,5242.44C5101.23,5235.55 5095.11,5228.83 5089.32,5222.28C5083.54,5215.74 5077.45,5208.23 5071.06,5199.75C5064.67,5191.28 5059.69,5183.79 5056.11,5177.3C5052.53,5170.8 5050.08,5165.8 5048.75,5162.3C5047.43,5158.8 5046.45,5155.9 5045.84,5153.6C5045.22,5151.3 5044.68,5148.97 5044.23,5146.6C5043.78,5144.23 5043.39,5140.85 5043.04,5136.45C5042.69,5132.05 5042.63,5127.67 5042.87,5123.33C5043.11,5118.98 5044.4,5111.93 5046.75,5102.19C5049.1,5092.44 5051.24,5085.2 5053.18,5080.46C5055.11,5075.71 5057.55,5070.46 5060.48,5064.71C5063.41,5058.96 5067.47,5052.02 5072.65,5043.9C5077.83,5035.78 5083.47,5027.74 5089.59,5019.78C5095.7,5011.82 5101.1,5005.15 5105.78,4999.76C5110.46,4994.37 5114.18,4990.18 5116.94,4987.18C5119.71,4984.18 5122.95,4980.77 5126.66,4976.93C5130.38,4973.09 5135.32,4968.1 5141.49,4961.95C5147.65,4955.8 5153.46,4950.03 5158.9,4944.64C5164.34,4939.25 5171.3,4932.45 5179.78,4924.25C5188.27,4916.05 5196.71,4907.92 5205.11,4899.87C5213.51,4891.82 5220.42,4885.3 5225.86,4880.28C5231.29,4875.27 5236.15,4870.86 5240.46,4867.04C5244.76,4863.22 5249.11,4859.41 5253.53,4855.61C5257.95,4851.82 5268.09,4843.31 5283.96,4830.1C5299.84,4816.88 5311.03,4807.46 5317.54,4801.83C5324.05,4796.19 5329.72,4791.18 5334.55,4786.79C5339.39,4782.39 5344.1,4777.98 5348.68,4773.57C5353.27,4769.15 5359.32,4763.08 5366.82,4755.36C5374.32,4747.63 5381.27,4740.18 5387.66,4733.02C5394.05,4725.86 5400.86,4717.9 5408.09,4709.12C5415.32,4700.35 5420.97,4693.35 5425.03,4688.11C5429.08,4682.88 5431.69,4679.48 5432.86,4677.92C5434.03,4676.35 5439.5,4668.83 5449.29,4655.35C5459.08,4641.88 5467.45,4630 5474.4,4619.71C5481.36,4609.43 5487.67,4599.8 5493.34,4590.83C5499.01,4581.87 5507.98,4567.24 5520.26,4546.94" style="fill:none;fill-rule:nonzero;stroke:black;stroke-width:17px;"/>
            <path id="STROKE_9ab82bff-42e5-4e3f-8f5c-5a2ff38b3c74" d="M5141.82,4543.51C5122.26,4578.18 5106.48,4605.86 5094.47,4626.54C5082.47,4647.23 5072.31,4664.8 5063.99,4679.26C5055.67,4693.72 5049.18,4704.98 5044.52,4713.03C5039.87,4721.08 5033.73,4731.68 5026.12,4744.84C5018.51,4757.99 5011.2,4770.85 5004.22,4783.41C4997.23,4795.98 4989.06,4811.2 4979.71,4829.09C4970.37,4846.98 4961.91,4863.56 4954.33,4878.84C4946.76,4894.12 4940.45,4906.89 4935.41,4917.14C4930.36,4927.4 4926.61,4934.94 4924.16,4939.79C4921.7,4944.64 4918.99,4949.82 4916.02,4955.35C4913.04,4960.87 4909.28,4967.4 4904.74,4974.93C4900.19,4982.47 4896.79,4987.86 4894.54,4991.1C4892.28,4994.34 4889.57,4997.95 4886.39,5001.93C4883.22,5005.91 4879.91,5009.72 4876.46,5013.36C4873.01,5016.99 4869.74,5020.15 4866.64,5022.81C4863.55,5025.48 4858.71,5028.82 4852.12,5032.84C4845.53,5036.86 4840.36,5039.57 4836.61,5040.99C4832.86,5042.41 4829.07,5043.53 4825.26,5044.34C4821.45,5045.16 4817.85,5045.76 4814.46,5046.15C4811.07,5046.53 4804.78,5046.79 4795.61,5046.92" style="fill:none;fill-rule:nonzero;stroke:black;stroke-width:17px;"/>
        </g>
    </g>
</svg>
