<?xml version="1.0" encoding="UTF-8" standalone="no"?>
<!DOCTYPE svg PUBLIC "-//W3C//DTD SVG 1.1//EN" "http://www.w3.org/Graphics/SVG/1.1/DTD/svg11.dtd">
<svg width="100%" height="100%" viewBox="0 0 8936 8937" version="1.1" xmlns="http://www.w3.org/2000/svg" xmlns:xlink="http://www.w3.org/1999/xlink" xml:space="preserve" xmlns:serif="http://www.serif.com/" style="fill-rule:evenodd;clip-rule:evenodd;stroke-linecap:round;stroke-linejoin:round;">
    <g id="guides">
        <path id="STROKE_30db2727-b088-4eaa-bf72-49c647e6015c" d="M8701.03,314.012C8700.43,311.491 8700.26,308.849 8700.52,306.086C8700.77,303.323 8700.92,297.991 8700.96,290.088C8700.99,282.185 8700.51,270.629 8699.52,255.418C8698.52,240.209 8697.4,222.528 8696.16,202.376C8694.92,182.224 8694.15,165.671 8693.83,152.718C8693.52,139.765 8693.34,126.807 8693.3,113.844C8693.26,100.881 8693.24,94.069 8693.25,93.408" style="fill:none;fill-rule:nonzero;stroke:black;stroke-width:9.6px;"/>
        <path id="STROKE_2198f27f-5bd1-402a-ac0d-c613f59cbf04" d="M8643.99,236.312C8646.83,236.927 8653.4,237.595 8663.68,238.316C8673.96,239.036 8684.62,240.016 8695.65,241.256C8706.68,242.496 8717.08,243.507 8726.85,244.288C8736.62,245.068 8745.8,245.616 8754.36,245.932C8762.93,246.248 8769.38,246.455 8773.69,246.552C8778.01,246.651 8781.84,246.698 8785.18,246.694C8788.52,246.69 8791.53,246.688 8794.2,246.688C8796.87,246.687 8800.96,246.532 8806.45,246.224C8811.94,245.916 8816.87,245.587 8821.22,245.238C8825.57,244.89 8830.1,244.579 8834.82,244.306C8839.54,244.031 8842.13,243.873 8842.59,243.832" style="fill:none;fill-rule:nonzero;stroke:black;stroke-width:9.6px;"/>
        <path id="STROKE_8dc34f65-b877-4186-be13-cdd166fdf027" d="M93.382,8667.03C102.959,8666.17 111.094,8665.26 117.786,8664.3C124.479,8663.34 129.739,8662.65 133.564,8662.21C137.391,8661.77 141.747,8661.38 146.634,8661.05C151.521,8660.72 160.479,8660.28 173.508,8659.75C186.537,8659.22 197.174,8658.88 205.418,8658.73C213.662,8658.58 222.632,8658.34 232.328,8658.04C242.023,8657.73 256.145,8657.99 274.696,8658.83C293.247,8659.66 309.833,8660.98 324.456,8662.77" style="fill:none;fill-rule:nonzero;stroke:black;stroke-width:9.6px;"/>
        <path id="STROKE_97962b0b-498b-4909-96ba-a41608fd1bcb" d="M240.806,8595.66L240.854,8601.62C239.582,8655.44 239.078,8690.77 239.342,8707.6C239.606,8724.43 239.875,8734.9 240.15,8739C240.423,8743.11 240.996,8752.52 241.868,8767.26C242.74,8781.99 243.355,8795.93 243.714,8809.08C244.074,8822.22 244.229,8831.71 244.18,8837.54" style="fill:none;fill-rule:nonzero;stroke:black;stroke-width:9.6px;"/>
    </g>
    <g id="artwork">
        <g id="art6">
            <path id="STROKE_1f06ff04-ed8d-45d9-a88b-e10485cf64df" d="M8198.77,5452.83L8193.07,5452.74C8169.3,5453.27 8150.97,5453.97 8138.08,5454.83C8125.19,5455.7 8111.58,5456.99 8097.27,5458.7C8082.96,5460.42 8048.17,5466.74 7992.91,5477.65C7937.65,5488.57 7892.86,5498.05 7858.54,5506.09C7824.21,5514.12 7794.2,5521.39 7768.49,5527.9C7742.78,5534.4 7713.35,5542.19 7680.2,5551.26C7647.06,5560.34 7602.75,5573.33 7547.27,5590.24C7491.79,5607.15 7448.24,5620.85 7416.61,5631.33C7384.99,5641.82 7362.6,5649.43 7349.45,5654.16C7336.3,5658.88 7319.42,5665.2 7298.81,5673.11C7278.2,5681.02 7252.94,5691.13 7223.03,5703.45C7193.12,5715.77 7170.28,5725.36 7154.49,5732.23C7138.7,5739.1 7123.31,5745.94 7108.31,5752.74C7093.31,5759.53 7063.34,5773.53 7018.4,5794.74C6973.46,5815.95 6942.81,5830.58 6926.43,5838.63C6910.06,5846.69 6895.32,5854.05 6882.23,5860.73C6869.14,5867.41 6852.86,5876.04 6833.39,5886.62C6813.93,5897.2 6795.14,5907.94 6777.04,5918.84C6758.94,5929.74 6743.92,5939.12 6731.99,5946.97C6720.06,5954.82 6700.15,5968.99 6672.25,5989.48C6644.35,6009.98 6626.95,6023.1 6620.06,6028.85C6613.17,6034.6 6605.97,6040.93 6598.45,6047.84C6590.93,6054.74 6584.79,6060.64 6580.02,6065.52C6575.26,6070.4 6570.78,6075.2 6566.59,6079.92C6562.39,6084.64 6559.43,6088.11 6557.69,6090.34C6555.96,6092.56 6553.27,6096.94 6549.62,6103.46" style="fill:none;fill-rule:nonzero;stroke:black;stroke-width:17px;"/>
            <path id="STROKE_60d9253e-bc93-4d63-ba55-089a83adbb09" d="M6703.36,5987.98L6708.89,5984.87C6716.65,5982.38 6724.24,5980.12 6731.66,5978.11C6739.09,5976.11 6749.43,5973.61 6762.69,5970.62C6775.95,5967.64 6793.46,5963.76 6815.22,5958.97C6836.98,5954.19 6856.98,5949.87 6875.2,5946.01C6893.44,5942.15 6913.53,5938.06 6935.48,5933.73C6957.43,5929.4 6975.22,5926.16 6988.87,5924.01C7002.51,5921.86 7017.78,5920.15 7034.69,5918.9C7051.6,5917.64 7063.08,5917.2 7069.14,5917.57C7075.19,5917.94 7081.66,5919.2 7088.55,5921.35C7095.43,5923.51 7100.65,5926.49 7104.22,5930.31C7103.53,5932.87 7100.87,5937.56 7096.24,5944.4C7091.61,5951.23 7083.75,5959.66 7072.66,5969.68C7061.56,5979.71 7052.39,5987.61 7045.16,5993.41C7037.92,5999.2 7027.67,6007.41 7014.4,6018.05C7001.14,6028.68 6988.94,6038.73 6977.81,6048.18C6966.68,6057.63 6950.47,6071.89 6929.2,6090.97C6907.92,6110.06 6887.46,6127.99 6867.8,6144.76C6848.14,6161.54 6831.87,6174.99 6818.99,6185.09C6806.1,6195.19 6796.24,6202.74 6789.4,6207.73C6782.56,6212.72 6776.68,6216.88 6771.77,6220.2C6766.86,6223.52 6758.3,6228.8 6746.09,6236.02C6733.88,6243.26 6721.54,6249.72 6709.07,6255.41C6696.6,6261.1 6683.35,6266.09 6669.29,6270.4C6655.24,6274.7 6645.32,6277.43 6639.52,6278.58C6633.72,6279.74 6627.34,6280.79 6620.39,6281.73C6613.43,6282.66 6605.81,6283.41 6597.53,6283.96C6589.24,6284.51 6576.09,6284.43 6558.08,6283.7C6540.07,6282.98 6525.62,6281.91 6514.75,6280.5C6503.87,6279.1 6487.74,6276.54 6466.35,6272.84" style="fill:none;fill-rule:nonzero;stroke:black;stroke-width:17px;"/>
            <path id="STROKE_69ff17c7-ee86-4ba0-b5c0-f50e3ceb25e0" d="M6561.87,6095.03L6553.93,6099.92C6550.6,6102.48 6544.91,6107.27 6536.86,6114.29C6528.81,6121.32 6515.83,6135.94 6497.91,6158.16C6479.99,6180.38 6466.48,6199.36 6457.38,6215.1C6448.27,6230.85 6438.77,6248.31 6428.86,6267.48C6418.95,6286.65 6412.33,6299.24 6409.01,6305.24C6405.69,6311.24 6398.49,6321.92 6387.43,6337.29C6376.37,6352.66 6366.09,6364.77 6356.59,6373.6C6354.75,6374.76 6350.15,6377.02 6342.79,6380.37C6335.42,6383.73 6330.77,6385.84 6328.83,6386.71C6326.89,6387.57 6323.96,6388.99 6320.05,6390.96C6316.13,6392.93 6312.19,6395.17 6308.23,6397.68C6304.26,6400.19 6300.5,6402.91 6296.95,6405.83C6293.4,6408.74 6290.27,6411.66 6287.57,6414.6C6284.87,6417.53 6281.01,6422.65 6275.99,6429.98C6270.98,6437.3 6265.6,6449.39 6259.85,6466.25C6254.11,6483.1 6250.54,6498.39 6249.15,6512.1C6247.76,6525.82 6247.22,6537.47 6247.55,6547.06C6247.87,6556.65 6249.2,6568.69 6251.54,6583.19C6253.88,6597.69 6255.89,6607.89 6257.57,6613.78C6259.26,6619.68 6261.16,6625.48 6263.28,6631.17C6265.4,6636.86 6270.35,6646.94 6278.12,6661.4C6285.89,6675.86 6291.88,6686.03 6296.07,6691.9C6300.27,6697.78 6303.1,6701.56 6304.57,6703.24C6306.04,6704.92 6307.91,6706.86 6310.17,6709.05C6312.43,6711.25 6315.1,6713.58 6318.17,6716.05C6321.24,6718.52 6327.31,6722.28 6336.37,6727.33C6345.44,6732.38 6364.99,6738.54 6395.03,6745.8C6425.07,6753.06 6448.61,6757.63 6465.66,6759.51C6482.71,6761.4 6503.4,6763.46 6527.72,6765.69C6552.04,6767.93 6573.69,6769.64 6592.65,6770.82C6611.61,6772.01 6627.28,6772.58 6639.65,6772.54C6652.02,6772.49 6669.41,6770.64 6691.82,6766.99C6714.23,6763.33 6728.93,6760.13 6735.91,6757.39C6742.89,6754.64 6749.79,6751.32 6756.61,6747.4C6763.43,6743.49 6770.29,6738.84 6777.19,6733.45C6784.1,6728.07 6789.68,6723.27 6793.93,6719.07C6798.18,6714.87 6805.38,6705.83 6815.51,6691.95C6825.64,6678.07 6835.52,6661.89 6845.14,6643.42C6847.81,6636.28 6850.73,6627.01 6853.89,6615.57C6857.05,6604.14 6859.42,6591.11 6860.99,6576.47C6862.57,6561.84 6862.86,6547.21 6861.89,6532.58C6860.91,6517.95 6858.59,6503.9 6854.92,6490.44C6851.24,6476.97 6846.95,6465.89 6842.04,6457.19C6837.13,6448.49 6828.53,6439.12 6816.23,6429.09C6803.93,6419.06 6791.29,6410.71 6778.29,6404.04C6765.3,6397.37 6756.17,6392.77 6750.92,6390.23C6745.66,6387.69 6740.54,6385.27 6735.56,6382.96C6730.58,6380.66 6722.7,6376.94 6711.91,6371.81" style="fill:none;fill-rule:nonzero;stroke:black;stroke-width:17px;"/>
            <path id="STROKE_07652eb5-e19c-4660-aa44-f67e4a19b6b5" d="M6776.73,6742.89C6780.66,6739.22 6783.52,6736.66 6785.28,6735.22C6787.05,6733.78 6791.6,6730.13 6798.93,6724.29C6806.26,6718.45 6811.3,6714.15 6814.06,6711.41C6816.82,6708.67 6826.84,6699.21 6844.11,6683.03" style="fill:none;fill-rule:nonzero;stroke:black;stroke-width:17px;"/>
            <path id="STROKE_e01ad2af-2cf9-4002-91a7-9a04e172ad72" d="M6864.31,6665.67L6865.74,6649.14C6867.16,6636.48 6868.79,6623.83 6870.63,6611.19C6872.47,6598.54 6874.49,6586.18 6876.69,6574.09C6878.89,6562 6881.53,6549.15 6884.63,6535.53C6887.72,6521.91 6891.32,6507.99 6895.42,6493.74C6899.53,6479.5 6902.53,6469.5 6904.42,6463.74C6906.32,6457.98 6912.05,6442.72 6921.64,6417.96C6931.22,6393.2 6939.82,6372.72 6947.43,6356.51C6955.04,6340.3 6960.1,6329.76 6962.62,6324.89C6965.13,6320.02 6971.11,6309.35 6980.56,6292.89C6990.01,6276.43 6998.88,6261.72 7007.17,6248.76C7015.47,6235.8 7021.6,6226.42 7025.57,6220.63C7029.55,6214.84 7042.79,6197.38 7065.29,6168.27C7087.8,6139.15 7101.34,6121.99 7105.94,6116.8C7110.53,6111.6 7117.08,6104.63 7125.59,6095.89C7134.1,6087.15 7141.48,6079.92 7147.71,6074.2C7153.95,6068.48 7161.41,6062.14 7170.1,6055.18C7178.79,6048.22 7186.9,6042.13 7194.43,6036.91C7201.95,6031.68 7210.12,6026.36 7218.93,6020.94C7227.74,6015.52 7238.22,6009.61 7250.37,6003.21C7262.51,5996.82 7275.98,5990.38 7290.77,5983.9C7305.57,5977.42 7316,5973.02 7322.07,5970.68C7328.14,5968.34 7338.18,5964.83 7352.19,5960.14C7366.19,5955.44 7376.08,5952.26 7381.85,5950.58C7387.61,5948.9 7396.24,5946.57 7407.72,5943.61C7419.21,5940.65 7431.2,5937.78 7443.7,5935.02C7456.2,5932.26 7469.62,5929.59 7483.97,5927.03C7498.32,5924.48 7509.84,5922.58 7518.54,5921.36C7527.23,5920.13 7538.41,5918.84 7552.09,5917.47C7565.76,5916.1 7584.17,5915.09 7607.3,5914.45C7630.44,5913.81 7645.06,5913.59 7651.17,5913.81C7657.28,5914.03 7673.1,5915.61 7698.63,5918.57C7724.16,5921.53 7741.61,5924.06 7750.98,5926.16C7760.35,5928.26 7768.62,5930.34 7775.78,5932.38C7782.95,5934.43 7790.5,5936.88 7798.42,5939.73C7806.34,5942.58 7816.59,5947.11 7829.15,5953.32C7841.72,5959.53 7850.03,5963.86 7854.1,5966.32C7858.16,5968.78 7864.09,5972.76 7871.87,5978.24C7879.65,5983.73 7886.71,5989.07 7893.04,5994.26C7899.38,5999.46 7905.68,6005.04 7911.94,6011C7918.21,6016.97 7924.47,6023.33 7930.71,6030.09C7936.95,6036.86 7943.79,6044.93 7951.23,6054.31C7958.66,6063.69 7965.4,6072.78 7971.45,6081.58C7977.49,6090.38 7985.17,6102.75 7994.47,6118.69C8003.78,6134.63 8010.35,6146.27 8014.19,6153.6C8018.03,6160.94 8025.43,6176.1 8036.4,6199.09C8047.38,6222.07 8054.42,6237.28 8057.54,6244.71C8060.65,6252.15 8064.64,6262.91 8069.51,6277.02C8074.38,6291.13 8077.47,6300.54 8078.77,6305.26C8080.07,6309.98 8081.73,6316.84 8083.74,6325.84C8085.76,6334.83 8087.84,6347.01 8089.98,6362.38C8092.12,6377.74 8093.43,6389.14 8093.89,6396.57C8094.36,6403.99 8094.51,6416.6 8094.35,6434.39C8094.19,6452.18 8093.58,6467.61 8092.51,6480.68C8091.45,6493.76 8089.29,6510.64 8086.03,6531.34C8082.77,6552.04 8080.47,6565.58 8079.12,6571.97C8077.77,6578.36 8075.88,6586.5 8073.44,6596.38C8070.99,6606.27 8068.42,6616.17 8065.71,6626.1C8063.01,6636.03 8059.69,6649.07 8055.76,6665.21C8051.83,6681.35 8049.2,6694.03 8047.87,6703.24C8046.54,6712.45 8045.86,6718.97 8045.85,6722.79C8045.83,6726.6 8046.27,6731.82 8047.17,6738.44C8048.07,6745.07 8050.53,6754.03 8054.56,6765.35C8067.94,6779.38 8078.15,6788.51 8085.2,6792.74C8092.25,6796.97 8097.59,6799.85 8101.22,6801.37C8104.85,6802.89 8109.86,6804.78 8116.23,6807.02C8122.61,6809.27 8133.34,6811.83 8148.45,6814.7C8163.55,6817.58 8175.41,6819.39 8184.03,6820.13C8192.65,6820.88 8200.48,6821.37 8207.5,6821.61C8214.53,6821.85 8234.82,6821.38 8268.38,6820.2C8301.93,6819.02 8334.21,6817.57 8365.21,6815.84C8396.21,6814.12 8419.84,6813.11 8436.1,6812.8C8452.37,6812.5 8465,6812.38 8474,6812.45C8483,6812.52 8500.84,6813.05 8527.52,6814.07C8554.19,6815.08 8576.27,6816.26 8593.73,6817.62C8611.2,6818.98 8624.15,6820.1 8632.58,6820.99C8641.02,6821.89 8647.92,6822.69 8653.29,6823.41C8658.66,6824.14 8673.9,6826.6 8699.02,6830.8" style="fill:none;fill-rule:nonzero;stroke:black;stroke-width:17px;"/>
            <path id="STROKE_e573d6ea-4b8e-4130-8e6d-db985f9cde62" d="M7563,6144.42C7550.73,6145.58 7543.07,6146.34 7540.03,6146.69C7536.98,6147.05 7529.17,6148.28 7516.59,6150.4C7504.01,6152.51 7492.63,6154.81 7482.45,6157.29C7472.27,6159.76 7462.74,6162.4 7453.87,6165.21C7444.99,6168.02 7436.93,6170.8 7429.67,6173.56C7422.42,6176.33 7416.47,6178.71 7411.83,6180.71C7407.2,6182.72 7401.25,6185.49 7393.99,6189.03C7386.73,6192.57 7377.98,6197.27 7367.74,6203.12C7357.51,6208.98 7345.13,6216.86 7330.61,6226.79C7316.08,6236.71 7306.33,6243.67 7301.35,6247.65C7296.37,6251.63 7288.53,6258.5 7277.83,6268.28C7267.12,6278.05 7256.99,6288.33 7247.44,6299.11C7237.88,6309.9 7230.19,6319.36 7224.36,6327.48C7218.53,6335.61 7211.3,6347.36 7202.65,6362.73C7194,6378.11 7187.47,6391.22 7183.07,6402.07C7178.67,6412.93 7174.4,6425.7 7170.24,6440.38C7166.09,6455.06 7162.56,6475.35 7159.64,6501.22C7156.73,6527.1 7155.35,6543.36 7155.5,6550.01C7155.66,6556.66 7156.66,6567.78 7158.52,6583.35C7160.37,6598.92 7162.17,6610.54 7163.93,6618.19C7165.69,6625.84 7168.25,6634.75 7171.63,6644.91C7175.01,6655.07 7178.34,6663.8 7181.61,6671.11C7184.89,6678.43 7188.09,6684.88 7191.22,6690.48C7194.35,6696.08 7199.47,6703.76 7206.58,6713.53C7213.7,6723.3 7219.96,6731.02 7225.35,6736.69C7230.74,6742.36 7234.84,6746.47 7237.66,6749C7240.47,6751.53 7244.78,6755.05 7250.6,6759.56C7256.41,6764.07 7264.77,6769.63 7275.67,6776.26C7286.57,6782.88 7295.24,6787.74 7301.7,6790.85C7308.15,6793.96 7316.8,6797.58 7327.65,6801.71C7338.5,6805.84 7348.02,6809.12 7356.2,6811.55C7364.39,6813.98 7374,6816.39 7385.06,6818.79C7396.11,6821.19 7411.25,6823.61 7430.47,6826.04C7449.7,6828.47 7466.91,6829.93 7482.1,6830.41C7497.29,6830.9 7509.6,6830.94 7519.03,6830.53C7528.47,6830.12 7539.4,6829.1 7551.82,6827.48C7564.25,6825.85 7576.42,6823.69 7588.33,6820.98C7600.24,6818.27 7609.65,6815.81 7616.54,6813.61C7623.44,6811.4 7635.05,6806.64 7651.37,6799.32C7667.69,6791.99 7683.36,6783.32 7698.38,6773.29C7713.4,6763.27 7725.61,6754.03 7735.01,6745.58C7744.42,6737.13 7752.88,6728.69 7760.4,6720.25C7767.92,6711.81 7774.29,6704.11 7779.49,6697.16C7784.69,6690.2 7788.73,6684.54 7791.59,6680.17C7794.45,6675.81 7800.31,6665.22 7809.16,6648.4C7818.01,6631.59 7823.99,6619.35 7827.1,6611.69C7830.22,6604.02 7834.37,6591.49 7839.56,6574.1C7844.75,6556.71 7848.13,6544.19 7849.71,6536.54C7851.3,6528.89 7853.03,6515.17 7854.91,6495.39C7856.8,6475.61 7857.51,6459.31 7857.06,6446.47C7856.6,6433.64 7855.72,6422.38 7854.4,6412.7C7853.09,6403.03 7851.05,6392.41 7848.29,6380.85C7845.53,6369.28 7842.78,6359.45 7840.04,6351.36C7837.29,6343.27 7834.71,6336.39 7832.3,6330.73C7829.9,6325.06 7825.81,6316.96 7820.04,6306.41C7814.27,6295.87 7809.34,6287.57 7805.24,6281.5C7801.14,6275.44 7797.61,6270.49 7794.66,6266.65C7791.71,6262.8 7787.58,6257.87 7782.26,6251.84C7776.95,6245.82 7771.99,6240.4 7767.39,6235.58C7762.79,6230.77 7753.61,6222.54 7739.84,6210.9C7726.08,6199.26 7716.55,6191.71 7711.26,6188.23C7705.98,6184.76 7698.58,6180.61 7689.06,6175.77C7679.54,6170.93 7669.65,6166.78 7659.39,6163.31C7649.12,6159.85 7635.54,6156.97 7618.65,6154.68C7601.76,6152.39 7590.28,6151.35 7584.22,6151.56C7578.16,6151.77 7571.03,6152.4 7562.85,6153.46C7554.67,6154.52 7548.43,6155.51 7544.14,6156.43C7539.85,6157.35 7526.21,6161.35 7503.23,6168.42" style="fill:none;fill-rule:nonzero;stroke:black;stroke-width:17px;"/>
            <path id="STROKE_7a3c7b2a-9ec9-45d1-8412-a41a8d4a70d1" d="M7474.62,6457.94C7483.04,6462.54 7489.08,6466.05 7492.73,6468.48C7496.39,6470.92 7499.06,6472.91 7500.76,6474.46C7502.45,6476.01 7504.02,6477.84 7505.47,6479.95C7506.91,6482.06 7507.9,6484.02 7508.45,6485.83C7509,6487.65 7509.13,6489.58 7508.84,6491.62C7508.55,6493.66 7508.05,6495.22 7507.34,6496.31C7506.63,6497.39 7505.8,6498.32 7504.84,6499.08C7503.88,6499.84 7502.45,6500.25 7500.56,6500.32C7498.67,6500.38 7497.22,6500.14 7496.22,6499.61C7495.22,6499.07 7494.49,6498.58 7494.03,6498.12C7493.57,6497.67 7493.1,6496.72 7492.61,6495.29C7492.12,6493.85 7492.23,6491.51 7492.94,6488.27C7493.64,6485.03 7494.46,6482.67 7495.39,6481.19C7496.31,6479.72 7497.83,6477.95 7499.95,6475.89C7502.06,6473.84 7504.86,6471.7 7508.35,6469.47C7511.84,6467.24 7515.41,6465.35 7519.05,6463.79C7522.7,6462.24 7525.3,6461.22 7526.84,6460.74C7528.38,6460.26 7534.76,6458.41 7545.97,6455.2" style="fill:none;fill-rule:nonzero;stroke:black;stroke-width:17px;"/>
            <path id="STROKE_8d107a0f-db29-44e5-b9b6-99d50075fc61" d="M7593.34,6258.16C7591.81,6262.92 7586.71,6289.68 7578.05,6338.42C7581.91,6342.61 7585.56,6345.24 7588.99,6346.32C7592.42,6347.39 7596.28,6347.54 7600.56,6346.76C7603.4,6345.04 7606.44,6342.53 7609.67,6339.26C7612.91,6335.98 7615.72,6332.3 7618.1,6328.21C7620.49,6324.12 7622.22,6320.66 7623.31,6317.81C7624.4,6314.97 7625.35,6311.83 7626.15,6308.39C7626.96,6304.95 7627.35,6301.24 7627.33,6297.24C7627.32,6293.25 7627.05,6289.38 7626.55,6285.65C7626.04,6281.92 7624.18,6272.96 7620.97,6258.79" style="fill:none;fill-rule:nonzero;stroke:black;stroke-width:17px;"/>
            <path id="STROKE_b0ec9b7b-4326-44a0-8c80-60917d5302b5" d="M7368.71,6303.15C7374.41,6306.05 7378.64,6308.48 7381.4,6310.43C7384.16,6312.38 7385.83,6313.62 7386.39,6314.14C7386.94,6314.67 7388.44,6316.69 7390.89,6320.2C7393.33,6323.71 7395.06,6326.61 7396.07,6328.88C7397.08,6331.16 7397.78,6333.3 7398.17,6335.31C7398.56,6337.32 7398.65,6339.5 7398.43,6341.85C7398.21,6344.2 7397.92,6345.8 7397.56,6346.63C7397.2,6347.46 7396.68,6348.32 7396.01,6349.22C7395.34,6350.11 7394.44,6350.98 7393.31,6351.84C7392.18,6352.7 7390.71,6353.45 7388.9,6354.07C7387.1,6354.7 7385.11,6354.95 7382.96,6354.82C7380.8,6354.7 7377.74,6353.84 7373.77,6352.25C7369.81,6350.65 7366.75,6349.02 7364.6,6347.36C7362.44,6345.69 7360.72,6344.05 7359.43,6342.43C7358.15,6340.81 7357.18,6339.31 7356.53,6337.94C7355.89,6336.57 7353.47,6330.08 7349.27,6318.47" style="fill:none;fill-rule:nonzero;stroke:black;stroke-width:17px;"/>
            <path id="STROKE_9bbe0a15-10e6-4478-b69d-1691a828d75d" d="M7287.08,6559.7C7292.68,6559.76 7297.25,6560.01 7300.79,6560.42C7304.32,6560.84 7307.16,6561.4 7309.29,6562.12C7311.42,6562.84 7313.28,6563.7 7314.88,6564.71C7316.47,6565.73 7317.79,6566.98 7318.84,6568.48C7319.88,6569.98 7320.49,6571.4 7320.65,6572.76C7320.81,6574.11 7320.62,6575.8 7320.06,6577.84C7319.51,6579.87 7318.42,6581.93 7316.79,6584C7315.16,6586.08 7313.14,6587.89 7310.71,6589.41C7308.29,6590.94 7305.46,6592.18 7302.22,6593.12C7298.98,6594.06 7296.76,6594.58 7295.56,6594.68C7294.35,6594.77 7291.69,6594.52 7287.55,6593.92C7283.42,6593.32 7280.21,6592.5 7277.94,6591.45C7275.66,6590.4 7273.99,6589.48 7272.94,6588.7C7271.89,6587.91 7270.86,6586.93 7269.85,6585.74C7268.84,6584.56 7267.85,6583.11 7266.88,6581.4C7265.91,6579.69 7265.09,6577.81 7264.42,6575.76C7263.76,6573.7 7263.28,6572.05 7262.99,6570.78C7262.71,6569.51 7261.93,6566.92 7260.67,6562.99" style="fill:none;fill-rule:nonzero;stroke:black;stroke-width:17px;"/>
            <path id="STROKE_780c8b7d-0713-430e-ad9c-1a581cec45ad" d="M7449.15,6691.19C7458.51,6688.97 7464.53,6687.62 7467.23,6687.14C7469.92,6686.67 7474.58,6686.2 7481.22,6685.76C7487.85,6685.31 7492.98,6685.28 7496.59,6685.68C7500.2,6686.08 7503.29,6686.64 7505.83,6687.36C7508.38,6688.09 7510.6,6689 7512.5,6690.11C7514.39,6691.22 7516.19,6692.61 7517.89,6694.27C7519.59,6695.94 7520.82,6697.46 7521.57,6698.82C7522.33,6700.19 7522.85,6701.73 7523.11,6703.45C7523.37,6705.17 7523.37,6706.63 7523.11,6707.83C7522.85,6709.03 7522.39,6710.07 7521.73,6710.98C7521.06,6711.88 7519.94,6712.73 7518.35,6713.52C7516.77,6714.31 7515.14,6714.72 7513.47,6714.74C7511.81,6714.76 7510.1,6714.44 7508.36,6713.76C7506.62,6713.08 7505.01,6712.12 7503.53,6710.87C7502.05,6709.61 7500.81,6708.32 7499.8,6706.98C7498.79,6705.64 7496.84,6701.6 7493.93,6694.87C7491.03,6688.15 7487.13,6668.97 7482.23,6637.34" style="fill:none;fill-rule:nonzero;stroke:black;stroke-width:17px;"/>
            <path id="STROKE_9757fcd6-4d80-4d42-8f45-99fb6329dc1e" d="M7632.31,6541.34C7639.49,6549.53 7644.38,6554.87 7647,6557.36C7649.61,6559.86 7651.69,6561.61 7653.22,6562.61C7654.75,6563.61 7656.9,6564.85 7659.67,6566.33C7662.44,6567.8 7664.48,6568.8 7665.79,6569.33C7667.11,6569.85 7669.33,6570.49 7672.46,6571.24C7675.6,6571.99 7678.07,6572.44 7679.87,6572.59C7681.67,6572.74 7684.94,6572.23 7689.65,6571.05C7694.37,6569.87 7697.38,6568.79 7698.67,6567.79C7699.97,6566.8 7700.88,6565.96 7701.42,6565.28C7701.96,6564.6 7702.53,6563.21 7703.14,6561.13C7703.75,6559.05 7703.95,6557.16 7703.73,6555.47C7703.52,6553.78 7702.95,6551.88 7702.03,6549.78C7701.11,6547.69 7700.29,6546.13 7699.57,6545.12C7698.85,6544.1 7697.12,6542.28 7694.39,6539.64C7691.66,6537 7688.56,6534.49 7685.1,6532.08C7681.63,6529.68 7672.15,6524.28 7656.65,6515.9" style="fill:none;fill-rule:nonzero;stroke:black;stroke-width:17px;"/>
            <path id="STROKE_ef78ace5-8e34-42cf-aefb-67378ff4ee63" d="M8163.49,5498.37C8169.94,5491.13 8176.56,5483.85 8183.34,5476.52C8190.12,5469.19 8195.61,5463.38 8199.8,5459.08C8203.99,5454.78 8210.92,5448.09 8220.57,5439.01C8230.23,5429.93 8237.65,5423.15 8242.84,5418.68C8248.03,5414.21 8264.3,5401.33 8291.67,5380.05C8319.03,5358.77 8344.32,5339.39 8367.52,5321.91C8390.72,5304.42 8410.09,5289.76 8425.64,5277.91C8441.18,5266.06 8456.27,5254.54 8470.91,5243.34C8485.55,5232.15 8502.23,5219.36 8520.97,5204.98C8539.71,5190.6 8553.38,5180.17 8561.99,5173.7C8570.59,5167.22 8580,5160.15 8590.2,5152.49C8600.41,5144.82 8610.08,5137.76 8619.21,5131.3C8628.34,5124.84 8639.84,5117.09 8653.69,5108.03C8667.55,5098.98 8679.35,5091.35 8689.09,5085.15L8714.13,5070.21" style="fill:none;fill-rule:nonzero;stroke:black;stroke-width:17px;"/>
            <path id="STROKE_b4fb16ef-98ad-452c-b366-03452dad213b" d="M8213.39,5527.82C8221.37,5524.92 8230.45,5521.84 8240.62,5518.57C8255.33,5516.47 8267.29,5515.42 8276.49,5515.4C8285.7,5515.38 8296.43,5516.15 8308.7,5517.71C8320.97,5519.28 8335.64,5522.07 8352.72,5526.1C8369.8,5530.12 8396.21,5537.34 8431.95,5547.74C8467.69,5558.14 8490.02,5564.97 8498.93,5568.22C8507.84,5571.48 8514.16,5573.88 8517.9,5575.44C8521.64,5577 8533.97,5582.97 8554.89,5593.35" style="fill:none;fill-rule:nonzero;stroke:black;stroke-width:17px;"/>
            <path id="STROKE_9c73f0fd-0073-4e30-a056-36152e321be4" d="M8432.72,5575.72C8441.8,5570.61 8454.45,5563.91 8470.66,5555.6C8486.87,5547.3 8502.51,5539.8 8517.57,5533.11C8532.64,5526.42 8543.88,5521.77 8551.3,5519.16C8558.71,5516.55 8564.52,5514.72 8568.73,5513.68C8572.93,5512.64 8581.07,5511.9 8593.15,5511.45C8605.22,5511.01 8613.79,5511.53 8618.86,5513.02C8623.92,5514.5 8627.29,5515.73 8628.97,5516.69C8630.65,5517.66 8635.13,5523.12 8642.4,5533.08C8649.66,5543.04 8654.8,5554.35 8657.81,5567C8660.82,5579.65 8662.57,5590.67 8663.06,5600.06C8663.54,5609.45 8663.06,5623.47 8661.59,5642.11C8660.13,5660.76 8658.54,5674.86 8656.84,5684.44C8655.14,5694.02 8652.32,5705.26 8648.36,5718.17C8644.4,5731.07 8641.39,5739.84 8639.31,5744.46C8637.23,5749.09 8634.32,5754.49 8630.59,5760.66C8626.86,5766.84 8622.63,5772.79 8617.92,5778.51C8613.21,5784.23 8609.18,5788.61 8605.83,5791.64C8602.49,5794.68 8599.04,5797.53 8595.48,5800.17C8591.92,5802.82 8586.03,5806.33 8577.81,5810.71C8569.59,5815.09 8553.89,5819.17 8530.69,5822.94C8507.5,5826.72 8489.41,5827.82 8476.43,5826.26C8463.45,5824.7 8451.07,5822.07 8439.29,5818.38C8427.5,5814.69 8418.2,5811.07 8411.38,5807.53C8404.57,5803.98 8396.47,5798.46 8387.1,5790.95C8377.73,5783.45 8371.48,5777.83 8368.35,5774.11C8365.22,5770.39 8362.25,5766.34 8359.44,5761.94C8356.64,5757.55 8354.08,5752.59 8351.76,5747.04C8349.44,5741.5 8347.49,5734.05 8345.91,5724.68C8344.33,5715.32 8343.65,5707.84 8343.89,5702.23C8344.12,5696.63 8344.79,5691.02 8345.91,5685.4C8347.02,5679.78 8348.72,5673.82 8351.02,5667.5C8353.31,5661.18 8355.35,5656.26 8357.13,5652.74C8358.91,5649.23 8361.38,5645.09 8364.53,5640.35C8367.69,5635.6 8372.41,5629.94 8378.7,5623.38C8384.99,5616.82 8391.32,5611.09 8397.69,5606.2C8404.06,5601.31 8410.46,5596.97 8416.88,5593.17C8423.3,5589.36 8437.41,5583 8459.23,5574.07C8481.05,5565.14 8498.94,5558.84 8512.9,5555.17C8526.86,5551.51 8538.16,5548.88 8546.78,5547.28C8555.41,5545.68 8561.14,5544.73 8563.98,5544.44C8566.83,5544.15 8577.26,5543.17 8595.29,5541.5" style="fill:none;fill-rule:nonzero;stroke:black;stroke-width:17px;"/>
            <path id="STROKE_c9348e64-751d-48df-abae-6f4b97d8a1aa" d="M8415.72,5629.85C8410.64,5632.57 8400.46,5638.99 8385.2,5649.11C8369.94,5659.22 8358.6,5667.73 8351.18,5674.62C8343.76,5681.52 8338.58,5686.69 8335.65,5690.15C8332.72,5693.6 8329.12,5698.6 8324.83,5705.13C8320.54,5711.66 8316.89,5718.06 8313.86,5724.33C8310.83,5730.6 8307.98,5737.7 8305.3,5745.62C8302.62,5753.54 8300.24,5762.28 8298.17,5771.83C8296.09,5781.38 8294.76,5788.17 8294.17,5792.2C8293.58,5796.23 8292.59,5804.28 8291.21,5816.34C8289.83,5828.41 8288.76,5838.89 8288.01,5847.78C8287.25,5856.68 8286.37,5869.66 8285.39,5886.73C8284.4,5903.8 8283.45,5922.01 8282.54,5941.35C8281.63,5960.69 8280.88,5975.67 8280.28,5986.31C8279.68,5996.95 8278.81,6010.1 8277.68,6025.78C8276.55,6041.46 8275.35,6056.35 8274.07,6070.47C8272.8,6084.59 8271.39,6099.39 8269.83,6114.85C8268.27,6130.31 8267.2,6140.8 8266.61,6146.32C8266.03,6151.85 8265.01,6162.41 8263.55,6178.03C8262.09,6193.65 8260.86,6207.96 8259.89,6220.97C8258.91,6233.98 8258.03,6246.67 8257.27,6259.04C8256.51,6271.41 8255.71,6286.09 8254.88,6303.07C8254.05,6320.05 8253.15,6339.2 8252.18,6360.52C8251.22,6381.84 8249.59,6412.69 8247.3,6453.08C8245.01,6493.47 8243.64,6518.78 8243.18,6529.01C8242.73,6539.23 8242.17,6555.05 8241.52,6576.45C8240.87,6597.85 8240.48,6613.04 8240.35,6622.02C8240.22,6631.01 8240.21,6653.78 8240.31,6690.32" style="fill:none;fill-rule:nonzero;stroke:black;stroke-width:17px;"/>
            <path id="STROKE_cc9094f7-752e-4888-a5fe-44cc0149936a" d="M8234.71,6679.46C8247.7,6669.63 8256.82,6663.03 8262.07,6659.67C8267.33,6656.31 8272.25,6653.37 8276.84,6650.87C8281.42,6648.37 8287.72,6645.36 8295.72,6641.86C8303.73,6638.35 8313.84,6634.71 8326.06,6630.92C8338.28,6627.13 8350.52,6624.11 8362.8,6621.85C8375.07,6619.59 8389.1,6617.77 8404.9,6616.37C8420.7,6614.98 8436.58,6614.05 8452.51,6613.6C8468.45,6613.15 8482.08,6612.96 8493.4,6613.03C8504.71,6613.1 8519.25,6613.47 8537,6614.13C8554.75,6614.8 8574.44,6616.15 8596.06,6618.19C8617.69,6620.23 8644.5,6623.74 8676.5,6628.7L8705.69,6634.35" style="fill:none;fill-rule:nonzero;stroke:black;stroke-width:17px;"/>
            <path id="STROKE_d5ffc4fe-62e5-48af-9bf5-aae65242e7f0" d="M6492.8,4642.04C6492.7,4642.85 6491.64,4656.6 6489.59,4683.28C6487.54,4709.97 6485.87,4734.07 6484.58,4755.58C6483.29,4777.1 6482.5,4793.19 6482.22,4803.88C6481.94,4814.57 6481.84,4824.51 6481.92,4833.7C6482.01,4842.89 6482.09,4849.47 6482.17,4853.44C6482.24,4857.41 6482.3,4861.78 6482.33,4866.55C6482.36,4871.32 6482.32,4876.38 6482.2,4881.74C6482.09,4887.1 6482.04,4889.95 6482.06,4890.29C6482.07,4890.64 6481.89,4895.27 6481.5,4904.19C6481.11,4913.11 6480.44,4924.14 6479.47,4937.27C6478.5,4950.41 6477.65,4962.19 6476.91,4972.62C6476.18,4983.06 6475.65,4990.79 6475.33,4995.82C6475.02,5000.86 6474.79,5004.36 6474.65,5006.32C6474.52,5008.28 6474.41,5010.71 6474.34,5013.61C6474.27,5016.51 6474.14,5022.45 6473.96,5031.42C6473.77,5040.39 6473.67,5048 6473.65,5054.23C6473.63,5060.47 6474.08,5062.82 6474.99,5061.29" style="fill:none;fill-rule:nonzero;stroke:black;stroke-width:17px;"/>
            <path id="STROKE_43c3311f-6091-45b6-8d6d-cfec02dca1ab" d="M6486.39,4668.12C6487.6,4667.65 6488.7,4667.25 6489.69,4666.94C6490.68,4666.62 6493.26,4665.89 6497.44,4664.74C6501.61,4663.59 6506.22,4662.44 6511.26,4661.3C6516.29,4660.16 6520.43,4659.34 6523.67,4658.83C6526.91,4658.33 6529.8,4657.94 6532.34,4657.67C6534.88,4657.4 6542.19,4657.14 6554.25,4656.91C6566.31,4656.67 6573.15,4656.58 6574.75,4656.63C6576.36,4656.68 6579.41,4656.73 6583.91,4656.8C6588.41,4656.86 6592.68,4656.86 6596.71,4656.79C6600.74,4656.72 6604.56,4656.71 6608.15,4656.76C6611.75,4656.82 6616.38,4656.95 6622.03,4657.15C6627.69,4657.35 6633.19,4657.45 6638.53,4657.44C6643.88,4657.43 6649.45,4657.49 6655.25,4657.61C6661.05,4657.73 6667.21,4657.88 6673.75,4658.06C6680.29,4658.24 6686.18,4658.32 6691.41,4658.28C6696.64,4658.24 6703.78,4658.01 6712.81,4657.58C6721.85,4657.15 6730.41,4656.55 6738.49,4655.78C6746.57,4655.01 6754.23,4654.22 6761.46,4653.41C6768.69,4652.6 6773.81,4652.17 6776.8,4652.12C6779.8,4652.07 6784.03,4652.32 6789.52,4652.86C6795.01,4653.41 6798.96,4654.06 6801.37,4654.81C6803.78,4655.55 6805.89,4656.28 6807.71,4656.98C6809.52,4657.69 6810.86,4658.24 6811.71,4658.65C6812.56,4659.06 6813.44,4659.46 6814.36,4659.87C6815.29,4660.28 6816.45,4660.96 6817.86,4661.9C6818.64,4663.11 6819.88,4677.31 6821.59,4704.51C6823.3,4731.7 6823.28,4756.33 6821.54,4778.4C6819.8,4800.47 6818.62,4817.44 6817.99,4829.33C6817.36,4841.22 6816.82,4853.71 6816.37,4866.81C6815.93,4879.9 6815.25,4893.39 6814.34,4907.28C6813.43,4921.16 6812.08,4938.28 6810.3,4958.62C6808.51,4978.97 6806.95,4995.75 6805.6,5008.97C6804.25,5022.19 6802.83,5033.99 6801.34,5044.36C6799.84,5054.73 6794.69,5071.9 6785.89,5095.86C6783.28,5097.99 6780.89,5099.68 6778.71,5100.94C6776.53,5102.2 6774.2,5103.33 6771.71,5104.33C6769.23,5105.33 6766.47,5106.31 6763.44,5107.28C6760.41,5108.24 6756.86,5109.14 6752.76,5109.97C6748.67,5110.81 6737.87,5112.24 6720.34,5114.28C6702.82,5116.32 6689.33,5117.86 6679.88,5118.89C6670.43,5119.91 6656.57,5121.08 6638.29,5122.4C6620.01,5123.71 6605.26,5124.37 6594.01,5124.37C6582.77,5124.38 6573.59,5124.14 6566.47,5123.65C6559.35,5123.16 6552.37,5122.47 6545.53,5121.58C6538.69,5120.68 6534.4,5120.09 6532.65,5119.8C6530.9,5119.51 6527.89,5119.11 6523.61,5118.6C6519.34,5118.08 6513.73,5117.36 6506.8,5116.42C6499.87,5115.48 6495.86,5114.9 6494.78,5114.68C6493.69,5114.45 6492.31,5114.07 6490.62,5113.52C6488.94,5112.98 6487.24,5112.3 6485.51,5111.5C6484.3,5111.31 6481.71,5109 6477.75,5104.56C6473.8,5100.12 6470.19,5096.12 6466.93,5092.55" style="fill:none;fill-rule:nonzero;stroke:black;stroke-width:17px;"/>
            <path id="STROKE_b7729260-de4d-4e39-bf7a-3fb7fa9f3258" d="M6888.68,4664.87L6887.36,4666.41C6886.73,4667.04 6885.59,4668.27 6883.96,4670.09C6882.5,4672.03 6878.92,4689.75 6873.22,4723.24C6867.52,4756.74 6864.26,4782.1 6863.43,4799.32C6862.61,4816.54 6862.05,4831.23 6861.75,4843.41C6861.45,4855.59 6861.22,4868.9 6861.08,4883.34C6860.94,4897.79 6860.73,4909.6 6860.45,4918.76C6860.18,4927.92 6859.81,4937.24 6859.33,4946.71C6858.86,4956.18 6857.79,4970.86 6856.13,4990.74C6854.47,5010.62 6853.26,5026.43 6852.5,5038.19C6851.74,5049.94 6851.53,5058.9 6851.89,5065.07C6852.24,5071.24 6852.88,5076.32 6853.78,5080.29C6854.68,5084.27 6855.71,5087.52 6856.86,5090.05L6865.78,5095.53C6866.48,5095.87 6868.64,5096.53 6872.25,5097.51C6875.86,5098.48 6879.91,5099.09 6884.4,5099.31C6888.89,5099.53 6891.63,5099.64 6892.63,5099.64C6893.63,5099.63 6895.17,5099.55 6897.25,5099.41C6899.32,5099.26 6904.19,5098.78 6911.83,5097.97C6919.48,5097.16 6925.49,5096.48 6929.86,5095.91C6934.23,5095.34 6941.92,5094.43 6952.91,5093.2C6963.91,5091.96 6973.96,5090.67 6983.05,5089.34C6992.14,5088.01 7002.53,5086.5 7014.21,5084.83C7025.9,5083.15 7035.27,5082.11 7042.33,5081.72C7049.39,5081.33 7056.32,5081.11 7063.14,5081.08C7069.95,5081.04 7075.92,5081.11 7081.04,5081.3C7086.16,5081.49 7091.07,5081.81 7095.77,5082.25C7100.46,5082.69 7105.01,5083.3 7109.4,5084.09C7113.8,5084.88 7117.19,5085.56 7119.56,5086.12C7121.94,5086.67 7124.62,5087.24 7127.62,5087.81C7130.62,5088.38 7133.05,5088.81 7134.9,5089.09C7136.76,5089.38 7139.53,5089.89 7143.2,5090.62L7150.52,5091.11" style="fill:none;fill-rule:nonzero;stroke:black;stroke-width:17px;"/>
            <path id="STROKE_c71e71a3-e964-449a-ace4-ae9ecbca3cf6" d="M7151.92,5096.58L7153.77,5092.71C7154.39,5089.46 7155.86,5080.33 7158.18,5065.31C7160.5,5050.28 7162.22,5033.06 7163.33,5013.64C7164.44,4994.23 7165.14,4978.54 7165.42,4966.58C7165.7,4954.62 7165.87,4936.5 7165.92,4912.2C7165.96,4887.9 7165.77,4868.61 7165.34,4854.33C7164.91,4840.06 7164.39,4827.44 7163.77,4816.47C7163.15,4805.5 7162.73,4793.08 7162.53,4779.21C7162.34,4765.34 7162.17,4754.93 7162.04,4747.97C7161.91,4741.01 7161.7,4735.11 7161.43,4730.27C7161.15,4725.43 7160.81,4720.94 7160.42,4716.81C7160.02,4712.67 7159.33,4707.18 7158.33,4700.34C7157.34,4693.5 7156.69,4689.28 7156.39,4687.7C7156.1,4686.11 7155.28,4683.05 7153.95,4678.53C7152.99,4677.25 7151.39,4675.3 7149.15,4672.68" style="fill:none;fill-rule:nonzero;stroke:black;stroke-width:17px;"/>
            <path id="STROKE_6be5dd73-3142-4904-8bac-aead4befcb76" d="M7151.53,4673.16L7149.82,4671.74C7145.63,4668.4 7142.76,4666.69 7141.19,4666.61L7134.59,4664.8C7133.08,4664.38 7123.35,4663.74 7105.39,4662.88C7087.44,4662.02 7067.58,4662.01 7045.83,4662.85C7024.08,4663.68 7001.89,4664.36 6979.27,4664.88C6956.65,4665.4 6940.36,4666.03 6930.4,4666.78C6920.44,4667.53 6913.81,4668.05 6910.51,4668.35C6907.2,4668.65 6903.94,4668.94 6900.73,4669.24C6897.51,4669.53 6895.26,4669.78 6893.98,4669.96C6892.69,4670.15 6891.33,4670.4 6889.9,4670.72C6888.47,4671.04 6886.99,4671.48 6885.48,4672.05L6882.32,4672.8" style="fill:none;fill-rule:nonzero;stroke:black;stroke-width:17px;"/>
            <path id="STROKE_3fe3b66e-65ab-4621-b17d-ce33250a2f8f" d="M6458.77,5175.16C6459.84,5175.43 6461.07,5175.63 6462.45,5175.75C6477.36,5177.88 6487.21,5179.02 6492.01,5179.17C6496.81,5179.32 6501.92,5179.27 6507.33,5179.02C6512.74,5178.77 6518.55,5178.44 6524.77,5178.02C6530.98,5177.61 6538.45,5177.05 6547.17,5176.34C6555.9,5175.62 6563.84,5175.12 6570.99,5174.83C6578.14,5174.53 6585.97,5174.41 6594.48,5174.46C6603,5174.51 6611.22,5174.51 6619.13,5174.46C6627.05,5174.4 6634.37,5174.15 6641.09,5173.69C6647.81,5173.24 6655.73,5172.95 6664.86,5172.84C6673.98,5172.73 6680.99,5172.67 6685.86,5172.66C6690.74,5172.66 6696.61,5172.4 6703.48,5171.9C6710.35,5171.39 6715.84,5171.04 6719.93,5170.84C6724.03,5170.64 6727.02,5170.55 6728.89,5170.56C6730.76,5170.58 6733.37,5170.66 6736.72,5170.79C6740.06,5170.93 6744.8,5171.16 6750.93,5171.5C6757.06,5171.84 6760.56,5172.05 6761.42,5172.15C6762.28,5172.24 6764.49,5172.31 6768.05,5172.35C6769.25,5172.51 6772.83,5173.07 6778.79,5174.03" style="fill:none;fill-rule:nonzero;stroke:black;stroke-width:17px;"/>
            <path id="STROKE_6e645804-4b52-4462-846f-2f8bd2e45242" d="M6790.16,5174.29L6790.17,5175.61C6790.3,5176.47 6790.41,5177.02 6790.5,5177.25C6790.59,5177.48 6790.72,5179.51 6790.87,5183.33C6791.02,5187.15 6791.12,5192.63 6791.17,5199.77C6791.22,5206.91 6791.05,5214.56 6790.68,5222.71C6790.3,5230.86 6789.79,5240.54 6789.14,5251.74C6788.49,5262.95 6787.96,5271.78 6787.54,5278.24C6787.13,5284.7 6786.51,5296.55 6785.69,5313.79C6784.88,5331.03 6784.09,5345.8 6783.34,5358.09C6782.58,5370.38 6781.86,5382.03 6781.16,5393.05C6780.46,5404.07 6780.02,5412.86 6779.84,5419.4C6779.65,5425.95 6779.56,5432.51 6779.54,5439.08C6779.53,5445.65 6779.49,5451.58 6779.43,5456.87C6779.38,5462.17 6779.23,5469.7 6778.98,5479.47C6778.74,5489.24 6778.53,5496.77 6778.33,5502.08C6778.14,5507.38 6778.02,5510.24 6777.97,5510.66C6777.91,5511.08 6777.64,5514.76 6777.15,5521.72C6776.65,5528.68 6776.15,5534.75 6775.63,5539.95C6775.11,5545.15 6774.72,5548.96 6774.48,5551.38C6774.24,5553.8 6774.02,5557.96 6773.82,5563.86" style="fill:none;fill-rule:nonzero;stroke:black;stroke-width:17px;"/>
            <path id="STROKE_55665212-ab5c-48fd-bfd4-ae7238ca3e95" d="M6761.3,5591.74C6757.79,5590.75 6755.32,5590.18 6753.92,5590.02C6752.51,5589.87 6751.65,5589.74 6751.32,5589.64C6750.99,5589.53 6748.66,5589.43 6744.34,5589.33C6740.01,5589.22 6731.34,5589.76 6718.34,5590.93C6705.34,5592.09 6695.53,5593.09 6688.89,5593.92C6682.26,5594.75 6672.75,5595.77 6660.36,5596.96C6647.97,5598.16 6630.55,5599.4 6608.11,5600.69C6585.66,5601.98 6569.19,5602.92 6558.7,5603.52C6548.2,5604.11 6538.83,5604.7 6530.58,5605.28C6522.33,5605.86 6513.71,5606.39 6504.73,5606.88C6495.75,5607.36 6487.66,5608.04 6480.47,5608.93C6473.28,5609.82 6468.16,5610.59 6465.12,5611.23C6462.07,5611.88 6458,5612.89 6452.9,5614.25C6452.41,5614.47 6451.14,5614.97 6449.09,5615.75" style="fill:none;fill-rule:nonzero;stroke:black;stroke-width:17px;"/>
            <path id="STROKE_8a118f61-2b54-400f-bf3f-f8abad6347f9" d="M6448.36,5623.41L6447.88,5621.8C6447.26,5616.68 6446.82,5613.44 6446.57,5612.07C6446.32,5610.7 6445.87,5598.29 6445.19,5574.84C6444.52,5551.38 6444.84,5525.81 6446.16,5498.1C6447.48,5470.4 6448.35,5449.87 6448.8,5436.52C6449.24,5423.17 6449.53,5412.72 6449.66,5405.16C6449.79,5397.61 6449.82,5389.89 6449.74,5381.98C6449.66,5374.07 6449.7,5359.69 6449.84,5338.85C6449.99,5318 6451.04,5295.24 6453.01,5270.57C6454.98,5245.9 6457.07,5224.62 6459.31,5206.71" style="fill:none;fill-rule:nonzero;stroke:black;stroke-width:17px;"/>
            <path id="STROKE_ae2bc8e0-620a-47a9-9217-1a03126c7254" d="M6849.85,5159.41C6849.75,5161.11 6849.25,5171.8 6848.36,5191.47C6847.48,5211.13 6846.83,5226.33 6846.42,5237.07C6846.01,5247.81 6845.29,5262.59 6844.27,5281.4C6843.25,5300.21 6842.47,5319.75 6841.93,5340.02C6841.39,5360.29 6841.1,5378.2 6841.04,5393.74C6840.99,5409.29 6840.9,5422.38 6840.77,5433C6840.64,5443.63 6840.35,5455.01 6839.91,5467.14C6839.46,5479.27 6839.15,5487.07 6838.96,5490.53C6838.77,5493.98 6838.15,5514.2 6837.12,5551.17L6837.4,5555.75" style="fill:none;fill-rule:nonzero;stroke:black;stroke-width:17px;"/>
            <path id="STROKE_65222f5f-c8c2-4380-83fb-4a48bd5d9b1f" d="M6832.26,5572.84C6833.71,5573.38 6834.93,5573.85 6835.91,5574.23C6836.89,5574.62 6839.58,5574.79 6843.97,5574.75C6848.37,5574.7 6853.75,5574.65 6860.11,5574.58C6866.47,5574.52 6871.94,5574.32 6876.52,5573.98C6881.1,5573.64 6887.81,5573.23 6896.66,5572.75C6905.5,5572.26 6914.68,5571.91 6924.18,5571.68C6933.68,5571.45 6941.55,5571.15 6947.77,5570.77C6953.99,5570.39 6959.73,5570.06 6964.96,5569.76C6970.2,5569.47 6974.99,5569.16 6979.34,5568.85C6983.69,5568.54 6987.56,5568.14 6990.94,5567.64C6994.32,5567.14 6998.42,5566.43 7003.25,5565.52C7008.07,5564.6 7010.55,5564.12 7010.68,5564.08C7010.8,5564.04 7014.89,5563.19 7022.93,5561.55C7030.97,5559.9 7036.26,5558.88 7038.79,5558.49C7041.33,5558.09 7044.99,5557.49 7049.77,5556.67C7054.56,5555.86 7058.8,5555.12 7062.5,5554.48C7066.2,5553.83 7069.34,5553.36 7071.91,5553.08C7074.48,5552.8 7076.88,5552.6 7079.12,5552.48C7081.36,5552.35 7085.63,5552.31 7091.94,5552.37C7098.25,5552.42 7103.68,5552.44 7108.25,5552.43C7112.82,5552.42 7118.77,5552.08 7126.1,5551.41C7133.43,5550.75 7138.64,5549.89 7141.73,5548.85C7144.82,5547.81 7148.51,5545.57 7152.8,5542.13C7153.14,5541.59 7153.56,5540.91 7154.08,5540.07C7154.59,5539.23 7155.14,5538.05 7155.72,5536.52C7156.31,5534.99 7158.07,5522.88 7161.03,5500.19C7163.98,5477.5 7165.87,5459.4 7166.68,5445.9C7167.5,5432.4 7167.94,5420.45 7167.99,5410.06C7168.04,5399.67 7167.93,5391.3 7167.65,5384.93C7167.38,5378.57 7167,5370.84 7166.5,5361.74C7166.01,5352.63 7165.4,5342.8 7164.66,5332.25C7163.93,5321.7 7162.95,5310.67 7161.74,5299.16C7160.54,5287.65 7159.45,5275.1 7158.48,5261.51C7157.51,5247.93 7156.96,5237.45 7156.84,5230.09C7156.73,5222.72 7156.63,5215.78 7156.55,5209.26C7156.47,5202.74 7156.17,5196.91 7155.64,5191.78C7155.12,5186.64 7154.42,5181.91 7153.56,5177.58C7152.69,5173.26 7152.05,5170.48 7151.62,5169.27C7151.19,5168.05 7150.69,5166.71 7150.11,5165.25C7149.52,5163.79 7148.63,5162.05 7147.45,5160.01C7146.26,5157.98 7144.81,5156.31 7143.09,5155.01C7141.37,5153.72 7139.39,5152.55 7137.12,5151.51C7134.86,5150.47 7132.2,5149.44 7129.13,5148.43C7126.07,5147.41 7122.3,5146.47 7117.84,5145.58C7113.37,5144.7 7104.62,5143.81 7091.57,5142.93C7078.51,5142.04 7067.07,5141.62 7057.22,5141.66C7047.37,5141.71 7036.65,5141.93 7025.04,5142.32C7013.43,5142.72 7004.26,5143.09 6997.53,5143.43C6990.79,5143.77 6981.92,5144.57 6970.92,5145.83C6959.91,5147.09 6950.93,5148.31 6943.97,5149.5C6937.02,5150.7 6930.51,5151.85 6924.45,5152.96C6918.4,5154.07 6914.21,5154.82 6911.89,5155.2C6909.58,5155.59 6908.32,5155.82 6908.13,5155.9C6907.94,5155.97 6905.11,5156.35 6899.64,5157.04C6894.17,5157.73 6884.74,5159.25 6871.35,5161.61C6857.97,5163.97 6847.96,5165.61 6841.34,5166.51L6839.84,5167" style="fill:none;fill-rule:nonzero;stroke:black;stroke-width:17px;"/>
            <path id="STROKE_485c1671-381a-456f-9e23-b130f7134585" d="M6418.89,4555.04C6418.58,4557.24 6417.86,4566.14 6416.74,4581.73C6415.62,4597.33 6414.24,4615.54 6412.61,4636.38C6410.97,4657.22 6409.68,4674.53 6408.74,4688.32C6407.8,4702.1 6407.1,4715.26 6406.64,4727.8C6406.18,4740.34 6405.81,4751.15 6405.53,4760.23C6405.25,4769.31 6405.02,4778.25 6404.85,4787.04C6404.69,4795.82 6404.61,4802.37 6404.63,4806.67C6404.65,4810.97 6404.57,4815.97 6404.41,4821.67C6404.24,4827.37 6403.99,4834.48 6403.65,4843.01C6403.31,4851.54 6402.98,4859.09 6402.66,4865.67C6402.34,4872.25 6402.02,4877.85 6401.71,4882.47C6401.41,4887.1 6401.12,4893.07 6400.85,4900.39C6400.57,4907.7 6400.34,4914.44 6400.15,4920.6C6399.95,4926.76 6399.75,4933.56 6399.54,4941C6399.33,4948.44 6399.14,4955.46 6398.97,4962.04C6398.8,4968.63 6398.62,4976.23 6398.42,4984.83C6398.22,4993.44 6398.07,5001.77 6397.96,5009.83C6397.85,5017.9 6397.74,5026.01 6397.63,5034.18C6397.52,5042.35 6397.4,5050.57 6397.29,5058.85C6397.18,5067.13 6397.09,5074.82 6397.02,5081.92C6396.95,5089.02 6396.9,5097 6396.87,5105.88C6396.84,5114.75 6396.86,5123.83 6396.93,5133.11C6397,5142.38 6397.1,5151.22 6397.22,5159.62C6397.35,5168.02 6397.49,5174.93 6397.67,5180.34C6397.84,5185.76 6397.94,5189.32 6397.98,5191.02C6398.02,5192.72 6398.23,5197.25 6398.63,5204.6C6399.02,5211.96 6399.34,5219.19 6399.58,5226.3C6399.82,5233.42 6400.03,5239.92 6400.2,5245.8C6400.38,5251.69 6400.56,5258.15 6400.76,5265.18C6400.95,5272.21 6401.1,5278.89 6401.22,5285.22C6401.35,5291.55 6401.44,5298.92 6401.52,5307.35C6401.6,5315.78 6401.55,5324.21 6401.38,5332.63C6401.21,5341.04 6401.01,5348.57 6400.79,5355.19C6400.56,5361.82 6400.25,5368.77 6399.84,5376.02C6399.43,5383.28 6399.11,5389.69 6398.89,5395.25C6398.66,5400.82 6398.44,5406.83 6398.22,5413.3C6397.99,5419.77 6397.73,5427.62 6397.44,5436.85C6397.14,5446.08 6396.81,5454.59 6396.46,5462.38C6396.1,5470.16 6395.61,5478.82 6394.98,5488.34C6394.35,5497.86 6393.79,5506.22 6393.29,5513.42C6392.78,5520.61 6392.29,5527.31 6391.81,5533.51C6391.33,5539.7 6390.78,5546.6 6390.16,5554.19C6389.53,5561.78 6388.97,5568.39 6388.47,5574.02C6387.96,5579.66 6387.42,5585.24 6386.85,5590.76C6386.27,5596.28 6385.61,5602.61 6384.86,5609.76C6384.12,5616.9 6383.6,5621.82 6383.31,5624.49C6383.02,5627.16 6381.82,5640.92 6379.7,5665.75" style="fill:none;fill-rule:nonzero;stroke:black;stroke-width:17px;"/>
            <path id="STROKE_98f8e9c9-1c5f-4521-9dfd-a5467719c7c8" d="M6308.75,5671.28L6310.32,5671C6315.16,5670.77 6325.07,5671.02 6340.07,5671.76C6355.06,5672.49 6368.48,5673.02 6380.33,5673.34C6392.19,5673.66 6401.02,5673.71 6406.83,5673.49C6412.64,5673.27 6416.9,5673.07 6419.63,5672.88C6422.35,5672.69 6426.59,5672.44 6432.33,5672.13C6438.08,5671.83 6448.17,5671.02 6462.6,5669.71C6477.03,5668.4 6490.23,5667.27 6502.21,5666.3C6514.18,5665.34 6523.16,5664.61 6529.15,5664.13C6535.14,5663.65 6539.58,5663.2 6542.47,5662.78C6545.37,5662.36 6550.69,5661.69 6558.43,5660.79C6566.17,5659.88 6571.35,5659.3 6573.96,5659.04C6576.57,5658.78 6581.68,5658.31 6589.3,5657.63C6596.92,5656.94 6605.09,5655.9 6613.81,5654.51C6622.53,5653.11 6628.95,5652.09 6633.07,5651.44C6637.2,5650.79 6641.77,5650.27 6646.8,5649.86C6651.82,5649.45 6656.97,5649.2 6662.25,5649.1C6667.52,5649 6671.54,5648.96 6674.31,5648.97C6677.07,5648.98 6682.46,5648.89 6690.48,5648.69C6698.5,5648.49 6703.32,5648.34 6704.94,5648.24C6706.56,5648.14 6708.9,5647.92 6711.96,5647.58C6715.01,5647.24 6716.67,5647.08 6716.94,5647.11C6717.21,5647.14 6727.72,5645.11 6748.48,5641.04C6769.24,5636.96 6782.44,5634.52 6788.08,5633.7C6793.72,5632.89 6799.13,5632.09 6804.32,5631.31C6809.5,5630.53 6813.75,5629.94 6817.07,5629.54C6820.38,5629.14 6826.11,5628.46 6834.24,5627.49C6842.38,5626.52 6847.34,5625.94 6849.14,5625.74C6850.94,5625.54 6856.41,5625.14 6865.56,5624.55C6874.7,5623.96 6881.53,5623.54 6886.06,5623.29C6890.59,5623.03 6895.35,5622.64 6900.35,5622.11C6905.36,5621.58 6915.73,5620.93 6931.46,5620.15C6947.19,5619.38 6956.17,5618.83 6958.39,5618.52C6960.61,5618.21 6963.96,5617.81 6968.45,5617.3C6972.94,5616.8 6979.87,5615.76 6989.25,5614.18C6998.64,5612.59 7009.81,5610.35 7022.76,5607.45C7035.71,5604.56 7046.1,5602.41 7053.93,5601.02C7061.77,5599.63 7069.13,5598.58 7076.02,5597.89C7082.92,5597.19 7088.27,5596.68 7092.07,5596.35C7095.88,5596.02 7102.1,5595.58 7110.74,5595.04C7119.38,5594.5 7128.84,5594.3 7139.14,5594.44C7149.43,5594.58 7155.89,5594.69 7158.51,5594.77C7161.13,5594.84 7162.63,5594.87 7163.02,5594.85C7163.41,5594.83 7166.72,5594.99 7172.95,5595.33C7179.18,5595.67 7184.95,5596.08 7190.27,5596.57C7195.59,5597.07 7202.48,5597.55 7210.95,5598.01C7219.42,5598.47 7225.65,5598.69 7229.64,5598.67C7233.64,5598.64 7236.87,5598.56 7239.34,5598.41C7241.8,5598.27 7246.92,5597.69 7254.68,5596.69C7262.45,5595.68 7272.98,5593.98 7286.29,5591.59L7293.63,5589.55" style="fill:none;fill-rule:nonzero;stroke:black;stroke-width:17px;"/>
            <path id="STROKE_48c0740f-cd3d-4772-bfb7-f26e7116c50a" d="M6302.84,5693.89C6303.09,5693.61 6303.57,5692.99 6304.29,5692.01C6304.41,5693.16 6304.24,5702.54 6303.79,5720.16" style="fill:none;fill-rule:nonzero;stroke:black;stroke-width:17px;"/>
            <path id="STROKE_86357fe2-a6f0-42e1-b1d2-99bace7f97c5" d="M6302.32,5725.04C6303.15,5725.59 6304.41,5726.64 6306.12,5728.17C6307.7,5729.28 6309.01,5730.12 6310.06,5730.7C6311.1,5731.28 6312.94,5732.16 6315.58,5733.34C6318.21,5734.52 6323.04,5736.05 6330.07,5737.95C6337.1,5739.84 6344.13,5741.07 6351.15,5741.64C6358.17,5742.2 6363.96,5742.34 6368.52,5742.04C6373.07,5741.74 6378.66,5741.28 6385.3,5740.67C6391.94,5740.06 6400.14,5739.26 6409.9,5738.29C6419.65,5737.32 6429.39,5736.44 6439.12,5735.67C6448.84,5734.9 6456.92,5734.04 6463.35,5733.1C6469.78,5732.16 6476.98,5731.1 6484.95,5729.91C6492.92,5728.72 6501.92,5727.5 6511.96,5726.24C6522,5724.98 6533.36,5723.79 6546.05,5722.65C6558.74,5721.51 6568.84,5720.6 6576.37,5719.94C6583.9,5719.27 6590.41,5718.64 6595.92,5718.05C6601.43,5717.45 6607.86,5716.8 6615.22,5716.1C6622.59,5715.39 6628.85,5714.7 6634.01,5714.03C6639.18,5713.37 6645.42,5712.45 6652.74,5711.29C6660.05,5710.12 6667.68,5709.11 6675.6,5708.25C6683.53,5707.39 6690.56,5706.74 6696.7,5706.3C6702.83,5705.87 6708.1,5705.63 6712.5,5705.6C6716.9,5705.57 6724.11,5705.38 6734.12,5705.03C6744.13,5704.69 6752.83,5704.2 6760.22,5703.58C6767.61,5702.95 6774.92,5702.51 6782.13,5702.23C6789.35,5701.95 6796.92,5701.61 6804.82,5701.21C6812.73,5700.81 6818.2,5700.45 6821.24,5700.13C6824.28,5699.81 6831.12,5699.24 6841.76,5698.43C6852.4,5697.62 6860.31,5697.05 6865.51,5696.72C6870.7,5696.4 6877.03,5695.83 6884.5,5695.02C6891.97,5694.2 6898.97,5693.25 6905.5,5692.14C6912.04,5691.03 6920.91,5689.66 6932.12,5688.03C6943.32,5686.39 6952.22,5685.08 6958.79,5684.09C6965.37,5683.1 6969.98,5682.48 6972.62,5682.23C6975.26,5681.98 6982.64,5681.21 6994.76,5679.91C7006.89,5678.62 7020.53,5676.65 7035.71,5674C7050.89,5671.36 7061.55,5669.45 7067.71,5668.3C7073.86,5667.14 7081.59,5666.12 7090.89,5665.22C7100.2,5664.33 7108.78,5663.76 7116.65,5663.49C7124.52,5663.23 7130.89,5663.11 7135.76,5663.12C7140.64,5663.13 7145.27,5663.16 7149.66,5663.19C7154.04,5663.23 7157.62,5663.24 7160.41,5663.21C7163.19,5663.18 7168.15,5663.2 7175.3,5663.26C7182.45,5663.33 7188.72,5663.33 7194.1,5663.27C7199.48,5663.22 7205.25,5663.06 7211.4,5662.81C7217.55,5662.56 7222.44,5662.28 7226.07,5661.99C7229.71,5661.7 7233.38,5661.36 7237.08,5660.98C7240.79,5660.6 7244.6,5660.19 7248.5,5659.75C7252.4,5659.32 7256.08,5658.66 7259.54,5657.78C7263.01,5656.9 7266.97,5655.68 7271.43,5654.14L7280.17,5650.88C7281.97,5649.94 7283.57,5648.93 7284.98,5647.85C7286.38,5646.78 7288.41,5645.19 7291.08,5643.08C7293.45,5640.24 7295.55,5636.72 7297.38,5632.49C7299.2,5628.27 7300.38,5623.36 7300.91,5617.76C7301.44,5612.16 7301.51,5602.64 7301.12,5589.19" style="fill:none;fill-rule:nonzero;stroke:black;stroke-width:17px;"/>
            <path id="STROKE_2cf7da72-3c52-4152-ad0e-8d2838941325" d="M7266.01,4542.93L7265.24,4550.24C7264.84,4553.2 7264.28,4558.51 7263.57,4566.18C7262.87,4573.86 7262.01,4583.88 7261,4596.26C7259.99,4608.64 7259.18,4619.32 7258.56,4628.29C7257.95,4637.27 7257.49,4645.93 7257.17,4654.27C7256.85,4662.61 7256.59,4670.62 7256.38,4678.29C7256.18,4685.97 7255.94,4694.22 7255.66,4703.05C7255.38,4711.89 7255.07,4720.41 7254.73,4728.64C7254.38,4736.87 7254.01,4744.81 7253.6,4752.47C7253.18,4760.13 7252.8,4767.75 7252.45,4775.34C7252.09,4782.93 7251.77,4790.48 7251.47,4798C7251.17,4805.52 7250.88,4812.69 7250.6,4819.52C7250.32,4826.36 7249.99,4834.38 7249.6,4843.59C7249.22,4852.81 7248.59,4864.34 7247.71,4878.18C7246.83,4892.02 7246.24,4902.93 7245.92,4910.91C7245.6,4918.88 7245.36,4924.91 7245.21,4928.99C7245.06,4933.07 7244.93,4938.96 7244.84,4946.65C7244.76,4954.34 7244.68,4961.69 7244.61,4968.7C7244.55,4975.72 7244.49,4983.67 7244.42,4992.56C7244.35,5001.46 7244.28,5009.83 7244.21,5017.68C7244.14,5025.54 7244.05,5034.57 7243.93,5044.79C7243.82,5055.01 7243.68,5064.85 7243.52,5074.31C7243.36,5083.77 7243.19,5091.87 7243.04,5098.61C7242.88,5105.35 7242.69,5111.74 7242.46,5117.77C7242.24,5123.8 7241.92,5130.63 7241.5,5138.27C7241.09,5145.91 7240.59,5156.4 7239.99,5169.71C7239.4,5183.03 7239.21,5196.19 7239.41,5209.19C7239.62,5222.19 7239.89,5232.67 7240.21,5240.63C7240.54,5248.6 7240.8,5255.7 7240.99,5261.93C7241.19,5268.16 7241.37,5274.85 7241.54,5282C7241.72,5289.15 7241.86,5295.43 7241.96,5300.81C7242.07,5306.2 7242.15,5311.62 7242.21,5317.06C7242.27,5322.5 7242.4,5329.64 7242.59,5338.47C7242.77,5347.3 7242.95,5354.97 7243.11,5361.49C7243.27,5368 7243.44,5374.82 7243.64,5381.96C7243.83,5389.1 7243.96,5395.9 7244.02,5402.38C7244.08,5408.86 7244.05,5416.45 7243.94,5425.17C7243.82,5433.9 7243.4,5443.29 7242.66,5453.37C7241.93,5463.44 7241.25,5470.96 7240.64,5475.93C7240.03,5480.89 7239.21,5487.62 7238.2,5496.12C7237.19,5504.61 7236.34,5513.12 7235.64,5521.63C7234.95,5530.14 7234.38,5537.59 7233.92,5543.97C7233.47,5550.35 7233.08,5556 7232.77,5560.91C7232.45,5565.83 7232.19,5573.23 7232,5583.12L7231.93,5595.34" style="fill:none;fill-rule:nonzero;stroke:black;stroke-width:17px;"/>
            <path id="STROKE_cf456f1b-ff81-4053-acce-70d025d65905" d="M6408.85,4559.2L6412.21,4558.41C6412.59,4558.53 6416.18,4558.68 6422.96,4558.88C6429.75,4559.08 6435.9,4559.17 6441.43,4559.15C6446.96,4559.13 6452.52,4559 6458.1,4558.76C6463.69,4558.53 6472.02,4557.56 6483.11,4555.88C6494.21,4554.2 6506.73,4552.32 6520.69,4550.26C6534.65,4548.2 6545.25,4546.81 6552.49,4546.07C6559.72,4545.34 6565.86,4544.85 6570.91,4544.6C6575.96,4544.36 6580.24,4544.17 6583.75,4544.03C6587.26,4543.9 6592.23,4543.82 6598.67,4543.79C6605.11,4543.76 6609.43,4543.77 6611.63,4543.8C6613.82,4543.84 6618.45,4543.84 6625.5,4543.8C6632.56,4543.76 6640.84,4543.45 6650.34,4542.88C6659.85,4542.31 6667.22,4541.91 6672.47,4541.7C6677.72,4541.48 6688.75,4541.71 6705.57,4542.38C6722.39,4543.06 6736.27,4543.72 6747.19,4544.35C6758.12,4544.99 6768.99,4545.31 6779.81,4545.29C6790.63,4545.28 6799.31,4545.22 6805.87,4545.11C6812.42,4545 6820.7,4544.85 6830.72,4544.64C6840.74,4544.44 6848.47,4544.32 6853.91,4544.29C6859.35,4544.26 6864.07,4544.3 6868.04,4544.42C6872.02,4544.54 6878.19,4544.7 6886.54,4544.91C6894.89,4545.12 6901.32,4545.26 6905.84,4545.32C6910.36,4545.39 6913.95,4545.45 6916.61,4545.51C6919.26,4545.58 6927.02,4545.69 6939.87,4545.85C6952.73,4546.01 6963.52,4546.16 6972.26,4546.31C6981,4546.45 6987.35,4546.52 6991.3,4546.5C6995.26,4546.48 7001.93,4546.36 7011.31,4546.14C7020.69,4545.93 7029.57,4545.77 7037.94,4545.68C7046.31,4545.6 7055.75,4545.4 7066.27,4545.11C7076.79,4544.82 7089.93,4544.54 7105.67,4544.27C7121.41,4543.99 7138.12,4543.74 7155.79,4543.53C7173.46,4543.31 7186.73,4543.3 7195.58,4543.5C7204.43,4543.7 7209.04,4543.79 7209.4,4543.78C7209.76,4543.77 7213.58,4543.92 7220.87,4544.24C7228.16,4544.56 7234.75,4544.85 7240.64,4545.09C7246.54,4545.34 7250.86,4545.52 7253.6,4545.64C7256.34,4545.76 7258.6,4545.9 7260.38,4546.07C7262.15,4546.24 7263.28,4546.38 7263.75,4546.47C7264.23,4546.57 7265.34,4546.65 7267.09,4546.7C7268.84,4546.76 7270.09,4547.01 7270.84,4547.45L7276.63,4548.51" style="fill:none;fill-rule:nonzero;stroke:black;stroke-width:17px;"/>
            <path id="STROKE_251b0ddd-a09a-4c57-883f-eb54a6d4c706" d="M7938.18,5466.58L7938.61,5465.97C7938.57,5465.16 7939.13,5457.76 7940.28,5443.74C7941.43,5429.73 7942.47,5414.78 7943.42,5398.9C7944.36,5383.03 7944.97,5370.99 7945.23,5362.81C7945.5,5354.62 7945.74,5346.5 7945.97,5338.46C7946.2,5330.41 7946.64,5316.36 7947.3,5296.3C7947.95,5276.23 7948.47,5261.2 7948.84,5251.2C7949.21,5241.19 7949.51,5233.25 7949.72,5227.35C7949.93,5221.46 7950.11,5216.64 7950.27,5212.89C7950.42,5209.14 7950.7,5203.55 7951.1,5196.1C7951.51,5188.66 7951.82,5175.93 7952.06,5157.91C7952.3,5139.89 7952.4,5125.46 7952.36,5114.62C7952.33,5103.78 7952.27,5094.42 7952.18,5086.55C7952.1,5078.67 7951.93,5067.9 7951.69,5054.23C7951.44,5040.56 7951.27,5030.35 7951.16,5023.6C7951.06,5016.86 7950.93,5011.53 7950.76,5007.61C7950.6,5003.69 7950.36,4990.92 7950.03,4969.32C7949.7,4947.71 7949.57,4930.55 7949.63,4917.83C7949.7,4905.11 7949.74,4896.2 7949.77,4891.11C7949.79,4886.02 7950.07,4877.49 7950.61,4865.52C7951.15,4853.54 7951.68,4842.68 7952.2,4832.91C7952.72,4823.15 7953.03,4815.79 7953.13,4810.84C7953.23,4805.89 7953.34,4801.23 7953.45,4796.85C7953.56,4792.47 7953.68,4785.23 7953.81,4775.14C7953.94,4765.05 7954,4757.23 7954,4751.7C7954,4746.17 7953.95,4740.59 7953.86,4734.97C7953.78,4729.35 7953.7,4724.92 7953.65,4721.68C7953.59,4718.44 7953.55,4715.79 7953.52,4713.72C7953.49,4711.65 7953.19,4704.26 7952.61,4691.53L7951.97,4683.87" style="fill:none;fill-rule:nonzero;stroke:black;stroke-width:17px;"/>
            <path id="STROKE_d4e331a2-408c-4488-ac87-cfd7f9206169" d="M7953.34,4677.92C7953.89,4678.13 7956.01,4678.53 7959.72,4679.11C7963.43,4679.69 7967.76,4680.48 7972.73,4681.47C7977.7,4682.46 7982.6,4683.31 7987.45,4684.02C7992.29,4684.73 7995.82,4685.18 7998.03,4685.35C8000.24,4685.52 8005.04,4685.8 8012.45,4686.2C8019.85,4686.59 8027.52,4686.84 8035.46,4686.94C8043.4,4687.03 8052.8,4687.08 8063.65,4687.07C8074.51,4687.07 8083.28,4687.02 8089.96,4686.93C8096.64,4686.84 8104.63,4686.85 8113.94,4686.97C8123.24,4687.08 8130.67,4687.31 8136.25,4687.65C8141.82,4688 8149.24,4688.38 8158.5,4688.81C8167.77,4689.23 8179.83,4689.58 8194.69,4689.84C8209.55,4690.11 8217.98,4690.23 8219.99,4690.23C8221.99,4690.23 8224.95,4690.25 8228.86,4690.3C8232.78,4690.35 8239.41,4690.28 8248.76,4690.1C8258.11,4689.91 8265.27,4689.72 8270.24,4689.52C8275.2,4689.32 8279.69,4689.16 8283.69,4689.06C8287.7,4688.95 8292.59,4688.77 8298.37,4688.51C8304.14,4688.25 8312.89,4687.82 8324.61,4687.22C8336.34,4686.62 8347.79,4686.21 8358.98,4685.99C8370.16,4685.78 8379.33,4685.49 8386.49,4685.15C8393.65,4684.81 8401.32,4684.52 8409.5,4684.28C8417.67,4684.04 8424.02,4683.98 8428.54,4684.09C8433.06,4684.21 8438.72,4684.4 8445.52,4684.66C8452.32,4684.92 8460.61,4685.4 8470.4,4686.09C8480.19,4686.78 8490.59,4687.43 8501.58,4688.04C8512.58,4688.64 8520.72,4688.95 8526,4688.97C8531.28,4688.98 8536.36,4688.95 8541.23,4688.87C8546.11,4688.79 8553.77,4688.41 8564.23,4687.73C8574.69,4687.06 8583.31,4686.51 8590.1,4686.09C8596.9,4685.68 8601.28,4685.38 8603.26,4685.2C8605.24,4685.02 8608.1,4684.81 8611.82,4684.58C8615.55,4684.35 8619.28,4684.27 8623,4684.32C8626.72,4684.38 8629.85,4684.53 8632.42,4684.79C8634.98,4685.06 8637.72,4685.44 8640.65,4685.95C8641.24,4685.89 8644.36,4687.34 8650.02,4690.31" style="fill:none;fill-rule:nonzero;stroke:black;stroke-width:17px;"/>
            <path id="STROKE_decca1f7-093b-493d-88b6-3a7310af6701" d="M8657.09,4704.11C8657.21,4705.83 8657.39,4720.98 8657.63,4749.56C8657.87,4778.15 8657.88,4797.13 8657.66,4806.53C8657.44,4815.92 8656.96,4825.06 8656.22,4833.95C8655.48,4842.85 8654.26,4855.07 8652.54,4870.62C8650.83,4886.17 8649.59,4898.01 8648.83,4906.13C8648.07,4914.26 8647.51,4921.03 8647.14,4926.46C8646.78,4931.89 8646.41,4937 8646.05,4941.78C8645.69,4946.56 8645.26,4951.87 8644.76,4957.71C8644.26,4963.55 8643.71,4970.09 8643.13,4977.34C8642.56,4984.6 8642.05,4991.01 8641.63,4996.58C8641.2,5002.15 8640.83,5007.74 8640.52,5013.34C8640.2,5018.94 8640,5022.98 8639.92,5025.46C8639.84,5027.95 8639.66,5032.05 8639.39,5037.77C8639.12,5043.48 8638.94,5050.57 8638.84,5059.04C8638.74,5067.5 8638.77,5074.95 8638.92,5081.4C8639.07,5087.86 8639.15,5091.76 8639.14,5093.13C8639.14,5094.5 8639.11,5095.74 8639.06,5096.85C8639.01,5097.96 8638.76,5101.25 8638.32,5106.72" style="fill:none;fill-rule:nonzero;stroke:black;stroke-width:17px;"/>
            <path id="STROKE_8a8c6a8f-f354-40f9-9e2e-862868d90177" d="M7951.25,4731.44C7954.2,4730.72 7957.99,4730.07 7962.64,4729.48C7967.29,4728.9 7972.36,4728.41 7977.84,4728.02C7983.32,4727.64 7991.57,4727.36 8002.58,4727.21C8013.6,4727.05 8023.73,4726.97 8032.97,4726.98C8042.22,4726.98 8051.72,4727.11 8061.47,4727.37C8071.22,4727.63 8082.72,4727.81 8095.98,4727.92C8109.24,4728.03 8118.86,4727.95 8124.84,4727.67C8130.83,4727.4 8137.89,4727.04 8146.04,4726.6C8154.18,4726.16 8163.55,4725.78 8174.16,4725.46C8184.76,4725.14 8194.02,4725.17 8201.92,4725.56C8209.83,4725.94 8218.94,4726.71 8229.27,4727.87C8239.6,4729.03 8247.48,4729.84 8252.9,4730.31C8258.32,4730.78 8262.09,4731.14 8264.22,4731.39C8266.34,4731.65 8270.66,4731.93 8277.17,4732.24C8283.69,4732.55 8289.49,4732.76 8294.57,4732.86C8299.65,4732.96 8305.32,4732.97 8311.6,4732.9C8317.88,4732.82 8324.28,4732.73 8330.81,4732.62C8337.34,4732.52 8342.6,4732.43 8346.57,4732.37C8350.55,4732.31 8359.6,4731.9 8373.71,4731.15C8387.83,4730.4 8398.66,4729.84 8406.23,4729.46C8413.79,4729.09 8419.8,4728.84 8424.27,4728.7C8428.75,4728.57 8431.19,4728.48 8431.61,4728.43C8432.02,4728.38 8434.54,4728.25 8439.15,4728.04C8443.76,4727.84 8452.74,4727.56 8466.07,4727.21C8479.4,4726.85 8489.98,4726.59 8497.82,4726.4C8505.66,4726.22 8512.24,4726.14 8517.57,4726.15C8522.89,4726.15 8526.68,4726.17 8528.94,4726.21C8531.19,4726.24 8534.18,4726.32 8537.9,4726.45C8541.61,4726.58 8543.57,4726.65 8543.76,4726.67C8543.95,4726.69 8548.08,4726.75 8556.14,4726.87C8564.2,4726.99 8570.3,4727.07 8574.44,4727.13C8578.58,4727.19 8584.1,4727.32 8591.01,4727.53C8597.92,4727.74 8603.43,4727.99 8607.54,4728.28C8611.65,4728.57 8616.23,4728.88 8621.27,4729.19L8626.2,4729.87" style="fill:none;fill-rule:nonzero;stroke:black;stroke-width:17px;"/>
            <path id="STROKE_36b1348d-c3d1-4686-9557-d85b58b5b454" d="M8628.22,4756.98C8628.1,4757.17 8627.09,4755.7 8625.18,4752.57C8624.88,4752.6 8624.45,4753.86 8623.89,4756.34C8623.33,4758.83 8622.92,4762.26 8622.65,4766.63C8622.39,4771 8622.18,4776.11 8622.05,4781.95C8621.91,4787.79 8622.12,4797.85 8622.68,4812.14C8623.24,4826.44 8623.8,4841.5 8624.37,4857.35C8624.94,4873.19 8625.08,4887.91 8624.77,4901.52C8624.47,4915.13 8624.05,4924.97 8623.51,4931.04C8622.97,4937.11 8622.22,4944.99 8621.28,4954.68C8620.33,4964.36 8618.9,4979.19 8616.99,4999.15C8615.07,5019.1 8613.41,5035.66 8612,5048.81C8610.59,5061.95 8609.67,5070.63 8609.24,5074.84C8608.82,5079.06 8608.31,5084.52 8607.73,5091.22C8607.14,5097.93 8606.65,5103.16 8606.26,5106.92C8605.86,5110.69 8605.55,5114.62 8605.32,5118.73C8605.09,5122.84 8604.95,5125.86 8604.9,5127.79C8604.85,5129.71 8604.8,5132 8604.75,5134.67C8604.69,5137.33 8604.66,5139.28 8604.64,5140.52C8604.62,5141.75 8604.63,5143.64 8604.68,5146.19C8604.82,5146.64 8605.11,5148.79 8605.55,5152.66" style="fill:none;fill-rule:nonzero;stroke:black;stroke-width:17px;"/>
            <path id="STROKE_96be2ea9-5eb9-49b1-8eed-2e1755d5209b" d="M7858.63,4619.1C7859.03,4620.97 7859.32,4623.95 7859.49,4628.05C7859.66,4632.15 7859.91,4641.07 7860.25,4654.81C7860.58,4668.54 7860.87,4682.08 7861.11,4695.42C7861.35,4708.76 7861.49,4733.74 7861.51,4770.36C7861.53,4806.98 7861.34,4835.14 7860.92,4854.83C7860.5,4874.52 7860.2,4888.46 7860,4896.66C7859.8,4904.86 7859.67,4914.94 7859.59,4926.91C7859.52,4938.89 7859.51,4951.24 7859.56,4963.96C7859.6,4976.69 7859.69,4991.63 7859.81,5008.79C7859.94,5025.94 7860.24,5047.38 7860.74,5073.08C7861.23,5098.79 7861.43,5122.89 7861.35,5145.39C7861.27,5167.89 7861.07,5186.28 7860.75,5200.57C7860.43,5214.86 7860.16,5226.53 7859.94,5235.59C7859.72,5244.65 7859.44,5254.18 7859.09,5264.18C7858.74,5274.19 7858.49,5281.67 7858.33,5286.62C7858.18,5291.58 7857.83,5303.39 7857.27,5322.04C7856.72,5340.69 7855.85,5358.73 7854.68,5376.17C7853.5,5393.62 7852.37,5410.22 7851.28,5425.97C7850.18,5441.73 7849.37,5452.95 7848.84,5459.62C7848.31,5466.3 7847.84,5471.91 7847.43,5476.44C7847.01,5480.98 7846.64,5484.33 7846.3,5486.51C7845.97,5488.68 7845.74,5490.19 7845.64,5491.02C7845.53,5491.85 7845.38,5492.62 7845.17,5493.32C7844.96,5494.03 7844.64,5495.45 7844.19,5497.58" style="fill:none;fill-rule:nonzero;stroke:black;stroke-width:17px;"/>
            <path id="STROKE_2b9155b9-5558-4cd8-aab5-6ea7af844544" d="M7868.02,4586.9L7870.94,4585.94C7872.07,4585.59 7877.36,4585.6 7886.83,4585.97C7896.3,4586.35 7905.76,4586.84 7915.21,4587.44C7924.67,4588.04 7931.93,4588.4 7936.99,4588.51C7942.05,4588.62 7945.63,4588.7 7947.72,4588.74C7949.81,4588.79 7956.51,4588.82 7967.82,4588.83C7979.13,4588.84 7990.47,4588.48 8001.85,4587.75C8013.22,4587.01 8021.71,4586.34 8027.31,4585.72C8032.91,4585.11 8039.53,4584.52 8047.16,4583.97C8054.79,4583.42 8059.74,4583.1 8062,4583.01C8064.26,4582.92 8071,4582.69 8082.23,4582.3C8093.45,4581.91 8109.44,4581.34 8130.18,4580.59C8150.92,4579.85 8166.18,4579.34 8175.96,4579.08C8185.75,4578.83 8193.5,4578.59 8199.21,4578.38C8204.93,4578.16 8210.44,4577.99 8215.76,4577.88C8221.07,4577.76 8229.62,4577.81 8241.41,4578.02C8253.19,4578.23 8263.51,4578.49 8272.37,4578.8C8281.23,4579.1 8288.18,4579.34 8293.25,4579.51C8298.31,4579.67 8303.65,4579.96 8309.26,4580.37C8314.86,4580.78 8324.34,4581.25 8337.7,4581.77C8351.06,4582.29 8367.21,4583.1 8386.15,4584.21C8405.1,4585.32 8420.38,4586.36 8431.99,4587.32C8443.6,4588.29 8452.87,4589.16 8459.79,4589.92C8466.71,4590.68 8476.37,4591.34 8488.77,4591.92C8501.17,4592.5 8514.2,4592.66 8527.86,4592.41C8541.52,4592.15 8551.98,4591.77 8559.24,4591.25C8566.5,4590.73 8573.32,4590.23 8579.69,4589.73C8586.06,4589.24 8594.02,4588.68 8603.57,4588.06C8613.12,4587.44 8619.78,4587.06 8623.56,4586.91C8627.33,4586.76 8636.74,4586.77 8651.78,4586.93C8666.82,4587.09 8674.75,4587.19 8675.59,4587.22C8676.43,4587.25 8679.13,4587.51 8683.71,4587.99C8688.29,4588.48 8692.76,4589.05 8697.12,4589.71C8701.48,4590.37 8705.59,4591.2 8709.43,4592.2" style="fill:none;fill-rule:nonzero;stroke:black;stroke-width:17px;"/>
            <path id="STROKE_82722d5e-eef4-497e-82be-5e77bea87597" d="M7834.81,4595.88C7834.52,4597.24 7833.68,4605.5 7832.31,4620.65C7830.94,4635.8 7830.01,4649.95 7829.5,4663.1C7828.99,4676.25 7828.62,4687.24 7828.41,4696.08C7828.19,4704.92 7828.04,4712.89 7827.95,4719.99C7827.85,4727.08 7827.78,4735.18 7827.74,4744.27C7827.7,4753.37 7827.66,4766.11 7827.63,4782.51C7827.6,4798.9 7827.61,4811.67 7827.63,4820.81C7827.66,4829.96 7827.65,4846.74 7827.58,4871.16C7827.51,4895.59 7827.21,4916.69 7826.68,4934.47C7826.16,4952.26 7825.75,4965.82 7825.47,4975.14C7825.19,4984.47 7825.01,4994.56 7824.94,5005.41C7824.88,5016.27 7824.77,5035.66 7824.62,5063.58C7824.47,5091.5 7824.38,5112.88 7824.35,5127.71C7824.32,5142.54 7824.39,5153.36 7824.56,5160.19C7824.73,5167.01 7825.45,5181.35 7826.73,5203.22C7828,5225.09 7828.8,5239.75 7829.14,5247.19C7829.47,5254.63 7829.55,5269.04 7829.37,5290.4C7829.18,5311.77 7828.88,5327.85 7828.44,5338.62C7828.01,5349.4 7827.6,5357.84 7827.21,5363.94C7826.83,5370.04 7826.47,5375.88 7826.14,5381.44C7825.82,5387.01 7825.4,5394.13 7824.9,5402.8C7824.4,5411.47 7823.88,5419.4 7823.34,5426.58C7822.8,5433.76 7822.43,5439.11 7822.24,5442.65C7822.05,5446.18 7821.43,5454.38 7820.38,5467.25C7819.33,5480.12 7818.02,5493.1 7816.44,5506.17L7815.03,5510.46" style="fill:none;fill-rule:nonzero;stroke:black;stroke-width:17px;"/>
            <path id="STROKE_e2608d6a-bc1b-4cd9-99ae-23a20559e42a" d="M8017.3,4831.87C8017.37,4832.32 8017.05,4848.24 8016.35,4879.62C8015.64,4911.01 8015.24,4935.11 8015.15,4951.91C8015.07,4968.72 8015.09,4980.62 8015.22,4987.64C8015.35,4994.65 8015.48,4999.84 8015.62,5003.19C8015.76,5006.55 8016.06,5016.52 8016.52,5033.13C8016.98,5049.73 8017.63,5063.81 8018.45,5075.37C8019.28,5086.93 8020.14,5097.04 8021.04,5105.7C8021.95,5114.36 8022.73,5130.48 8023.39,5154.07C8024.05,5177.66 8024.16,5199.94 8023.71,5220.91C8023.27,5241.87 8022.76,5256.9 8022.17,5265.98C8021.58,5275.07 8020.85,5283.94 8019.98,5292.61C8019.11,5301.27 8018.44,5307.62 8017.97,5311.65C8017.49,5315.69 8016.99,5320.82 8016.46,5327.07C8015.93,5333.31 8015.52,5340.02 8015.23,5347.2C8014.94,5354.39 8014.71,5360.4 8014.55,5365.26C8014.4,5370.11 8014.09,5378.59 8013.62,5390.69C8013.16,5402.8 8012.1,5415.64 8010.44,5429.21C8010.32,5429.69 8010.18,5430.8 8010.01,5432.54" style="fill:none;fill-rule:nonzero;stroke:black;stroke-width:17px;"/>
            <path id="STROKE_28199110-2b8b-475d-8a9d-d9bdbd993724" d="M8030.87,4832.79L8032.01,4832.5L8035.59,4832.17C8038.98,4831.73 8045.5,4831.34 8055.15,4831C8064.81,4830.65 8074.43,4830.59 8084.02,4830.81C8093.61,4831.03 8103.01,4831.03 8112.21,4830.82C8121.41,4830.6 8134.42,4830 8151.23,4829.03C8168.05,4828.05 8183.56,4826.82 8197.76,4825.34C8211.96,4823.85 8223.24,4822.51 8231.59,4821.31C8239.94,4820.11 8247.84,4819.19 8255.29,4818.54C8262.74,4817.9 8270.09,4817.22 8277.34,4816.51C8284.59,4815.79 8290.48,4815.18 8295.01,4814.65C8299.55,4814.13 8306.29,4813.82 8315.23,4813.72C8324.17,4813.62 8335.21,4813.64 8348.33,4813.8C8361.46,4813.96 8371.57,4814.18 8378.66,4814.46C8385.75,4814.74 8392.67,4815.28 8399.43,4816.08C8406.18,4816.87 8411.25,4817.52 8414.64,4818.03C8418.03,4818.54 8421.12,4818.94 8423.92,4819.23C8426.72,4819.52 8428.81,4819.71 8430.2,4819.79C8431.59,4819.86 8433.82,4820.14 8436.89,4820.6C8439.97,4821.06 8444.63,4821.63 8450.89,4822.31C8457.14,4822.98 8463.37,4823.45 8469.56,4823.72C8475.76,4823.98 8480.63,4824.13 8484.18,4824.16C8487.73,4824.19 8491.41,4824.27 8495.24,4824.38C8499.07,4824.49 8501.86,4824.58 8503.61,4824.63C8505.36,4824.67 8507.42,4824.77 8509.81,4824.9C8512.19,4825.04 8517.41,4825.14 8525.45,4825.2C8533.5,4825.26 8540.92,4825.19 8547.73,4825" style="fill:none;fill-rule:nonzero;stroke:black;stroke-width:17px;"/>
            <path id="STROKE_470076e7-099e-4d30-baae-0d6eb64dc7ee" d="M8547.51,4827.98L8547.54,4829.34C8547.62,4832.53 8546.97,4844.83 8545.57,4866.24C8544.17,4887.65 8542.79,4904.24 8541.43,4916C8540.06,4927.76 8538.62,4942.54 8537.12,4960.34C8535.61,4978.14 8534.6,4991.69 8534.08,5001C8533.56,5010.31 8532.76,5025.45 8531.71,5046.43C8530.65,5067.4 8529.81,5083.45 8529.19,5094.59C8528.57,5105.73 8528.02,5114.29 8527.52,5120.28C8527.03,5126.26 8526.51,5133.61 8525.98,5142.31C8525.44,5151.01 8525,5160.12 8524.66,5169.64C8524.32,5179.16 8524.07,5185.84 8523.91,5189.68" style="fill:none;fill-rule:nonzero;stroke:black;stroke-width:17px;"/>
            <path id="STROKE_89521cb7-d1ff-47b9-b792-b1f66593ea51" d="M8574.37,4828.68L8574.07,4832.86C8574.08,4834.77 8573.41,4844.27 8572.06,4861.37C8570.71,4878.47 8569.49,4891.91 8568.41,4901.69C8567.32,4911.48 8565.96,4924.31 8564.34,4940.2C8562.71,4956.08 8561.4,4968.3 8560.4,4976.86C8559.4,4985.42 8558.53,4994.88 8557.79,5005.23C8557.05,5015.59 8556.43,5026.19 8555.95,5037.05C8555.47,5047.91 8554.95,5056.97 8554.41,5064.24C8553.87,5071.51 8553.44,5076.6 8553.13,5079.52C8552.83,5082.44 8552.2,5090.07 8551.26,5102.4C8550.32,5114.72 8549.6,5125.95 8549.09,5136.09C8548.58,5146.22 8548.14,5154.13 8547.77,5159.81C8547.4,5165.5 8546.89,5170.56 8546.23,5174.99L8544.55,5182.8" style="fill:none;fill-rule:nonzero;stroke:black;stroke-width:17px;"/>
            <path id="STROKE_9f316a5e-da4a-47b5-9119-bc3fea60c6fa" d="M8008.13,5449.8C8008.74,5449.69 8009.84,5449.53 8011.43,5449.29C8013.03,5449.06 8014.34,5448.89 8015.37,5448.8C8016.4,5448.7 8019.28,5448.54 8024.02,5448.32C8028.76,5448.1 8033.45,5447.94 8038.1,5447.83C8042.75,5447.73 8047.49,5447.6 8052.32,5447.44C8057.16,5447.28 8061.79,5447.03 8066.23,5446.67C8070.66,5446.31 8077.51,5445.43 8086.76,5444.02C8096.01,5442.6 8103.02,5441.48 8107.77,5440.63C8112.53,5439.79 8117.01,5439.05 8121.22,5438.39C8125.42,5437.74 8128.85,5437.23 8131.5,5436.86C8134.16,5436.5 8136.96,5436.11 8139.91,5435.72C8142.86,5435.32 8146.82,5434.82 8151.79,5434.19C8156.76,5433.57 8160.77,5433.13 8163.84,5432.88C8166.9,5432.63 8170.83,5432.4 8175.62,5432.2C8180.41,5431.99 8185.2,5431.86 8189.99,5431.79C8194.78,5431.72 8199.11,5431.73 8202.98,5431.82C8206.85,5431.9 8212.29,5431.98 8219.29,5432.06C8221.06,5432.2 8223.3,5432.22 8225.99,5432.11" style="fill:none;fill-rule:nonzero;stroke:black;stroke-width:17px;"/>
            <path id="STROKE_5579b974-02c9-4f93-8641-1acf1a441c65" d="M7925.27,6865.24C7925.87,6866.28 7928.2,6867.49 7932.25,6868.85C7932.86,6870.08 7934.81,6876.96 7938.11,6889.49C7941.41,6902.01 7943.34,6912.62 7943.91,6921.31C7944.48,6930.01 7945.49,6939.94 7946.95,6951.12" style="fill:none;fill-rule:nonzero;stroke:black;stroke-width:17px;"/>
            <path id="STROKE_f3e14f8e-859f-49bc-b249-94b1949ff3b5" d="M7930.94,6827.99C7932.55,6827.58 7938.34,6822.47 7948.32,6812.64C7948.7,6812.4 7966.56,6807.4 8001.92,6797.64L8003.12,6797.59L8005.11,6796.75L8007.61,6795.09C8009.32,6794.86 8022.54,6796.51 8047.29,6800.02L8056.5,6803.62" style="fill:none;fill-rule:nonzero;stroke:black;stroke-width:17px;"/>
        </g>
    </g>
</svg>
