<?xml version="1.0" encoding="UTF-8" standalone="no"?>
<!DOCTYPE svg PUBLIC "-//W3C//DTD SVG 1.1//EN" "http://www.w3.org/Graphics/SVG/1.1/DTD/svg11.dtd">
<svg width="100%" height="100%" viewBox="0 0 8936 8937" version="1.1" xmlns="http://www.w3.org/2000/svg" xmlns:xlink="http://www.w3.org/1999/xlink" xml:space="preserve" xmlns:serif="http://www.serif.com/" style="fill-rule:evenodd;clip-rule:evenodd;stroke-linecap:round;stroke-linejoin:round;">
    <g id="guides">
        <path id="STROKE_30db2727-b088-4eaa-bf72-49c647e6015c" d="M8701.03,314.012C8700.43,311.491 8700.26,308.849 8700.52,306.086C8700.77,303.323 8700.92,297.991 8700.96,290.088C8700.99,282.185 8700.51,270.629 8699.52,255.418C8698.52,240.209 8697.4,222.528 8696.16,202.376C8694.92,182.224 8694.15,165.671 8693.83,152.718C8693.52,139.765 8693.34,126.807 8693.3,113.844C8693.26,100.881 8693.24,94.069 8693.25,93.408" style="fill:none;fill-rule:nonzero;stroke:black;stroke-width:9.6px;"/>
        <path id="STROKE_2198f27f-5bd1-402a-ac0d-c613f59cbf04" d="M8643.99,236.312C8646.83,236.927 8653.4,237.595 8663.68,238.316C8673.96,239.036 8684.62,240.016 8695.65,241.256C8706.68,242.496 8717.08,243.507 8726.85,244.288C8736.62,245.068 8745.8,245.616 8754.36,245.932C8762.93,246.248 8769.38,246.455 8773.69,246.552C8778.01,246.651 8781.84,246.698 8785.18,246.694C8788.52,246.69 8791.53,246.688 8794.2,246.688C8796.87,246.687 8800.96,246.532 8806.45,246.224C8811.94,245.916 8816.87,245.587 8821.22,245.238C8825.57,244.89 8830.1,244.579 8834.82,244.306C8839.54,244.031 8842.13,243.873 8842.59,243.832" style="fill:none;fill-rule:nonzero;stroke:black;stroke-width:9.6px;"/>
        <path id="STROKE_8dc34f65-b877-4186-be13-cdd166fdf027" d="M93.382,8667.03C102.959,8666.17 111.094,8665.26 117.786,8664.3C124.479,8663.34 129.739,8662.65 133.564,8662.21C137.391,8661.77 141.747,8661.38 146.634,8661.05C151.521,8660.72 160.479,8660.28 173.508,8659.75C186.537,8659.22 197.174,8658.88 205.418,8658.73C213.662,8658.58 222.632,8658.34 232.328,8658.04C242.023,8657.73 256.145,8657.99 274.696,8658.83C293.247,8659.66 309.833,8660.98 324.456,8662.77" style="fill:none;fill-rule:nonzero;stroke:black;stroke-width:9.6px;"/>
        <path id="STROKE_97962b0b-498b-4909-96ba-a41608fd1bcb" d="M240.806,8595.66L240.854,8601.62C239.582,8655.44 239.078,8690.77 239.342,8707.6C239.606,8724.43 239.875,8734.9 240.15,8739C240.423,8743.11 240.996,8752.52 241.868,8767.26C242.74,8781.99 243.355,8795.93 243.714,8809.08C244.074,8822.22 244.229,8831.71 244.18,8837.54" style="fill:none;fill-rule:nonzero;stroke:black;stroke-width:9.6px;"/>
    </g>
    <g id="hints">
        <g id="hint-5" serif:id="hint 5">
            <path id="STROKE_610e1578-6b06-436c-a412-143c28bd09ba" d="M3906.13,6863.93L3880.5,6846.7C3843.03,6820.81 3815.73,6801.65 3798.62,6789.2C3781.5,6776.75 3764.06,6763.55 3746.28,6749.61C3728.51,6735.66 3709.37,6719.8 3688.87,6702.03C3668.36,6684.26 3650.93,6667.95 3636.57,6653.1C3622.21,6638.25 3611.22,6626.23 3603.6,6617.02C3595.99,6607.82 3588.02,6597.34 3579.7,6585.6C3571.39,6573.86 3559.35,6553.52 3543.57,6524.58C3527.8,6495.65 3517.6,6475.61 3512.98,6464.45C3508.35,6453.29 3502.08,6435.61 3494.16,6411.43C3486.24,6387.24 3480.17,6366.41 3475.95,6348.93C3471.73,6331.46 3468.13,6314.32 3465.15,6297.53C3462.16,6280.73 3459.79,6264.74 3458.03,6249.55C3456.26,6234.36 3454.91,6208.57 3453.98,6172.19C3453.04,6135.8 3453.21,6107.91 3454.49,6088.51C3455.78,6069.11 3457.35,6051.63 3459.21,6036.07C3461.07,6020.51 3463.89,6001.48 3467.68,5978.97C3471.47,5956.47 3474.12,5941.57 3475.65,5934.29C3477.18,5927.01 3479.97,5915.18 3484.03,5898.82C3488.08,5882.45 3494.33,5860.03 3502.78,5831.56C3511.22,5803.09 3518.42,5780.32 3524.39,5763.26C3530.35,5746.2 3535.36,5732.55 3539.42,5722.33C3543.47,5712.11 3551.85,5693.15 3564.54,5665.43C3577.23,5637.71 3586.19,5618.99 3591.42,5609.29C3596.64,5599.58 3608.01,5580.97 3625.53,5553.46C3643.05,5525.95 3654.89,5508.05 3661.07,5499.76C3667.24,5491.46 3678.68,5477.68 3695.39,5458.4C3712.09,5439.13 3724.85,5425.07 3733.66,5416.23C3742.47,5407.39 3757.66,5393.54 3779.22,5374.68C3800.77,5355.83 3818.76,5340.93 3833.16,5329.99C3847.57,5319.06 3860.4,5309.72 3871.66,5301.98C3882.92,5294.23 3898.89,5284.02 3919.56,5271.32C3940.23,5258.62 3961.44,5246.46 3983.19,5234.82C4004.94,5223.18 4026,5212.6 4046.37,5203.09C4066.73,5193.58 4085.51,5185.31 4102.69,5178.28C4119.87,5171.24 4138.69,5164.09 4159.16,5156.81C4179.62,5149.53 4197.01,5143.68 4211.33,5139.28C4225.65,5134.87 4238.39,5131.19 4249.55,5128.22C4260.72,5125.26 4276.86,5121.52 4297.96,5117.01C4319.06,5112.49 4335.93,5109.16 4348.55,5107.01C4361.16,5104.85 4375.85,5102.69 4392.6,5100.5C4409.35,5098.32 4428.35,5096.4 4449.61,5094.74C4470.87,5093.07 4494.24,5092.03 4519.72,5091.6C4545.2,5091.18 4567.66,5091.4 4587.08,5092.26C4606.51,5093.13 4622.65,5094.19 4635.49,5095.43C4648.33,5096.68 4669.26,5099.84 4698.28,5104.91C4727.31,5109.98 4752.86,5115.79 4774.92,5122.35C4796.99,5128.9 4813.3,5134.2 4823.83,5138.26C4834.37,5142.32 4851.05,5149.75 4873.88,5160.55C4896.7,5171.35 4922.18,5185.29 4950.31,5202.37C4978.44,5219.45 5001.62,5234.84 5019.85,5248.56C5038.08,5262.27 5053.59,5274.73 5066.39,5285.95C5079.18,5297.17 5095.3,5313.25 5114.75,5334.19C5134.2,5355.13 5147.24,5370 5153.88,5378.8C5160.52,5387.59 5168.13,5398.65 5176.72,5411.98C5185.31,5425.31 5192.11,5436.59 5197.12,5445.82C5202.12,5455.05 5207.96,5467.11 5214.63,5482.01C5221.3,5496.91 5227.26,5511.69 5232.5,5526.35C5237.75,5541.01 5242.35,5555.13 5246.3,5568.71C5250.24,5582.28 5255.05,5601.3 5260.7,5625.74C5266.36,5650.19 5271.8,5678.28 5277.03,5710.01C5282.25,5741.73 5286,5767.89 5288.27,5788.47C5290.55,5809.05 5292.51,5831.78 5294.15,5856.68C5295.8,5881.57 5296.8,5907.94 5297.16,5935.78C5297.52,5963.62 5297.24,5987.37 5296.33,6007.03C5295.42,6026.68 5294.09,6045.51 5292.32,6063.52C5290.55,6081.52 5288,6100.44 5284.68,6120.26C5281.36,6140.09 5276.86,6161.43 5271.17,6184.28C5265.48,6207.14 5258.05,6231.91 5248.88,6258.58C5239.72,6285.26 5227.57,6315 5212.44,6347.8C5197.31,6380.61 5187.29,6401.46 5182.38,6410.35C5177.47,6419.24 5166.97,6436.36 5150.87,6461.71C5134.78,6487.06 5123.12,6504.69 5115.9,6514.6C5108.68,6524.51 5100.53,6535.24 5091.44,6546.79C5082.35,6558.34 5065.46,6577.68 5040.79,6604.8C5016.12,6631.93 4992.74,6655.74 4970.67,6676.25C4948.59,6696.76 4928.04,6714.63 4909.04,6729.87C4890.03,6745.1 4866.73,6761.76 4839.15,6779.84C4811.57,6797.92 4789.16,6811.49 4771.9,6820.55C4754.65,6829.61 4735.75,6838.48 4715.2,6847.15C4694.65,6855.82 4668.65,6864.97 4637.22,6874.6C4605.78,6884.23 4580.74,6891.01 4562.08,6894.95C4543.43,6898.89 4517.85,6903.09 4485.35,6907.54C4452.86,6912 4428.27,6914.95 4411.6,6916.39C4394.93,6917.83 4371.49,6919.13 4341.29,6920.3C4311.09,6921.47 4287.27,6921.99 4269.81,6921.86C4252.35,6921.74 4232.33,6921.02 4209.75,6919.68C4187.16,6918.36 4166.4,6916.61 4147.45,6914.45C4128.51,6912.3 4109.22,6909.69 4089.6,6906.63C4069.98,6903.57 4054.83,6901.01 4044.14,6898.95C4033.46,6896.89 4021.26,6894.47 4007.55,6891.7C3993.85,6888.94 3982.79,6886.58 3974.4,6884.64C3966.01,6882.7 3958.9,6880.95 3953.08,6879.4C3947.26,6877.86 3925.72,6871.31 3888.46,6859.76" style="fill:none;fill-rule:nonzero;stroke:black;stroke-width:17px;"/>
            <path id="STROKE_7e94f43b-82f9-4e6c-95dd-e9bf4556dfbe" d="M3857.41,5703.44C3865.84,5681.19 3872.66,5664.1 3877.88,5652.17C3883.1,5640.24 3888.01,5629.5 3892.6,5619.94C3897.2,5610.39 3902.08,5600.88 3907.26,5591.44C3912.43,5581.99 3920.09,5569.69 3930.24,5554.53C3940.38,5539.38 3950.71,5525.61 3961.22,5513.24C3971.72,5500.86 3978.47,5493.19 3981.46,5490.2C3984.46,5487.22 3998.26,5476.2 4022.89,5457.16C4047.52,5438.12 4067.27,5424.69 4082.15,5416.87C4097.02,5409.05 4115.53,5401.38 4137.68,5393.87C4159.82,5386.37 4179.78,5381.14 4197.55,5378.21C4215.33,5375.27 4229.24,5373.56 4239.28,5373.07C4249.32,5372.58 4271.52,5374.35 4305.89,5378.4C4340.27,5382.44 4365.18,5387.16 4380.63,5392.56C4396.08,5397.95 4409.6,5403.61 4421.2,5409.53C4432.79,5415.45 4441.55,5420.31 4447.46,5424.13C4453.37,5427.94 4461.49,5434.02 4471.82,5442.36C4482.15,5450.7 4489.75,5457.31 4494.62,5462.2C4499.48,5467.08 4506.65,5475.38 4516.12,5487.08C4525.59,5498.79 4534.1,5510.84 4541.66,5523.25C4549.22,5535.66 4556.87,5550.76 4564.62,5568.54C4572.36,5586.32 4578.47,5602.86 4582.93,5618.15C4587.4,5633.44 4590.46,5645.26 4592.11,5653.59C4593.77,5661.92 4595.36,5672.63 4596.88,5685.71C4598.4,5698.78 4599.25,5709.96 4599.42,5719.24C4599.59,5728.53 4599.08,5740.31 4597.9,5754.61C4596.71,5768.9 4593.67,5785.74 4588.76,5805.13C4583.86,5824.51 4578.33,5841.19 4572.18,5855.18C4566.03,5869.18 4556.54,5885.68 4543.69,5904.69C4530.85,5923.71 4521.84,5936.12 4516.66,5941.94C4511.48,5947.75 4504.66,5954.66 4496.19,5962.68C4487.73,5970.69 4479.76,5977.64 4472.29,5983.52C4464.83,5989.4 4452.65,5997.44 4435.76,6007.62C4418.87,6017.8 4406.68,6024.59 4399.19,6027.98C4391.71,6031.38 4380.59,6035.67 4365.83,6040.84C4351.08,6046.02 4330.27,6051.02 4303.39,6055.87C4276.52,6060.71 4259.37,6063.33 4251.95,6063.72C4244.52,6064.12 4230.66,6063.93 4210.34,6063.14C4190.03,6062.36 4171.3,6060.44 4154.15,6057.4C4137,6054.35 4121.9,6050.75 4108.87,6046.6C4095.84,6042.44 4083.88,6037.78 4072.98,6032.62C4062.09,6027.47 4050.62,6021.06 4038.57,6013.4C4026.53,6005.74 4012.14,5994.19 3995.43,5978.74C3978.71,5963.29 3967.19,5951.63 3960.88,5943.77C3954.56,5935.91 3939.99,5912.76 3917.17,5874.33L3905.4,5848.01C3897.05,5822.44 3892.13,5805.89 3890.65,5798.36C3889.17,5790.84 3885.44,5762.83 3879.47,5714.35" style="fill:none;fill-rule:nonzero;stroke:black;stroke-width:17px;"/>
            <path id="STROKE_bc760eaf-9431-407c-b401-8742399969f9" d="M4182.83,5638.99C4189.73,5639.01 4201.4,5639.45 4217.84,5640.3C4234.27,5641.14 4246.04,5642.19 4253.15,5643.45C4260.26,5644.7 4268.53,5646.74 4277.96,5649.58C4287.39,5652.41 4295.52,5655.67 4302.36,5659.36C4309.2,5663.04 4315.43,5667.07 4321.06,5671.45C4326.69,5675.82 4331.48,5680.34 4335.43,5685C4339.38,5689.66 4343.1,5695.28 4346.61,5701.86C4350.12,5708.45 4352.84,5716.83 4354.78,5727.01C4356.71,5737.19 4357.26,5745.99 4356.4,5753.39C4355.55,5760.79 4353.82,5767.88 4351.22,5774.64C4348.61,5781.41 4345.8,5787.03 4342.78,5791.49C4339.76,5795.96 4335.63,5800.88 4330.4,5806.25C4325.17,5811.62 4318.28,5816.78 4309.74,5821.74C4301.2,5826.69 4292.76,5830.27 4284.42,5832.45C4276.08,5834.63 4267.13,5835.68 4257.56,5835.6C4248,5835.51 4239.52,5834.46 4232.13,5832.44C4224.74,5830.43 4216.68,5826.85 4207.94,5821.71C4199.21,5816.57 4193.47,5812.73 4190.71,5810.2C4187.96,5807.67 4184.98,5804.35 4181.75,5800.23C4178.53,5796.12 4175.12,5790.36 4171.51,5782.97C4167.91,5775.57 4165.44,5769.72 4164.12,5765.41C4162.8,5761.11 4161.73,5756.59 4160.93,5751.86C4160.12,5747.12 4159.9,5737.94 4160.26,5724.31C4160.63,5710.67 4164.72,5686.57 4172.52,5652" style="fill:none;fill-rule:nonzero;stroke:black;stroke-width:17px;"/>
        </g>
    </g>
</svg>
