<?xml version="1.0" encoding="UTF-8" standalone="no"?>
<!DOCTYPE svg PUBLIC "-//W3C//DTD SVG 1.1//EN" "http://www.w3.org/Graphics/SVG/1.1/DTD/svg11.dtd">
<svg width="100%" height="100%" viewBox="0 0 8936 8937" version="1.1" xmlns="http://www.w3.org/2000/svg" xmlns:xlink="http://www.w3.org/1999/xlink" xml:space="preserve" xmlns:serif="http://www.serif.com/" style="fill-rule:evenodd;clip-rule:evenodd;stroke-linecap:round;stroke-linejoin:round;">
    <g id="guides">
        <path id="STROKE_30db2727-b088-4eaa-bf72-49c647e6015c" d="M8701.03,314.012C8700.43,311.491 8700.26,308.849 8700.52,306.086C8700.77,303.323 8700.92,297.991 8700.96,290.088C8700.99,282.185 8700.51,270.629 8699.52,255.418C8698.52,240.209 8697.4,222.528 8696.16,202.376C8694.92,182.224 8694.15,165.671 8693.83,152.718C8693.52,139.765 8693.34,126.807 8693.3,113.844C8693.26,100.881 8693.24,94.069 8693.25,93.408" style="fill:none;fill-rule:nonzero;stroke:black;stroke-width:9.6px;"/>
        <path id="STROKE_2198f27f-5bd1-402a-ac0d-c613f59cbf04" d="M8643.99,236.312C8646.83,236.927 8653.4,237.595 8663.68,238.316C8673.96,239.036 8684.62,240.016 8695.65,241.256C8706.68,242.496 8717.08,243.507 8726.85,244.288C8736.62,245.068 8745.8,245.616 8754.36,245.932C8762.93,246.248 8769.38,246.455 8773.69,246.552C8778.01,246.651 8781.84,246.698 8785.18,246.694C8788.52,246.69 8791.53,246.688 8794.2,246.688C8796.87,246.687 8800.96,246.532 8806.45,246.224C8811.94,245.916 8816.87,245.587 8821.22,245.238C8825.57,244.89 8830.1,244.579 8834.82,244.306C8839.54,244.031 8842.13,243.873 8842.59,243.832" style="fill:none;fill-rule:nonzero;stroke:black;stroke-width:9.6px;"/>
        <path id="STROKE_8dc34f65-b877-4186-be13-cdd166fdf027" d="M93.382,8667.03C102.959,8666.17 111.094,8665.26 117.786,8664.3C124.479,8663.34 129.739,8662.65 133.564,8662.21C137.391,8661.77 141.747,8661.38 146.634,8661.05C151.521,8660.72 160.479,8660.28 173.508,8659.75C186.537,8659.22 197.174,8658.88 205.418,8658.73C213.662,8658.58 222.632,8658.34 232.328,8658.04C242.023,8657.73 256.145,8657.99 274.696,8658.83C293.247,8659.66 309.833,8660.98 324.456,8662.77" style="fill:none;fill-rule:nonzero;stroke:black;stroke-width:9.6px;"/>
        <path id="STROKE_97962b0b-498b-4909-96ba-a41608fd1bcb" d="M240.806,8595.66L240.854,8601.62C239.582,8655.44 239.078,8690.77 239.342,8707.6C239.606,8724.43 239.875,8734.9 240.15,8739C240.423,8743.11 240.996,8752.52 241.868,8767.26C242.74,8781.99 243.355,8795.93 243.714,8809.08C244.074,8822.22 244.229,8831.71 244.18,8837.54" style="fill:none;fill-rule:nonzero;stroke:black;stroke-width:9.6px;"/>
    </g>
    <g id="hints">
        <g id="hint-2" serif:id="hint 2">
            <path id="STROKE_1400ef9e-6005-4e0f-a49c-6543ed82756f" d="M3593.07,2247.46C3615.03,2420.12 3635.97,2585.88 3655.88,2744.76C3675.79,2903.64 3689.9,3016.11 3698.21,3082.19C3706.52,3148.27 3718.55,3244.62 3734.29,3371.24C3750.05,3497.86 3759.92,3577.22 3763.92,3609.32C3767.92,3641.41 3773.8,3688.81 3781.56,3751.51C3789.33,3814.21 3801.01,3909.11 3816.62,4036.21C3832.24,4163.31 3849.18,4300.51 3867.47,4447.79" style="fill:none;fill-rule:nonzero;stroke:black;stroke-width:17px;"/>
            <path id="STROKE_210488a4-6779-4862-a990-3c2402eb896f" d="M3823.2,2242.65C3833.57,2329.55 3849.32,2463.03 3870.45,2643.07C3891.57,2823.12 3907.82,2961.58 3919.19,3058.44C3930.56,3155.31 3942.36,3255.31 3954.58,3358.43C3966.81,3461.55 3983.47,3603.06 4004.56,3782.96C4025.65,3962.87 4041.95,4102.15 4053.48,4200.8C4065.01,4299.45 4075.72,4390.44 4085.62,4473.76" style="fill:none;fill-rule:nonzero;stroke:black;stroke-width:17px;"/>
            <path id="STROKE_686d6402-4d37-4285-bbbc-66374c3183d3" d="M3609.96,2242.65C3648.12,2241.87 3673.59,2241.25 3686.37,2240.79C3699.15,2240.33 3716.94,2239.71 3739.75,2238.94L3777.85,2237.84" style="fill:none;fill-rule:nonzero;stroke:black;stroke-width:17px;"/>
            <path id="STROKE_127f4b95-4d8c-4919-a9b3-4b5203bafcda" d="M3630.18,1959.48L3623.79,1961.1C3618.37,1963.38 3612.38,1966.56 3605.82,1970.63C3599.26,1974.7 3592.85,1979.52 3586.57,1985.08C3580.3,1990.63 3576.11,1994.58 3574.01,1996.9C3571.91,1999.22 3567.82,2004.89 3561.75,2013.93C3555.68,2022.97 3549.49,2037.65 3543.18,2057.98C3536.87,2078.3 3533.71,2094.67 3533.71,2107.08C3533.71,2119.49 3534.63,2129.87 3536.46,2138.22C3538.3,2146.57 3540.35,2153.42 3542.62,2158.77C3544.89,2164.12 3548.18,2170.16 3552.49,2176.88C3556.8,2183.59 3559.96,2188.09 3561.98,2190.38C3563.99,2192.66 3568.35,2196.62 3575.05,2202.26C3581.75,2207.9 3587.03,2211.9 3590.88,2214.25C3594.72,2216.61 3599.78,2219.26 3606.03,2222.22C3612.28,2225.18 3620.97,2228.36 3632.11,2231.74C3643.24,2235.13 3654.94,2237.7 3667.21,2239.45C3679.48,2241.19 3687.46,2242.14 3691.15,2242.28C3694.83,2242.42 3701.57,2242.22 3711.37,2241.67C3721.17,2241.13 3728.64,2240.45 3733.78,2239.63C3738.93,2238.81 3744.54,2237.6 3750.61,2235.99C3756.69,2234.38 3763.99,2231.83 3772.5,2228.35C3781.02,2224.87 3787.95,2221.57 3793.3,2218.44C3798.64,2215.32 3803.55,2212.08 3808.02,2208.73C3812.49,2205.39 3817.49,2200.99 3823.04,2195.53C3828.58,2190.08 3833.84,2183.97 3838.81,2177.22C3843.79,2170.46 3847.85,2164.07 3851,2158.06C3854.15,2152.05 3856.18,2147.99 3857.08,2145.86C3857.98,2143.73 3860.16,2135.3 3863.62,2120.56C3867.08,2105.82 3868.39,2090.57 3867.55,2074.82C3866.71,2059.07 3864.65,2046.34 3861.36,2036.64C3858.07,2026.93 3854.96,2019.51 3852.03,2014.35C3849.09,2009.2 3845.06,2003.55 3839.92,1997.4C3834.78,1991.26 3830.45,1986.65 3826.93,1983.57C3823.41,1980.49 3819.62,1977.53 3815.57,1974.7C3811.52,1971.87 3807.38,1969.27 3803.16,1966.91C3798.94,1964.55 3793.32,1961.92 3786.31,1959.02C3779.29,1956.13 3768.86,1953.23 3755.02,1950.33C3741.17,1947.43 3730.72,1945.76 3723.68,1945.31C3716.63,1944.86 3708.25,1944.86 3698.54,1945.28C3688.84,1945.71 3682.24,1946.16 3678.74,1946.63C3675.24,1947.09 3669.99,1948.01 3662.99,1949.37C3655.99,1950.74 3646.22,1952.84 3633.69,1955.66" style="fill:none;fill-rule:nonzero;stroke:black;stroke-width:17px;"/>
        </g>
    </g>
</svg>
