<?xml version="1.0" encoding="UTF-8" standalone="no"?>
<!DOCTYPE svg PUBLIC "-//W3C//DTD SVG 1.1//EN" "http://www.w3.org/Graphics/SVG/1.1/DTD/svg11.dtd">
<svg width="100%" height="100%" viewBox="0 0 8936 8937" version="1.1" xmlns="http://www.w3.org/2000/svg" xmlns:xlink="http://www.w3.org/1999/xlink" xml:space="preserve" xmlns:serif="http://www.serif.com/" style="fill-rule:evenodd;clip-rule:evenodd;stroke-linecap:round;stroke-linejoin:round;">
    <g id="guides">
        <path id="STROKE_30db2727-b088-4eaa-bf72-49c647e6015c" d="M8701.03,314.012C8700.43,311.491 8700.26,308.849 8700.52,306.086C8700.77,303.323 8700.92,297.991 8700.96,290.088C8700.99,282.185 8700.51,270.629 8699.52,255.418C8698.52,240.209 8697.4,222.528 8696.16,202.376C8694.92,182.224 8694.15,165.671 8693.83,152.718C8693.52,139.765 8693.34,126.807 8693.3,113.844C8693.26,100.881 8693.24,94.069 8693.25,93.408" style="fill:none;fill-rule:nonzero;stroke:black;stroke-width:9.6px;"/>
        <path id="STROKE_2198f27f-5bd1-402a-ac0d-c613f59cbf04" d="M8643.99,236.312C8646.83,236.927 8653.4,237.595 8663.68,238.316C8673.96,239.036 8684.62,240.016 8695.65,241.256C8706.68,242.496 8717.08,243.507 8726.85,244.288C8736.62,245.068 8745.8,245.616 8754.36,245.932C8762.93,246.248 8769.38,246.455 8773.69,246.552C8778.01,246.651 8781.84,246.698 8785.18,246.694C8788.52,246.69 8791.53,246.688 8794.2,246.688C8796.87,246.687 8800.96,246.532 8806.45,246.224C8811.94,245.916 8816.87,245.587 8821.22,245.238C8825.57,244.89 8830.1,244.579 8834.82,244.306C8839.54,244.031 8842.13,243.873 8842.59,243.832" style="fill:none;fill-rule:nonzero;stroke:black;stroke-width:9.6px;"/>
        <path id="STROKE_8dc34f65-b877-4186-be13-cdd166fdf027" d="M93.382,8667.03C102.959,8666.17 111.094,8665.26 117.786,8664.3C124.479,8663.34 129.739,8662.65 133.564,8662.21C137.391,8661.77 141.747,8661.38 146.634,8661.05C151.521,8660.72 160.479,8660.28 173.508,8659.75C186.537,8659.22 197.174,8658.88 205.418,8658.73C213.662,8658.58 222.632,8658.34 232.328,8658.04C242.023,8657.73 256.145,8657.99 274.696,8658.83C293.247,8659.66 309.833,8660.98 324.456,8662.77" style="fill:none;fill-rule:nonzero;stroke:black;stroke-width:9.6px;"/>
        <path id="STROKE_97962b0b-498b-4909-96ba-a41608fd1bcb" d="M240.806,8595.66L240.854,8601.62C239.582,8655.44 239.078,8690.77 239.342,8707.6C239.606,8724.43 239.875,8734.9 240.15,8739C240.423,8743.11 240.996,8752.52 241.868,8767.26C242.74,8781.99 243.355,8795.93 243.714,8809.08C244.074,8822.22 244.229,8831.71 244.18,8837.54" style="fill:none;fill-rule:nonzero;stroke:black;stroke-width:9.6px;"/>
    </g>
    <g id="hints">
        <g id="hint-6" serif:id="hint 6">
            <path id="STROKE_c4dbc6cf-3c52-46c4-be22-56dc633dd5cc" d="M7327.56,6003.15C7339.42,5999.32 7350.15,5996.01 7359.73,5993.22C7369.32,5990.44 7378.25,5988 7386.53,5985.9C7394.82,5983.8 7403.37,5981.76 7412.2,5979.78C7421.02,5977.81 7435.57,5975.3 7455.84,5972.26C7476.1,5969.23 7504.5,5967.63 7541.03,5967.47C7577.56,5967.31 7607.32,5969.16 7630.3,5973.03C7653.29,5976.9 7669.05,5980.04 7677.59,5982.45C7686.13,5984.86 7695.57,5987.9 7705.9,5991.57C7716.23,5995.24 7734.5,6003.7 7760.69,6016.96C7786.89,6030.22 7808.78,6043.38 7826.35,6056.44C7843.91,6069.5 7855.35,6078.44 7860.64,6083.26C7865.93,6088.08 7872.34,6094.39 7879.88,6102.19C7887.43,6109.99 7898.71,6123.78 7913.73,6143.55C7928.75,6163.33 7939.84,6179.31 7946.99,6191.48C7954.15,6203.65 7960.44,6215.13 7965.88,6225.91C7971.32,6236.7 7978.37,6253.35 7987.03,6275.87C7995.69,6298.4 8001.55,6314.87 8004.59,6325.31C8007.64,6335.74 8011.07,6350.46 8014.88,6369.45C8018.7,6388.44 8021.45,6408.9 8023.13,6430.83C8024.81,6452.76 8025.36,6471.21 8024.77,6486.19C8024.18,6501.17 8023.22,6513.69 8021.89,6523.76C8020.56,6533.82 8019.22,6542.24 8017.88,6549C8016.53,6555.76 8011.7,6571.95 8003.39,6597.57C7995.08,6623.2 7987.01,6643.9 7979.18,6659.69C7971.35,6675.48 7960.56,6693.72 7946.8,6714.42C7933.04,6735.12 7917.61,6755.12 7900.49,6774.44C7883.37,6793.75 7866.35,6810.85 7849.44,6825.73C7832.53,6840.61 7818.62,6852.09 7807.72,6860.16C7796.81,6868.23 7783.61,6877.16 7768.11,6886.96C7752.61,6896.76 7738.18,6905.2 7724.8,6912.3C7711.43,6919.39 7694.43,6927.41 7673.79,6936.35C7653.15,6945.29 7630.56,6953.75 7606.01,6961.72C7581.46,6969.7 7559.99,6975.8 7541.61,6980.02C7523.23,6984.24 7503.99,6987.84 7483.9,6990.82C7463.81,6993.8 7445.9,6995.91 7430.19,6997.15C7414.48,6998.39 7398.54,6999.08 7382.38,6999.22C7366.21,6999.36 7350.51,6998.9 7335.27,6997.83C7320.03,6996.77 7303.44,6994.73 7285.51,6991.73C7267.57,6988.72 7250.22,6984.95 7233.44,6980.42C7216.67,6975.88 7196.68,6968.56 7173.47,6958.45C7150.27,6948.34 7129.56,6937.06 7111.34,6924.63C7093.12,6912.2 7080.39,6902.66 7073.14,6896.03C7065.89,6889.4 7058.64,6881.95 7051.37,6873.69C7044.11,6865.44 7036.93,6856.28 7029.85,6846.23C7022.77,6836.17 7014.76,6822.19 7005.8,6804.27C6996.85,6786.36 6990.29,6771.18 6986.12,6758.73C6981.96,6746.28 6978.19,6732.63 6974.83,6717.79C6971.47,6702.94 6968.76,6685.97 6966.68,6666.87C6964.61,6647.77 6963.7,6626.24 6963.96,6602.28C6964.22,6578.32 6965.61,6556.36 6968.14,6536.4C6970.67,6516.45 6975.11,6493.14 6981.46,6466.49C6987.81,6439.85 6994.25,6417.08 7000.79,6398.19C7007.33,6379.3 7013.74,6362.61 7020.03,6348.11C7026.31,6333.61 7036.78,6313.28 7051.43,6287.13C7066.08,6260.98 7079.34,6239.68 7091.21,6223.24C7103.08,6206.79 7114.8,6191.8 7126.36,6178.25C7137.92,6164.71 7150.66,6150.85 7164.56,6136.68C7178.47,6122.51 7190.44,6110.9 7200.49,6101.83C7210.53,6092.77 7219.63,6084.93 7227.78,6078.31C7235.93,6071.69 7246.81,6063.45 7260.42,6053.61C7274.03,6043.77 7283.52,6037.1 7288.88,6033.6C7294.25,6030.11 7301.39,6025.69 7310.29,6020.33C7319.19,6014.98 7346,6000.49 7390.73,5976.87" style="fill:none;fill-rule:nonzero;stroke:black;stroke-width:17px;"/>
            <path id="STROKE_d390b216-1f7a-441d-9253-d073ea8c04e4" d="M5932.17,7007.07C6079.92,7004.97 6190.07,7003.32 6262.6,7002.15C6335.14,7000.98 6393.25,7000.04 6436.94,6999.33C6480.63,6998.63 6542.56,6997.56 6622.72,6996.13C6702.88,6994.7 6792.11,6993.01 6890.42,6991.05C6988.73,6989.1 7077.44,6987.21 7156.55,6985.39C7235.65,6983.57 7294.76,6982.16 7333.87,6981.17C7372.97,6980.19 7437.12,6978.47 7526.32,6976.03C7615.51,6973.58 7690.19,6971.46 7750.34,6969.66C7810.5,6967.86 7938.01,6963.75 8132.88,6957.33C8327.75,6950.91 8447.95,6946.9 8493.48,6945.29C8539.01,6943.68 8607.06,6941.33 8697.61,6938.24" style="fill:none;fill-rule:nonzero;stroke:black;stroke-width:17px;"/>
        </g>
    </g>
</svg>
