<?xml version="1.0" encoding="UTF-8" standalone="no"?>
<!DOCTYPE svg PUBLIC "-//W3C//DTD SVG 1.1//EN" "http://www.w3.org/Graphics/SVG/1.1/DTD/svg11.dtd">
<svg width="100%" height="100%" viewBox="0 0 8936 8937" version="1.1" xmlns="http://www.w3.org/2000/svg" xmlns:xlink="http://www.w3.org/1999/xlink" xml:space="preserve" xmlns:serif="http://www.serif.com/" style="fill-rule:evenodd;clip-rule:evenodd;stroke-linecap:round;stroke-linejoin:round;">
    <g id="guides">
        <path id="STROKE_30db2727-b088-4eaa-bf72-49c647e6015c" d="M8701.03,314.012C8700.43,311.491 8700.26,308.849 8700.52,306.086C8700.77,303.323 8700.92,297.991 8700.96,290.088C8700.99,282.185 8700.51,270.629 8699.52,255.418C8698.52,240.209 8697.4,222.528 8696.16,202.376C8694.92,182.224 8694.15,165.671 8693.83,152.718C8693.52,139.765 8693.34,126.807 8693.3,113.844C8693.26,100.881 8693.24,94.069 8693.25,93.408" style="fill:none;fill-rule:nonzero;stroke:black;stroke-width:9.6px;"/>
        <path id="STROKE_2198f27f-5bd1-402a-ac0d-c613f59cbf04" d="M8643.99,236.312C8646.83,236.927 8653.4,237.595 8663.68,238.316C8673.96,239.036 8684.62,240.016 8695.65,241.256C8706.68,242.496 8717.08,243.507 8726.85,244.288C8736.62,245.068 8745.8,245.616 8754.36,245.932C8762.93,246.248 8769.38,246.455 8773.69,246.552C8778.01,246.651 8781.84,246.698 8785.18,246.694C8788.52,246.69 8791.53,246.688 8794.2,246.688C8796.87,246.687 8800.96,246.532 8806.45,246.224C8811.94,245.916 8816.87,245.587 8821.22,245.238C8825.57,244.89 8830.1,244.579 8834.82,244.306C8839.54,244.031 8842.13,243.873 8842.59,243.832" style="fill:none;fill-rule:nonzero;stroke:black;stroke-width:9.6px;"/>
        <path id="STROKE_8dc34f65-b877-4186-be13-cdd166fdf027" d="M93.382,8667.03C102.959,8666.17 111.094,8665.26 117.786,8664.3C124.479,8663.34 129.739,8662.65 133.564,8662.21C137.391,8661.77 141.747,8661.38 146.634,8661.05C151.521,8660.72 160.479,8660.28 173.508,8659.75C186.537,8659.22 197.174,8658.88 205.418,8658.73C213.662,8658.58 222.632,8658.34 232.328,8658.04C242.023,8657.73 256.145,8657.99 274.696,8658.83C293.247,8659.66 309.833,8660.98 324.456,8662.77" style="fill:none;fill-rule:nonzero;stroke:black;stroke-width:9.6px;"/>
        <path id="STROKE_97962b0b-498b-4909-96ba-a41608fd1bcb" d="M240.806,8595.66L240.854,8601.62C239.582,8655.44 239.078,8690.77 239.342,8707.6C239.606,8724.43 239.875,8734.9 240.15,8739C240.423,8743.11 240.996,8752.52 241.868,8767.26C242.74,8781.99 243.355,8795.93 243.714,8809.08C244.074,8822.22 244.229,8831.71 244.18,8837.54" style="fill:none;fill-rule:nonzero;stroke:black;stroke-width:9.6px;"/>
    </g>
    <g id="hints">
        <g id="hint-4" serif:id="hint 4">
            <path id="STROKE_96867338-fe95-4035-ab79-9fbd2e62b09b" d="M2928.56,4763.8C2814.43,4768.65 2741.53,4771.73 2709.86,4773.03C2678.19,4774.32 2629.93,4776.31 2565.07,4778.99C2500.22,4781.67 2451.34,4783.69 2418.45,4785.05C2385.55,4786.4 2335.85,4788.49 2269.33,4791.3C2202.82,4794.1 2137.28,4796.84 2072.7,4799.5C2008.13,4802.16 1927.65,4805.36 1831.27,4809.09C1734.88,4812.82 1654.16,4815.91 1589.1,4818.35C1524.04,4820.78 1466.36,4823.02 1416.05,4825.04" style="fill:none;fill-rule:nonzero;stroke:black;stroke-width:17px;"/>
            <path id="STROKE_4a6cb339-06d0-4ad3-a439-cf85a5fdcbfd" d="M1439.79,4863.84C1438.31,5013.02 1436.44,5217.72 1434.18,5477.92C1431.91,5738.13 1429.97,5966.36 1428.33,6162.6C1426.7,6358.85 1425.26,6539.38 1424.02,6704.19C1422.78,6869 1421.69,7010.37 1420.75,7128.3" style="fill:none;fill-rule:nonzero;stroke:black;stroke-width:17px;"/>
            <path id="STROKE_6edf9666-c325-433f-b5a1-cc6b0c47d74b" d="M1411.98,7150.11C1528.39,7148.89 1620.36,7147.81 1687.9,7146.86C1755.43,7145.91 1838.05,7144.77 1935.73,7143.45C2033.42,7142.12 2116.16,7140.95 2183.94,7139.95C2251.72,7138.94 2318.12,7138.03 2383.13,7137.21C2448.15,7136.39 2522.15,7135.54 2605.15,7134.67C2688.15,7133.8 2788.68,7133.02 2906.75,7132.31" style="fill:none;fill-rule:nonzero;stroke:black;stroke-width:17px;"/>
            <path id="STROKE_3b65dda8-8b4d-47b5-b2ac-35c51dab56c0" d="M1668.65,5366.22C1683.33,5331.79 1694.86,5306.67 1703.25,5290.85C1711.63,5275.03 1718.4,5263.15 1723.54,5255.23C1728.69,5247.3 1733.93,5239.84 1739.27,5232.83C1744.6,5225.82 1753.12,5216.44 1764.8,5204.69C1776.48,5192.94 1784.95,5185.03 1790.2,5180.95C1795.45,5176.87 1802.77,5171.98 1812.15,5166.27C1821.54,5160.56 1832.37,5155.06 1844.64,5149.77C1856.91,5144.48 1871.61,5140.09 1888.72,5136.6C1905.84,5133.11 1922.04,5131.59 1937.34,5132.04C1952.63,5132.49 1966.22,5134.19 1978.1,5137.13C1989.98,5140.08 2001.88,5144.23 2013.82,5149.58C2025.76,5154.92 2034.54,5159.37 2040.15,5162.91C2045.76,5166.45 2051.53,5170.66 2057.48,5175.53C2063.42,5180.4 2069.64,5186.33 2076.14,5193.32C2082.65,5200.32 2088.94,5208.21 2095.03,5216.99C2101.11,5225.77 2107.22,5236.88 2113.36,5250.32C2119.5,5263.76 2124.63,5279.88 2128.76,5298.69C2132.9,5317.51 2134.79,5338.65 2134.45,5362.12C2134.12,5385.59 2132.61,5403.77 2129.94,5416.67C2127.27,5429.57 2125.05,5438.94 2123.27,5444.8C2121.49,5450.66 2117.12,5461.73 2110.17,5478.02C2103.21,5494.31 2098.03,5505.51 2094.61,5511.62C2091.19,5517.73 2084.61,5527.53 2074.88,5541.03C2065.15,5554.53 2056.62,5565.25 2049.29,5573.19C2041.96,5581.14 2033.92,5588.83 2025.15,5596.27C2016.39,5603.71 2001.45,5614.39 1980.34,5628.29C1946.91,5642.85 1924.37,5651.49 1912.69,5654.22C1901.02,5656.94 1886.54,5658.66 1869.25,5659.38C1851.96,5660.09 1839.05,5659.86 1830.51,5658.7C1821.97,5657.53 1809.54,5654.18 1793.22,5648.65C1776.9,5643.13 1765.39,5638.52 1758.69,5634.83C1751.99,5631.14 1744.53,5626.19 1736.31,5619.97C1728.09,5613.75 1718.57,5604.69 1707.74,5592.79C1696.92,5580.89 1684.71,5564.02 1671.11,5542.18L1657.99,5513.4C1645.42,5473.65 1634.99,5436.1 1626.68,5400.76" style="fill:none;fill-rule:nonzero;stroke:black;stroke-width:17px;"/>
        </g>
    </g>
</svg>
