<?xml version="1.0" encoding="UTF-8" standalone="no"?>
<!DOCTYPE svg PUBLIC "-//W3C//DTD SVG 1.1//EN" "http://www.w3.org/Graphics/SVG/1.1/DTD/svg11.dtd">
<svg width="100%" height="100%" viewBox="0 0 8936 8937" version="1.1" xmlns="http://www.w3.org/2000/svg" xmlns:xlink="http://www.w3.org/1999/xlink" xml:space="preserve" xmlns:serif="http://www.serif.com/" style="fill-rule:evenodd;clip-rule:evenodd;stroke-linecap:round;stroke-linejoin:round;">
    <g id="guides">
        <path id="STROKE_30db2727-b088-4eaa-bf72-49c647e6015c" d="M8701.03,314.012C8700.43,311.491 8700.26,308.849 8700.52,306.086C8700.77,303.323 8700.92,297.991 8700.96,290.088C8700.99,282.185 8700.51,270.629 8699.52,255.418C8698.52,240.209 8697.4,222.528 8696.16,202.376C8694.92,182.224 8694.15,165.671 8693.83,152.718C8693.52,139.765 8693.34,126.807 8693.3,113.844C8693.26,100.881 8693.24,94.069 8693.25,93.408" style="fill:none;fill-rule:nonzero;stroke:black;stroke-width:9.6px;"/>
        <path id="STROKE_2198f27f-5bd1-402a-ac0d-c613f59cbf04" d="M8643.99,236.312C8646.83,236.927 8653.4,237.595 8663.68,238.316C8673.96,239.036 8684.62,240.016 8695.65,241.256C8706.68,242.496 8717.08,243.507 8726.85,244.288C8736.62,245.068 8745.8,245.616 8754.36,245.932C8762.93,246.248 8769.38,246.455 8773.69,246.552C8778.01,246.651 8781.84,246.698 8785.18,246.694C8788.52,246.69 8791.53,246.688 8794.2,246.688C8796.87,246.687 8800.96,246.532 8806.45,246.224C8811.94,245.916 8816.87,245.587 8821.22,245.238C8825.57,244.89 8830.1,244.579 8834.82,244.306C8839.54,244.031 8842.13,243.873 8842.59,243.832" style="fill:none;fill-rule:nonzero;stroke:black;stroke-width:9.6px;"/>
        <path id="STROKE_8dc34f65-b877-4186-be13-cdd166fdf027" d="M93.382,8667.03C102.959,8666.17 111.094,8665.26 117.786,8664.3C124.479,8663.34 129.739,8662.65 133.564,8662.21C137.391,8661.77 141.747,8661.38 146.634,8661.05C151.521,8660.72 160.479,8660.28 173.508,8659.75C186.537,8659.22 197.174,8658.88 205.418,8658.73C213.662,8658.58 222.632,8658.34 232.328,8658.04C242.023,8657.73 256.145,8657.99 274.696,8658.83C293.247,8659.66 309.833,8660.98 324.456,8662.77" style="fill:none;fill-rule:nonzero;stroke:black;stroke-width:9.6px;"/>
        <path id="STROKE_97962b0b-498b-4909-96ba-a41608fd1bcb" d="M240.806,8595.66L240.854,8601.62C239.582,8655.44 239.078,8690.77 239.342,8707.6C239.606,8724.43 239.875,8734.9 240.15,8739C240.423,8743.11 240.996,8752.52 241.868,8767.26C242.74,8781.99 243.355,8795.93 243.714,8809.08C244.074,8822.22 244.229,8831.71 244.18,8837.54" style="fill:none;fill-rule:nonzero;stroke:black;stroke-width:9.6px;"/>
    </g>
    <g id="hints">
        <g id="hint-1" serif:id="hint 1">
            <path id="STROKE_81e5eb7d-c4d6-47a3-88e6-58c5c91b8799" d="M523.336,4518.02C605.956,4430.3 687.32,4344.06 767.428,4259.3C847.536,4174.55 946.279,4069.99 1063.66,3945.61C1181.04,3821.24 1303.08,3691.8 1429.77,3557.31C1556.47,3422.81 1642.92,3330.99 1689.12,3281.85C1735.31,3232.71 1788.65,3175.99 1849.12,3111.69C1909.6,3047.39 1968.47,2984.79 2025.75,2923.9C2083.02,2863 2128.95,2814.1 2163.53,2777.18" style="fill:none;fill-rule:nonzero;stroke:black;stroke-width:17px;"/>
            <path id="STROKE_2441d665-35ee-4c63-9fa2-9aeb151e0485" d="M2149.85,2794.82L2173.76,2799.9C2202.32,2806.17 2224.9,2811.11 2241.49,2814.71C2258.08,2818.32 2281.49,2823.47 2311.71,2830.15C2341.94,2836.84 2365.14,2841.96 2381.31,2845.51C2397.49,2849.07 2428.66,2856.08 2474.83,2866.56C2521,2877.03 2560.03,2885.89 2591.92,2893.13C2623.8,2900.37 2662.97,2909.11 2709.43,2919.35C2755.88,2929.59 2794.11,2937.97 2824.12,2944.5C2854.14,2951.03 2893.23,2959.44 2941.39,2969.74" style="fill:none;fill-rule:nonzero;stroke:black;stroke-width:17px;"/>
            <path id="STROKE_f0275a76-051e-4efc-ad5f-bb95cae8fd95" d="M2253.51,2980.89C2250.07,2980.16 2245.24,2979.31 2239.02,2978.35C2232.8,2977.38 2225.91,2976.59 2218.37,2975.95C2210.82,2975.33 2204.81,2974.96 2200.34,2974.86C2195.87,2974.76 2190.98,2974.75 2185.68,2974.83C2180.38,2974.91 2175.17,2975.06 2170.06,2975.28C2164.94,2975.5 2154.56,2976.25 2138.91,2977.55C2123.26,2978.84 2109.34,2980.56 2097.17,2982.71C2085.01,2984.86 2076.04,2986.71 2070.29,2988.27C2064.53,2989.83 2060.67,2990.93 2058.71,2991.56C2056.74,2992.2 2052.05,2993.99 2044.62,2996.96C2037.19,2999.93 2030.89,3002.76 2025.72,3005.45C2020.55,3008.15 2016.29,3010.52 2012.96,3012.57C2009.62,3014.62 2006.25,3016.85 2002.84,3019.24C1999.43,3021.64 1995.5,3024.65 1991.04,3028.29C1986.59,3031.92 1982.15,3035.84 1977.74,3040.03C1973.32,3044.23 1969.73,3047.84 1966.96,3050.86C1964.2,3053.88 1961.63,3056.87 1959.26,3059.83C1956.89,3062.8 1955.1,3065.13 1953.88,3066.84C1952.66,3068.55 1950.75,3071.56 1948.12,3075.87C1945.49,3080.18 1943.43,3083.86 1941.94,3086.9C1940.44,3089.95 1939.05,3093.09 1937.77,3096.33C1936.49,3099.57 1934.9,3104.98 1932.98,3112.57C1931.07,3120.16 1929.88,3126.33 1929.4,3131.08C1928.93,3135.82 1928.66,3139.26 1928.61,3141.4C1928.57,3143.53 1928.69,3147.01 1928.98,3151.82C1929.27,3156.64 1929.88,3161.54 1930.79,3166.54C1931.71,3171.53 1932.62,3175.65 1933.54,3178.88C1934.45,3182.11 1935.39,3185.03 1936.35,3187.63C1937.31,3190.23 1938.4,3192.91 1939.63,3195.68C1940.86,3198.46 1942.17,3201.16 1943.56,3203.81C1944.95,3206.46 1946.1,3208.54 1947,3210.05C1947.9,3211.57 1949.12,3213.45 1950.65,3215.7C1952.18,3217.95 1954.52,3221.03 1957.66,3224.94C1960.8,3228.86 1963.67,3232.13 1966.27,3234.77C1968.87,3237.41 1970.63,3239.15 1971.56,3239.98C1972.5,3240.81 1975.01,3242.83 1979.1,3246.03C1983.19,3249.23 1986.66,3251.75 1989.52,3253.59C1992.38,3255.43 1994.97,3257 1997.29,3258.29C1999.6,3259.59 2002.82,3261.23 2006.93,3263.23C2011.04,3265.22 2015.23,3267.08 2019.5,3268.8C2023.77,3270.52 2028.43,3272.21 2033.47,3273.86C2038.51,3275.51 2045.36,3277.43 2054.01,3279.63C2062.66,3281.83 2071.28,3283.72 2079.86,3285.29C2088.44,3286.86 2096.09,3288.1 2102.83,3289.01C2109.56,3289.91 2116.77,3290.73 2124.47,3291.44C2132.17,3292.15 2138.58,3292.64 2143.69,3292.91C2148.8,3293.18 2154.53,3293.35 2160.88,3293.42C2167.23,3293.5 2173.51,3293.44 2179.72,3293.23C2185.93,3293.03 2190.56,3292.82 2193.62,3292.6C2196.68,3292.39 2201.23,3291.97 2207.26,3291.32C2213.29,3290.67 2218.92,3289.95 2224.15,3289.14C2229.39,3288.34 2233.63,3287.63 2236.88,3287.01C2240.13,3286.39 2243.35,3285.73 2246.55,3285.02C2249.76,3284.31 2255.11,3282.94 2262.63,3280.91C2270.14,3278.88 2276.42,3277.01 2281.45,3275.31C2286.48,3273.61 2291.18,3271.88 2295.54,3270.11C2299.89,3268.34 2303.8,3266.65 2307.26,3265.03C2310.72,3263.4 2316.29,3260.37 2323.95,3255.92C2331.62,3251.48 2336.79,3248.31 2339.48,3246.42C2342.16,3244.53 2344.86,3242.53 2347.58,3240.42C2350.29,3238.31 2353.54,3235.54 2357.33,3232.12C2361.11,3228.69 2364.54,3225.32 2367.61,3221.99C2370.68,3218.66 2373.91,3214.7 2377.3,3210.11C2380.69,3205.53 2383.12,3202.02 2384.59,3199.58C2386.06,3197.14 2387.94,3193.56 2390.22,3188.83C2392.51,3184.1 2394.01,3180.81 2394.73,3178.96C2395.45,3177.11 2396.96,3171.36 2399.28,3161.72C2401.59,3152.08 2402.86,3146.16 2403.07,3143.96C2403.28,3141.75 2403.44,3138.97 2403.54,3135.62C2403.65,3132.26 2403.64,3129.1 2403.52,3126.14C2403.39,3123.18 2403.12,3120.05 2402.71,3116.75C2402.29,3113.44 2401.76,3110.22 2401.12,3107.09C2400.48,3103.96 2399.45,3100.17 2398.03,3095.71C2396.61,3091.26 2395.04,3087.16 2393.34,3083.4C2391.64,3079.64 2389.31,3075.37 2386.35,3070.57C2383.4,3065.77 2380.24,3061.28 2376.89,3057.08C2373.53,3052.89 2369.49,3048.44 2364.75,3043.74C2360.02,3039.04 2356.56,3035.77 2354.39,3033.92C2352.21,3032.06 2349.9,3030.18 2347.44,3028.26C2344.99,3026.35 2340.97,3023.46 2335.39,3019.6C2329.8,3015.74 2325.57,3012.93 2322.69,3011.18C2319.81,3009.43 2315.54,3007.06 2309.89,3004.08C2304.24,3001.1 2298.78,2998.51 2293.54,2996.29C2288.29,2994.07 2284.4,2992.51 2281.88,2991.61C2279.36,2990.72 2274.44,2989.15 2267.12,2986.91" style="fill:none;fill-rule:nonzero;stroke:black;stroke-width:17px;"/>
        </g>
    </g>
</svg>
