<?xml version="1.0" encoding="UTF-8" standalone="no"?>
<!DOCTYPE svg PUBLIC "-//W3C//DTD SVG 1.1//EN" "http://www.w3.org/Graphics/SVG/1.1/DTD/svg11.dtd">
<svg width="100%" height="100%" viewBox="0 0 8936 8937" version="1.1" xmlns="http://www.w3.org/2000/svg" xmlns:xlink="http://www.w3.org/1999/xlink" xml:space="preserve" xmlns:serif="http://www.serif.com/" style="fill-rule:evenodd;clip-rule:evenodd;stroke-linecap:round;stroke-linejoin:round;">
    <g id="guides">
        <path id="STROKE_30db2727-b088-4eaa-bf72-49c647e6015c" d="M8701.03,314.012C8700.43,311.491 8700.26,308.849 8700.52,306.086C8700.77,303.323 8700.92,297.991 8700.96,290.088C8700.99,282.185 8700.51,270.629 8699.52,255.418C8698.52,240.209 8697.4,222.528 8696.16,202.376C8694.92,182.224 8694.15,165.671 8693.83,152.718C8693.52,139.765 8693.34,126.807 8693.3,113.844C8693.26,100.881 8693.24,94.069 8693.25,93.408" style="fill:none;fill-rule:nonzero;stroke:black;stroke-width:9.6px;"/>
        <path id="STROKE_2198f27f-5bd1-402a-ac0d-c613f59cbf04" d="M8643.99,236.312C8646.83,236.927 8653.4,237.595 8663.68,238.316C8673.96,239.036 8684.62,240.016 8695.65,241.256C8706.68,242.496 8717.08,243.507 8726.85,244.288C8736.62,245.068 8745.8,245.616 8754.36,245.932C8762.93,246.248 8769.38,246.455 8773.69,246.552C8778.01,246.651 8781.84,246.698 8785.18,246.694C8788.52,246.69 8791.53,246.688 8794.2,246.688C8796.87,246.687 8800.96,246.532 8806.45,246.224C8811.94,245.916 8816.87,245.587 8821.22,245.238C8825.57,244.89 8830.1,244.579 8834.82,244.306C8839.54,244.031 8842.13,243.873 8842.59,243.832" style="fill:none;fill-rule:nonzero;stroke:black;stroke-width:9.6px;"/>
        <path id="STROKE_8dc34f65-b877-4186-be13-cdd166fdf027" d="M93.382,8667.03C102.959,8666.17 111.094,8665.26 117.786,8664.3C124.479,8663.34 129.739,8662.65 133.564,8662.21C137.391,8661.77 141.747,8661.38 146.634,8661.05C151.521,8660.72 160.479,8660.28 173.508,8659.75C186.537,8659.22 197.174,8658.88 205.418,8658.73C213.662,8658.58 222.632,8658.34 232.328,8658.04C242.023,8657.73 256.145,8657.99 274.696,8658.83C293.247,8659.66 309.833,8660.98 324.456,8662.77" style="fill:none;fill-rule:nonzero;stroke:black;stroke-width:9.6px;"/>
        <path id="STROKE_97962b0b-498b-4909-96ba-a41608fd1bcb" d="M240.806,8595.66L240.854,8601.62C239.582,8655.44 239.078,8690.77 239.342,8707.6C239.606,8724.43 239.875,8734.9 240.15,8739C240.423,8743.11 240.996,8752.52 241.868,8767.26C242.74,8781.99 243.355,8795.93 243.714,8809.08C244.074,8822.22 244.229,8831.71 244.18,8837.54" style="fill:none;fill-rule:nonzero;stroke:black;stroke-width:9.6px;"/>
    </g>
    <g id="hints">
        <g id="hint-3" serif:id="hint 3">
            <path id="STROKE_2a6d05ee-16db-4011-9d3e-eae351d89fbd" d="M7259.9,2514.81C7250.7,2585.55 7241.38,2650.81 7231.93,2710.6C7222.47,2770.38 7214.31,2818.61 7207.42,2855.29" style="fill:none;fill-rule:nonzero;stroke:black;stroke-width:17px;"/>
            <path id="STROKE_86cf5e34-5714-4350-aa54-b6870c813f74" d="M7144.85,3281.43C7117.69,3430.84 7097.69,3538.12 7084.86,3603.26L7074.81,3652.3" style="fill:none;fill-rule:nonzero;stroke:black;stroke-width:17px;"/>
            <path id="STROKE_9a7a667c-03e4-4d03-a06b-183938a6432d" d="M7253.73,2520.5C7297.73,2512.97 7342.59,2505.49 7388.31,2498.07C7434.03,2490.65 7480.17,2483.3 7526.73,2476.01C7573.28,2468.72 7619.2,2461.35 7664.48,2453.92C7709.77,2446.48 7755.57,2438.69 7801.89,2430.56" style="fill:none;fill-rule:nonzero;stroke:black;stroke-width:17px;"/>
            <path id="STROKE_4934dfd4-0b4b-4c29-932b-fb47ac9ebe81" d="M7810.98,2418.77C7795.72,2512.09 7779.89,2606.8 7763.49,2702.9C7747.09,2798.99 7719.94,2955.38 7682.04,3172.04C7644.14,3388.72 7622.14,3513.45 7616.05,3546.26C7609.95,3579.07 7604,3609.94 7598.18,3638.86C7592.36,3667.78 7587.76,3690.08 7584.38,3705.73C7581,3721.39 7575.11,3747.92 7566.72,3785.32" style="fill:none;fill-rule:nonzero;stroke:black;stroke-width:17px;"/>
            <path id="STROKE_554c1406-a551-4edb-b493-1b435d0f70d3" d="M7080.5,3655.45C7096.85,3659.88 7120.7,3666.28 7152.04,3674.66C7183.39,3683.04 7231.22,3695.94 7295.55,3713.37C7359.89,3730.79 7399.62,3741.57 7414.77,3745.69C7429.91,3749.81 7445.2,3753.94 7460.63,3758.07C7476.06,3762.21 7508.75,3771.07 7558.72,3784.68" style="fill:none;fill-rule:nonzero;stroke:black;stroke-width:17px;"/>
            <path id="STROKE_7d90c789-7e40-4aec-a8e4-ebfe08413767" d="M7142.79,2894.99C7154.67,2888.01 7163.37,2883.02 7168.87,2880.02C7174.37,2877.01 7179.69,2874.2 7184.84,2871.59C7189.98,2868.98 7197.72,2865.51 7208.05,2861.17C7218.38,2856.84 7230.04,2852.93 7243.03,2849.42C7256.03,2845.92 7266.33,2843.71 7273.95,2842.8C7281.57,2841.89 7290.7,2841.55 7301.33,2841.79C7311.96,2842.03 7320.61,2842.7 7327.27,2843.79C7333.93,2844.88 7340.07,2846.19 7345.68,2847.73C7351.28,2849.28 7358.87,2852.09 7368.43,2856.17C7377.99,2860.26 7386.57,2864.62 7394.16,2869.27C7401.76,2873.92 7410.87,2881.01 7421.5,2890.53C7432.13,2900.06 7438.69,2906.31 7441.18,2909.28C7443.67,2912.26 7446.1,2915.39 7448.46,2918.67C7450.82,2921.95 7453.61,2926.35 7456.82,2931.86C7460.03,2937.36 7462.85,2942.8 7465.26,2948.16C7467.66,2953.52 7469.55,2958.19 7470.92,2962.15C7472.29,2966.12 7473.59,2970.61 7474.84,2975.62C7476.08,2980.64 7477.07,2985.36 7477.81,2989.78C7478.55,2994.21 7479.17,3000.42 7479.69,3008.42C7480.2,3016.43 7480.39,3023.26 7480.25,3028.94C7480.1,3034.61 7478.29,3047.23 7474.81,3066.8C7471.33,3086.38 7467.26,3102.99 7462.6,3116.63C7457.94,3130.28 7452.28,3143.99 7445.6,3157.77C7438.93,3171.55 7433.23,3182.18 7428.48,3189.67C7423.74,3197.15 7418.38,3204.66 7412.4,3212.19C7406.42,3219.73 7400.9,3226.02 7395.83,3231.08C7390.77,3236.14 7385,3241.22 7378.54,3246.32C7372.07,3251.43 7365.51,3255.97 7358.84,3259.95C7352.17,3263.93 7346.04,3267.2 7340.44,3269.75C7334.85,3272.3 7327.45,3275.04 7318.25,3277.98C7309.06,3280.91 7299.04,3283.39 7288.2,3285.41C7277.36,3287.43 7268.44,3288.76 7261.44,3289.39C7254.45,3290.02 7247.29,3290.38 7239.97,3290.48C7232.65,3290.59 7224.11,3290.16 7214.35,3289.2C7204.59,3288.24 7195.07,3286.62 7185.77,3284.32C7176.48,3282.02 7169.03,3279.74 7163.44,3277.49C7157.84,3275.23 7152.15,3272.42 7146.36,3269.04C7140.57,3265.67 7135.76,3262.54 7131.94,3259.64C7128.11,3256.74 7123.04,3252.02 7116.72,3245.47C7110.4,3238.91 7105.36,3233 7101.6,3227.73C7097.84,3222.45 7094.7,3217.58 7092.19,3213.12C7089.67,3208.66 7086.5,3201.73 7082.67,3192.34C7078.84,3182.95 7075.5,3171.71 7072.65,3158.62C7069.79,3145.52 7068.1,3136.4 7067.56,3131.25C7067.02,3126.1 7066.78,3116.69 7066.84,3103.03C7066.9,3089.36 7067.22,3079.78 7067.81,3074.29C7068.39,3068.79 7070.11,3059.07 7072.97,3045.14C7075.83,3031.2 7082.72,3008.8 7093.65,2977.94C7097.18,2970.12 7100.32,2963.45 7103.05,2957.94C7105.78,2952.42 7109.36,2945.71 7113.78,2937.8C7118.2,2929.88 7125.25,2917.62 7134.93,2901" style="fill:none;fill-rule:nonzero;stroke:black;stroke-width:17px;"/>
        </g>
    </g>
</svg>
