<?xml version="1.0" encoding="UTF-8" standalone="no"?>
<!DOCTYPE svg PUBLIC "-//W3C//DTD SVG 1.1//EN" "http://www.w3.org/Graphics/SVG/1.1/DTD/svg11.dtd">
<svg width="100%" height="100%" viewBox="0 0 8936 8937" version="1.1" xmlns="http://www.w3.org/2000/svg" xmlns:xlink="http://www.w3.org/1999/xlink" xml:space="preserve" xmlns:serif="http://www.serif.com/" style="fill-rule:evenodd;clip-rule:evenodd;stroke-linecap:round;stroke-linejoin:round;">
    <g id="guides">
        <path id="STROKE_30db2727-b088-4eaa-bf72-49c647e6015c" d="M8701.03,314.012C8700.43,311.491 8700.26,308.849 8700.52,306.086C8700.77,303.323 8700.92,297.991 8700.96,290.088C8700.99,282.185 8700.51,270.629 8699.52,255.418C8698.52,240.209 8697.4,222.528 8696.16,202.376C8694.92,182.224 8694.15,165.671 8693.83,152.718C8693.52,139.765 8693.34,126.807 8693.3,113.844C8693.26,100.881 8693.24,94.069 8693.25,93.408" style="fill:none;fill-rule:nonzero;stroke:black;stroke-width:9.6px;"/>
        <path id="STROKE_2198f27f-5bd1-402a-ac0d-c613f59cbf04" d="M8643.99,236.312C8646.83,236.927 8653.4,237.595 8663.68,238.316C8673.96,239.036 8684.62,240.016 8695.65,241.256C8706.68,242.496 8717.08,243.507 8726.85,244.288C8736.62,245.068 8745.8,245.616 8754.36,245.932C8762.93,246.248 8769.38,246.455 8773.69,246.552C8778.01,246.651 8781.84,246.698 8785.18,246.694C8788.52,246.69 8791.53,246.688 8794.2,246.688C8796.87,246.687 8800.96,246.532 8806.45,246.224C8811.94,245.916 8816.87,245.587 8821.22,245.238C8825.57,244.89 8830.1,244.579 8834.82,244.306C8839.54,244.031 8842.13,243.873 8842.59,243.832" style="fill:none;fill-rule:nonzero;stroke:black;stroke-width:9.6px;"/>
        <path id="STROKE_8dc34f65-b877-4186-be13-cdd166fdf027" d="M93.382,8667.03C102.959,8666.17 111.094,8665.26 117.786,8664.3C124.479,8663.34 129.739,8662.65 133.564,8662.21C137.391,8661.77 141.747,8661.38 146.634,8661.05C151.521,8660.72 160.479,8660.28 173.508,8659.75C186.537,8659.22 197.174,8658.88 205.418,8658.73C213.662,8658.58 222.632,8658.34 232.328,8658.04C242.023,8657.73 256.145,8657.99 274.696,8658.83C293.247,8659.66 309.833,8660.98 324.456,8662.77" style="fill:none;fill-rule:nonzero;stroke:black;stroke-width:9.6px;"/>
        <path id="STROKE_97962b0b-498b-4909-96ba-a41608fd1bcb" d="M240.806,8595.66L240.854,8601.62C239.582,8655.44 239.078,8690.77 239.342,8707.6C239.606,8724.43 239.875,8734.9 240.15,8739C240.423,8743.11 240.996,8752.52 241.868,8767.26C242.74,8781.99 243.355,8795.93 243.714,8809.08C244.074,8822.22 244.229,8831.71 244.18,8837.54" style="fill:none;fill-rule:nonzero;stroke:black;stroke-width:9.6px;"/>
    </g>
    <g id="panels">
        <path id="panel-4" serif:id="panel 4" d="M186.278,5642.61C186.278,5636.66 186.278,5634.47 186.278,5636.03C186.278,5629.28 186.277,5567.84 186.276,5451.69L186.276,4992.1C186.275,4978.09 186.274,4949.78 186.274,4907.15L186.274,4573.18L291.212,4573.18C323.332,4573.18 366.569,4573.18 420.924,4573.18L550.008,4573.18C581.711,4573.18 636.189,4573.18 713.444,4573.18L916.856,4573.18C975.209,4573.18 1023.76,4573.18 1062.51,4573.18L1581.89,4573.18C1664.96,4573.18 1736.17,4573.18 1795.53,4573.18C1854.89,4573.18 1916.08,4573.18 1979.11,4573.18L2256.82,4573.18C2251.51,4573.18 2282.3,4573.18 2349.16,4573.17L2815.47,4573.17C2853.01,4573.17 2891.56,4573.17 2931.15,4573.17C2931.15,4587.22 2931.15,4593.92 2931.15,4593.25C2931.15,4605.97 2931.15,4611.01 2931.15,4608.35C2931.15,4605.7 2931.15,4625.39 2931.15,4667.41L2931.15,4941.16C2931.15,5037.6 2931.15,5111.66 2931.15,5163.37L2931.15,5283.4C2931.15,5311.72 2931.15,5339.08 2931.15,5365.49L2931.15,5674.64C2931.15,5854.35 2931.15,6035 2931.15,6216.61C2931.15,6398.23 2931.16,6530.72 2931.16,6614.1L2931.16,7054.18C2931.16,7092.09 2931.16,7123.62 2931.16,7148.78L2931.16,7478.53L2878.01,7478.53C2844.1,7478.53 2814.41,7478.53 2788.94,7478.53C2763.47,7478.53 2654.26,7478.53 2461.3,7478.53C2268.35,7478.53 2122.28,7478.53 2023.09,7478.53L1571.65,7478.53C1518.87,7478.53 1473.98,7478.54 1436.99,7478.54L1103.1,7478.54C1016.3,7478.54 927.269,7478.54 836.01,7478.54L186.284,7478.54C186.284,7449.34 186.283,7390.53 186.282,7302.1L186.282,6918.59C186.282,6889.51 186.281,6848.96 186.28,6796.92L186.28,6212.63C186.28,6159.25 186.279,6119.13 186.278,6092.27L186.278,6011.35C186.279,5984.26 186.279,5956.78 186.278,5928.92L186.278,5735.35C186.278,5735.99 186.278,5736.27 186.278,5736.19L186.278,5730.37C186.278,5726.57 186.278,5724.92 186.278,5725.43C186.278,5725.94 186.278,5726.19 186.278,5726.17L186.278,5716.42C186.278,5716.41 186.278,5716.69 186.278,5717.26C186.278,5722.85 186.278,5716.42 186.278,5697.97" style="fill:none;fill-rule:nonzero;stroke:black;stroke-width:28px;"/>
    </g>
</svg>
