<?xml version="1.0" encoding="UTF-8" standalone="no"?>
<!DOCTYPE svg PUBLIC "-//W3C//DTD SVG 1.1//EN" "http://www.w3.org/Graphics/SVG/1.1/DTD/svg11.dtd">
<svg width="100%" height="100%" viewBox="0 0 8936 8937" version="1.1" xmlns="http://www.w3.org/2000/svg" xmlns:xlink="http://www.w3.org/1999/xlink" xml:space="preserve" xmlns:serif="http://www.serif.com/" style="fill-rule:evenodd;clip-rule:evenodd;stroke-linecap:round;stroke-linejoin:round;">
    <g id="guides">
        <path id="STROKE_30db2727-b088-4eaa-bf72-49c647e6015c" d="M8701.03,314.012C8700.43,311.491 8700.26,308.849 8700.52,306.086C8700.77,303.323 8700.92,297.991 8700.96,290.088C8700.99,282.185 8700.51,270.629 8699.52,255.418C8698.52,240.209 8697.4,222.528 8696.16,202.376C8694.92,182.224 8694.15,165.671 8693.83,152.718C8693.52,139.765 8693.34,126.807 8693.3,113.844C8693.26,100.881 8693.24,94.069 8693.25,93.408" style="fill:none;fill-rule:nonzero;stroke:black;stroke-width:9.6px;"/>
        <path id="STROKE_2198f27f-5bd1-402a-ac0d-c613f59cbf04" d="M8643.99,236.312C8646.83,236.927 8653.4,237.595 8663.68,238.316C8673.96,239.036 8684.62,240.016 8695.65,241.256C8706.68,242.496 8717.08,243.507 8726.85,244.288C8736.62,245.068 8745.8,245.616 8754.36,245.932C8762.93,246.248 8769.38,246.455 8773.69,246.552C8778.01,246.651 8781.84,246.698 8785.18,246.694C8788.52,246.69 8791.53,246.688 8794.2,246.688C8796.87,246.687 8800.96,246.532 8806.45,246.224C8811.94,245.916 8816.87,245.587 8821.22,245.238C8825.57,244.89 8830.1,244.579 8834.82,244.306C8839.54,244.031 8842.13,243.873 8842.59,243.832" style="fill:none;fill-rule:nonzero;stroke:black;stroke-width:9.6px;"/>
        <path id="STROKE_8dc34f65-b877-4186-be13-cdd166fdf027" d="M93.382,8667.03C102.959,8666.17 111.094,8665.26 117.786,8664.3C124.479,8663.34 129.739,8662.65 133.564,8662.21C137.391,8661.77 141.747,8661.38 146.634,8661.05C151.521,8660.72 160.479,8660.28 173.508,8659.75C186.537,8659.22 197.174,8658.88 205.418,8658.73C213.662,8658.58 222.632,8658.34 232.328,8658.04C242.023,8657.73 256.145,8657.99 274.696,8658.83C293.247,8659.66 309.833,8660.98 324.456,8662.77" style="fill:none;fill-rule:nonzero;stroke:black;stroke-width:9.6px;"/>
        <path id="STROKE_97962b0b-498b-4909-96ba-a41608fd1bcb" d="M240.806,8595.66L240.854,8601.62C239.582,8655.44 239.078,8690.77 239.342,8707.6C239.606,8724.43 239.875,8734.9 240.15,8739C240.423,8743.11 240.996,8752.52 241.868,8767.26C242.74,8781.99 243.355,8795.93 243.714,8809.08C244.074,8822.22 244.229,8831.71 244.18,8837.54" style="fill:none;fill-rule:nonzero;stroke:black;stroke-width:9.6px;"/>
    </g>
    <g id="panels">
        <path id="panel-5" serif:id="panel 5" d="M3121.38,5615.33C3121.38,5609.38 3121.38,5607.18 3121.38,5608.74C3121.38,5601.99 3121.38,5540.55 3121.38,5424.41L3121.38,4964.81C3121.38,4950.81 3121.37,4922.49 3121.37,4879.86L3121.37,4545.9C3159.21,4545.9 3194.19,4545.9 3226.31,4545.9L3648.54,4545.9C3725.8,4545.9 3793.6,4545.89 3851.96,4545.89L3997.61,4545.89C4036.36,4545.89 4073.55,4545.89 4109.18,4545.89L4332.46,4545.89C4372.41,4545.89 4433.92,4545.89 4516.99,4545.89L4914.21,4545.89C4977.24,4545.89 5024.29,4545.89 5055.34,4545.89L5191.92,4545.89C5186.61,4545.89 5217.4,4545.89 5284.26,4545.89L5464.57,4545.89C5517.92,4545.89 5569.54,4545.89 5619.43,4545.89L5750.57,4545.89C5788.11,4545.89 5826.66,4545.89 5866.25,4545.89C5866.25,4559.94 5866.25,4566.63 5866.25,4565.96C5866.25,4578.69 5866.25,4583.72 5866.25,4581.07C5866.25,4578.42 5866.25,4598.1 5866.25,4640.13L5866.25,5136.08C5866.25,5187.78 5866.25,5227.79 5866.25,5256.11L5866.25,5338.2C5866.25,5364.61 5866.25,5467.66 5866.25,5647.36C5866.25,5827.06 5866.25,6007.72 5866.25,6189.33C5866.25,6370.94 5866.26,6503.43 5866.26,6586.81L5866.26,7211.86C5866.26,7246.95 5866.26,7274.82 5866.26,7295.47L5866.26,7451.25L5396.4,7451.25C5203.45,7451.25 5057.38,7451.25 4958.18,7451.25L4626.87,7451.25C4599.57,7451.25 4559.53,7451.25 4506.75,7451.25L4038.2,7451.25C3951.4,7451.25 3862.37,7451.25 3771.11,7451.25L3526.98,7451.25C3455.48,7451.25 3396.82,7451.25 3351,7451.25L3121.38,7451.25C3121.38,7422.06 3121.38,7363.24 3121.38,7274.81L3121.38,6891.3C3121.38,6862.23 3121.38,6821.67 3121.38,6769.64L3121.38,6185.34C3121.38,6131.96 3121.38,6091.85 3121.38,6064.99L3121.38,5984.07C3121.38,5956.97 3121.38,5929.5 3121.38,5901.64L3121.38,5708.07C3121.38,5708.71 3121.38,5708.99 3121.38,5708.91L3121.38,5703.08C3121.38,5699.28 3121.38,5697.64 3121.38,5698.15C3121.38,5698.66 3121.38,5698.9 3121.38,5698.88L3121.38,5689.14C3121.38,5689.12 3121.38,5689.4 3121.38,5689.97C3121.38,5695.57 3121.38,5689.14 3121.38,5670.68" style="fill:none;fill-rule:nonzero;stroke:black;stroke-width:28px;"/>
    </g>
</svg>
