<?xml version="1.0" encoding="UTF-8" standalone="no"?>
<!DOCTYPE svg PUBLIC "-//W3C//DTD SVG 1.1//EN" "http://www.w3.org/Graphics/SVG/1.1/DTD/svg11.dtd">
<svg width="100%" height="100%" viewBox="0 0 8936 8937" version="1.1" xmlns="http://www.w3.org/2000/svg" xmlns:xlink="http://www.w3.org/1999/xlink" xml:space="preserve" xmlns:serif="http://www.serif.com/" style="fill-rule:evenodd;clip-rule:evenodd;stroke-linecap:round;stroke-linejoin:round;">
    <g id="guides">
        <path id="STROKE_30db2727-b088-4eaa-bf72-49c647e6015c" d="M8701.03,314.012C8700.43,311.491 8700.26,308.849 8700.52,306.086C8700.77,303.323 8700.92,297.991 8700.96,290.088C8700.99,282.185 8700.51,270.629 8699.52,255.418C8698.52,240.209 8697.4,222.528 8696.16,202.376C8694.92,182.224 8694.15,165.671 8693.83,152.718C8693.52,139.765 8693.34,126.807 8693.3,113.844C8693.26,100.881 8693.24,94.069 8693.25,93.408" style="fill:none;fill-rule:nonzero;stroke:black;stroke-width:9.6px;"/>
        <path id="STROKE_2198f27f-5bd1-402a-ac0d-c613f59cbf04" d="M8643.99,236.312C8646.83,236.927 8653.4,237.595 8663.68,238.316C8673.96,239.036 8684.62,240.016 8695.65,241.256C8706.68,242.496 8717.08,243.507 8726.85,244.288C8736.62,245.068 8745.8,245.616 8754.36,245.932C8762.93,246.248 8769.38,246.455 8773.69,246.552C8778.01,246.651 8781.84,246.698 8785.18,246.694C8788.52,246.69 8791.53,246.688 8794.2,246.688C8796.87,246.687 8800.96,246.532 8806.45,246.224C8811.94,245.916 8816.87,245.587 8821.22,245.238C8825.57,244.89 8830.1,244.579 8834.82,244.306C8839.54,244.031 8842.13,243.873 8842.59,243.832" style="fill:none;fill-rule:nonzero;stroke:black;stroke-width:9.6px;"/>
        <path id="STROKE_8dc34f65-b877-4186-be13-cdd166fdf027" d="M93.382,8667.03C102.959,8666.17 111.094,8665.26 117.786,8664.3C124.479,8663.34 129.739,8662.65 133.564,8662.21C137.391,8661.77 141.747,8661.38 146.634,8661.05C151.521,8660.72 160.479,8660.28 173.508,8659.75C186.537,8659.22 197.174,8658.88 205.418,8658.73C213.662,8658.58 222.632,8658.34 232.328,8658.04C242.023,8657.73 256.145,8657.99 274.696,8658.83C293.247,8659.66 309.833,8660.98 324.456,8662.77" style="fill:none;fill-rule:nonzero;stroke:black;stroke-width:9.6px;"/>
        <path id="STROKE_97962b0b-498b-4909-96ba-a41608fd1bcb" d="M240.806,8595.66L240.854,8601.62C239.582,8655.44 239.078,8690.77 239.342,8707.6C239.606,8724.43 239.875,8734.9 240.15,8739C240.423,8743.11 240.996,8752.52 241.868,8767.26C242.74,8781.99 243.355,8795.93 243.714,8809.08C244.074,8822.22 244.229,8831.71 244.18,8837.54" style="fill:none;fill-rule:nonzero;stroke:black;stroke-width:9.6px;"/>
    </g>
    <g id="panels">
        <path id="panel-1" serif:id="panel 1" d="M205.322,2672.02C205.322,2666.07 205.322,2663.88 205.322,2665.44C205.322,2658.69 205.321,2597.25 205.32,2481.1L205.32,2021.51C205.319,2007.5 205.318,1979.19 205.318,1936.56L205.318,1602.59L439.968,1602.59C494.323,1602.59 537.351,1602.59 569.052,1602.59C600.755,1602.59 655.233,1602.59 732.488,1602.59L1081.55,1602.59C1120.3,1602.59 1157.5,1602.59 1193.13,1602.59L1600.93,1602.59C1684,1602.59 1755.22,1602.59 1814.58,1602.59C1873.93,1602.59 1935.13,1602.59 1998.16,1602.59L2275.86,1602.59C2270.56,1602.59 2301.34,1602.59 2368.2,1602.59C2435.07,1602.59 2495.17,1602.59 2548.51,1602.58L2703.38,1602.58C2753.27,1602.59 2796.98,1602.59 2834.52,1602.58L2950.19,1602.58C2950.19,1616.64 2950.19,1623.33 2950.19,1622.66C2950.19,1635.38 2950.19,1640.42 2950.19,1637.76C2950.19,1635.11 2950.19,1654.8 2950.19,1696.83L2950.19,2192.78C2950.2,2244.48 2950.2,2284.49 2950.19,2312.81L2950.19,2394.9C2950.2,2421.3 2950.2,2524.35 2950.2,2704.06C2950.2,2883.76 2950.2,3064.41 2950.2,3246.02C2950.2,3427.64 2950.2,3560.13 2950.2,3643.51L2950.2,4268.56C2950.2,4303.64 2950.2,4331.51 2950.2,4352.16L2950.2,4507.94C2948.68,4507.94 2930.97,4507.94 2897.06,4507.94L2807.99,4507.94C2782.51,4507.94 2673.3,4507.94 2480.35,4507.94C2287.39,4507.94 2141.32,4507.94 2042.13,4507.94L1590.69,4507.94C1537.91,4507.94 1493.03,4507.95 1456.03,4507.95L1122.15,4507.95C1035.34,4507.95 946.311,4507.95 855.054,4507.95L205.328,4507.95C205.328,4478.75 205.327,4419.94 205.326,4331.51L205.326,3948C205.326,3918.92 205.325,3878.37 205.324,3826.33L205.324,3242.04C205.324,3188.66 205.323,3148.54 205.322,3121.68L205.322,3040.76C205.323,3013.67 205.323,2986.2 205.322,2958.34L205.322,2764.76C205.322,2765.4 205.322,2765.68 205.322,2765.6L205.322,2759.78C205.322,2755.98 205.322,2754.33 205.322,2754.84C205.322,2755.35 205.322,2755.6 205.322,2755.58L205.322,2745.84C205.322,2745.82 205.322,2746.1 205.322,2746.67C205.322,2752.26 205.322,2745.83 205.322,2727.38" style="fill:none;fill-rule:nonzero;stroke:black;stroke-width:28px;"/>
    </g>
</svg>
