<?xml version="1.0" encoding="UTF-8" standalone="no"?>
<!DOCTYPE svg PUBLIC "-//W3C//DTD SVG 1.1//EN" "http://www.w3.org/Graphics/SVG/1.1/DTD/svg11.dtd">
<svg width="100%" height="100%" viewBox="0 0 8936 8937" version="1.1" xmlns="http://www.w3.org/2000/svg" xmlns:xlink="http://www.w3.org/1999/xlink" xml:space="preserve" xmlns:serif="http://www.serif.com/" style="fill-rule:evenodd;clip-rule:evenodd;stroke-linecap:round;stroke-linejoin:round;">
    <g id="guides">
        <path id="STROKE_30db2727-b088-4eaa-bf72-49c647e6015c" d="M8701.03,314.012C8700.43,311.491 8700.26,308.849 8700.52,306.086C8700.77,303.323 8700.92,297.991 8700.96,290.088C8700.99,282.185 8700.51,270.629 8699.52,255.418C8698.52,240.209 8697.4,222.528 8696.16,202.376C8694.92,182.224 8694.15,165.671 8693.83,152.718C8693.52,139.765 8693.34,126.807 8693.3,113.844C8693.26,100.881 8693.24,94.069 8693.25,93.408" style="fill:none;fill-rule:nonzero;stroke:black;stroke-width:9.6px;"/>
        <path id="STROKE_2198f27f-5bd1-402a-ac0d-c613f59cbf04" d="M8643.99,236.312C8646.83,236.927 8653.4,237.595 8663.68,238.316C8673.96,239.036 8684.62,240.016 8695.65,241.256C8706.68,242.496 8717.08,243.507 8726.85,244.288C8736.62,245.068 8745.8,245.616 8754.36,245.932C8762.93,246.248 8769.38,246.455 8773.69,246.552C8778.01,246.651 8781.84,246.698 8785.18,246.694C8788.52,246.69 8791.53,246.688 8794.2,246.688C8796.87,246.687 8800.96,246.532 8806.45,246.224C8811.94,245.916 8816.87,245.587 8821.22,245.238C8825.57,244.89 8830.1,244.579 8834.82,244.306C8839.54,244.031 8842.13,243.873 8842.59,243.832" style="fill:none;fill-rule:nonzero;stroke:black;stroke-width:9.6px;"/>
        <path id="STROKE_8dc34f65-b877-4186-be13-cdd166fdf027" d="M93.382,8667.03C102.959,8666.17 111.094,8665.26 117.786,8664.3C124.479,8663.34 129.739,8662.65 133.564,8662.21C137.391,8661.77 141.747,8661.38 146.634,8661.05C151.521,8660.72 160.479,8660.28 173.508,8659.75C186.537,8659.22 197.174,8658.88 205.418,8658.73C213.662,8658.58 222.632,8658.34 232.328,8658.04C242.023,8657.73 256.145,8657.99 274.696,8658.83C293.247,8659.66 309.833,8660.98 324.456,8662.77" style="fill:none;fill-rule:nonzero;stroke:black;stroke-width:9.6px;"/>
        <path id="STROKE_97962b0b-498b-4909-96ba-a41608fd1bcb" d="M240.806,8595.66L240.854,8601.62C239.582,8655.44 239.078,8690.77 239.342,8707.6C239.606,8724.43 239.875,8734.9 240.15,8739C240.423,8743.11 240.996,8752.52 241.868,8767.26C242.74,8781.99 243.355,8795.93 243.714,8809.08C244.074,8822.22 244.229,8831.71 244.18,8837.54" style="fill:none;fill-rule:nonzero;stroke:black;stroke-width:9.6px;"/>
    </g>
    <g id="panels">
        <path id="panel-6" serif:id="panel 6" d="M5959.97,5600.75C5959.97,5594.79 5959.97,5592.6 5959.97,5594.16L5959.97,4950.23C5959.97,4936.23 5959.97,4907.91 5959.97,4865.28L5959.97,4531.31C5997.81,4531.31 6032.79,4531.31 6064.91,4531.31C6097.03,4531.31 6140.27,4531.31 6194.62,4531.31L6487.14,4531.31C6564.4,4531.31 6632.2,4531.31 6690.55,4531.31L6947.78,4531.31C6983.41,4531.31 7019.55,4531.31 7056.18,4531.31C7092.82,4531.31 7131.11,4531.31 7171.06,4531.31C7211,4531.31 7272.51,4531.31 7355.58,4531.31L8030.51,4531.31C8025.21,4531.31 8055.99,4531.31 8122.85,4531.31L8589.17,4531.31C8626.7,4531.31 8665.26,4531.31 8704.84,4531.3C8704.84,4545.36 8704.84,4552.05 8704.84,4551.38C8704.84,4564.1 8704.84,4569.14 8704.84,4566.49C8704.84,4563.83 8704.85,4583.52 8704.85,4625.55L8704.85,5121.5C8704.85,5173.2 8704.85,5213.21 8704.85,5241.53L8704.85,5323.62C8704.85,5350.02 8704.85,5453.07 8704.85,5632.78C8704.85,5812.48 8704.85,5993.14 8704.85,6174.75C8704.85,6356.36 8704.85,6488.85 8704.85,6572.23L8704.85,7280.88C8704.85,7301.53 8704.85,7315.82 8704.85,7323.75L8704.85,7436.66L8562.64,7436.66C8537.17,7436.66 8427.95,7436.66 8235,7436.66L7796.78,7436.66C7697.59,7436.66 7624.4,7436.67 7577.21,7436.67L7345.35,7436.67C7292.57,7436.67 7247.68,7436.67 7210.68,7436.67L7103.34,7436.67C7068.78,7436.67 7044.08,7436.67 7029.25,7436.67L6609.71,7436.67C6518.45,7436.67 6437.07,7436.67 6365.57,7436.67L5959.98,7436.67C5959.98,7407.47 5959.98,7348.66 5959.98,7260.23L5959.98,7023.96C5959.98,6954.87 5959.98,6905.79 5959.98,6876.72L5959.98,6378.86C5959.98,6351.46 5959.97,6323.27 5959.97,6294.29L5959.97,5887.06C5959.97,5859.2 5959.97,5841.53 5959.97,5834.07L5959.97,5808.94C5959.97,5799.65 5959.97,5787.86 5959.97,5773.56L5959.97,5737.81C5959.97,5728.27 5959.97,5722.1 5959.97,5719.28L5959.97,5693.48C5959.97,5694.12 5959.97,5694.4 5959.97,5694.32L5959.97,5688.5C5959.97,5684.7 5959.97,5683.05 5959.97,5683.56C5959.97,5684.07 5959.97,5684.32 5959.97,5684.3L5959.97,5674.56C5959.97,5674.54 5959.97,5674.82 5959.97,5675.39C5959.97,5680.98 5959.97,5674.56 5959.97,5656.1" style="fill:none;fill-rule:nonzero;stroke:black;stroke-width:28px;"/>
    </g>
</svg>
