<?xml version="1.0" encoding="UTF-8" standalone="no"?>
<!DOCTYPE svg PUBLIC "-//W3C//DTD SVG 1.1//EN" "http://www.w3.org/Graphics/SVG/1.1/DTD/svg11.dtd">
<svg width="100%" height="100%" viewBox="0 0 8936 8937" version="1.1" xmlns="http://www.w3.org/2000/svg" xmlns:xlink="http://www.w3.org/1999/xlink" xml:space="preserve" xmlns:serif="http://www.serif.com/" style="fill-rule:evenodd;clip-rule:evenodd;stroke-linecap:round;stroke-linejoin:round;">
    <g id="guides">
        <path id="STROKE_30db2727-b088-4eaa-bf72-49c647e6015c" d="M8701.03,314.012C8700.43,311.491 8700.26,308.849 8700.52,306.086C8700.77,303.323 8700.92,297.991 8700.96,290.088C8700.99,282.185 8700.51,270.629 8699.52,255.418C8698.52,240.209 8697.4,222.528 8696.16,202.376C8694.92,182.224 8694.15,165.671 8693.83,152.718C8693.52,139.765 8693.34,126.807 8693.3,113.844C8693.26,100.881 8693.24,94.069 8693.25,93.408" style="fill:none;fill-rule:nonzero;stroke:black;stroke-width:9.6px;"/>
        <path id="STROKE_2198f27f-5bd1-402a-ac0d-c613f59cbf04" d="M8643.99,236.312C8646.83,236.927 8653.4,237.595 8663.68,238.316C8673.96,239.036 8684.62,240.016 8695.65,241.256C8706.68,242.496 8717.08,243.507 8726.85,244.288C8736.62,245.068 8745.8,245.616 8754.36,245.932C8762.93,246.248 8769.38,246.455 8773.69,246.552C8778.01,246.651 8781.84,246.698 8785.18,246.694C8788.52,246.69 8791.53,246.688 8794.2,246.688C8796.87,246.687 8800.96,246.532 8806.45,246.224C8811.94,245.916 8816.87,245.587 8821.22,245.238C8825.57,244.89 8830.1,244.579 8834.82,244.306C8839.54,244.031 8842.13,243.873 8842.59,243.832" style="fill:none;fill-rule:nonzero;stroke:black;stroke-width:9.6px;"/>
        <path id="STROKE_8dc34f65-b877-4186-be13-cdd166fdf027" d="M93.382,8667.03C102.959,8666.17 111.094,8665.26 117.786,8664.3C124.479,8663.34 129.739,8662.65 133.564,8662.21C137.391,8661.77 141.747,8661.38 146.634,8661.05C151.521,8660.72 160.479,8660.28 173.508,8659.75C186.537,8659.22 197.174,8658.88 205.418,8658.73C213.662,8658.58 222.632,8658.34 232.328,8658.04C242.023,8657.73 256.145,8657.99 274.696,8658.83C293.247,8659.66 309.833,8660.98 324.456,8662.77" style="fill:none;fill-rule:nonzero;stroke:black;stroke-width:9.6px;"/>
        <path id="STROKE_97962b0b-498b-4909-96ba-a41608fd1bcb" d="M240.806,8595.66L240.854,8601.62C239.582,8655.44 239.078,8690.77 239.342,8707.6C239.606,8724.43 239.875,8734.9 240.15,8739C240.423,8743.11 240.996,8752.52 241.868,8767.26C242.74,8781.99 243.355,8795.93 243.714,8809.08C244.074,8822.22 244.229,8831.71 244.18,8837.54" style="fill:none;fill-rule:nonzero;stroke:black;stroke-width:9.6px;"/>
    </g>
    <g id="panels">
        <path id="panel-2" serif:id="panel 2" d="M3140.42,2644.74C3140.42,2638.79 3140.42,2636.59 3140.42,2638.15L3140.42,2055.67C3140.42,2028.71 3140.42,2008.23 3140.42,1994.22L3140.42,1575.31C3178.26,1575.31 3213.24,1575.31 3245.36,1575.31C3277.47,1575.31 3320.71,1575.31 3375.07,1575.31L3667.59,1575.31C3744.84,1575.31 3812.65,1575.3 3871,1575.3L4128.23,1575.3C4163.86,1575.3 4199.99,1575.3 4236.63,1575.3C4273.27,1575.3 4311.56,1575.3 4351.5,1575.3C4391.45,1575.3 4452.96,1575.3 4536.03,1575.3L5210.96,1575.3C5205.66,1575.3 5236.44,1575.3 5303.3,1575.3L5769.62,1575.3C5807.15,1575.3 5845.71,1575.3 5885.29,1575.3C5885.29,1589.35 5885.29,1596.04 5885.29,1595.37C5885.29,1608.1 5885.29,1613.13 5885.29,1610.48C5885.29,1607.83 5885.29,1627.51 5885.29,1669.54L5885.29,2165.49C5885.3,2217.19 5885.3,2257.2 5885.29,2285.53L5885.29,2367.61C5885.3,2394.02 5885.3,2497.07 5885.3,2676.77C5885.3,2856.47 5885.3,3037.13 5885.3,3218.74C5885.3,3400.35 5885.3,3532.84 5885.3,3616.22L5885.3,4324.88C5885.3,4345.52 5885.3,4359.81 5885.3,4367.74L5885.3,4480.66L5415.45,4480.66C5222.49,4480.66 5076.42,4480.66 4977.23,4480.66C4878.04,4480.66 4804.85,4480.66 4757.65,4480.66L4209.7,4480.66C4194.87,4480.66 4144.05,4480.66 4057.25,4480.66L3790.15,4480.66C3698.9,4480.66 3617.52,4480.66 3546.02,4480.66L3140.43,4480.66C3140.43,4451.47 3140.43,4392.65 3140.43,4304.22L3140.43,4067.95C3140.43,3998.87 3140.42,3949.79 3140.42,3920.71L3140.42,3422.85C3140.42,3395.45 3140.42,3367.27 3140.42,3338.29L3140.42,2931.05C3140.42,2903.19 3140.42,2885.53 3140.42,2878.07L3140.42,2852.93C3140.42,2843.64 3140.42,2831.85 3140.42,2817.55L3140.42,2781.8C3140.42,2772.26 3140.42,2766.09 3140.42,2763.27L3140.42,2737.48C3140.42,2738.12 3140.42,2738.4 3140.42,2738.32L3140.42,2732.49C3140.42,2728.69 3140.42,2727.05 3140.42,2727.56C3140.42,2728.07 3140.42,2728.31 3140.42,2728.29L3140.42,2718.55C3140.42,2718.54 3140.42,2718.81 3140.42,2719.38C3140.42,2724.98 3140.42,2718.55 3140.42,2700.09" style="fill:none;fill-rule:nonzero;stroke:black;stroke-width:28px;"/>
    </g>
</svg>
