<?xml version="1.0" encoding="UTF-8" standalone="no"?>
<!DOCTYPE svg PUBLIC "-//W3C//DTD SVG 1.1//EN" "http://www.w3.org/Graphics/SVG/1.1/DTD/svg11.dtd">
<svg width="100%" height="100%" viewBox="0 0 8936 8937" version="1.1" xmlns="http://www.w3.org/2000/svg" xmlns:xlink="http://www.w3.org/1999/xlink" xml:space="preserve" xmlns:serif="http://www.serif.com/" style="fill-rule:evenodd;clip-rule:evenodd;stroke-linecap:round;stroke-linejoin:round;">
    <g id="guides">
        <path id="STROKE_30db2727-b088-4eaa-bf72-49c647e6015c" d="M8701.03,314.012C8700.43,311.491 8700.26,308.849 8700.52,306.086C8700.77,303.323 8700.92,297.991 8700.96,290.088C8700.99,282.185 8700.51,270.629 8699.52,255.418C8698.52,240.209 8697.4,222.528 8696.16,202.376C8694.92,182.224 8694.15,165.671 8693.83,152.718C8693.52,139.765 8693.34,126.807 8693.3,113.844C8693.26,100.881 8693.24,94.069 8693.25,93.408" style="fill:none;fill-rule:nonzero;stroke:black;stroke-width:9.6px;"/>
        <path id="STROKE_2198f27f-5bd1-402a-ac0d-c613f59cbf04" d="M8643.99,236.312C8646.83,236.927 8653.4,237.595 8663.68,238.316C8673.96,239.036 8684.62,240.016 8695.65,241.256C8706.68,242.496 8717.08,243.507 8726.85,244.288C8736.62,245.068 8745.8,245.616 8754.36,245.932C8762.93,246.248 8769.38,246.455 8773.69,246.552C8778.01,246.651 8781.84,246.698 8785.18,246.694C8788.52,246.69 8791.53,246.688 8794.2,246.688C8796.87,246.687 8800.96,246.532 8806.45,246.224C8811.94,245.916 8816.87,245.587 8821.22,245.238C8825.57,244.89 8830.1,244.579 8834.82,244.306C8839.54,244.031 8842.13,243.873 8842.59,243.832" style="fill:none;fill-rule:nonzero;stroke:black;stroke-width:9.6px;"/>
        <path id="STROKE_8dc34f65-b877-4186-be13-cdd166fdf027" d="M93.382,8667.03C102.959,8666.17 111.094,8665.26 117.786,8664.3C124.479,8663.34 129.739,8662.65 133.564,8662.21C137.391,8661.77 141.747,8661.38 146.634,8661.05C151.521,8660.72 160.479,8660.28 173.508,8659.75C186.537,8659.22 197.174,8658.88 205.418,8658.73C213.662,8658.58 222.632,8658.34 232.328,8658.04C242.023,8657.73 256.145,8657.99 274.696,8658.83C293.247,8659.66 309.833,8660.98 324.456,8662.77" style="fill:none;fill-rule:nonzero;stroke:black;stroke-width:9.6px;"/>
        <path id="STROKE_97962b0b-498b-4909-96ba-a41608fd1bcb" d="M240.806,8595.66L240.854,8601.62C239.582,8655.44 239.078,8690.77 239.342,8707.6C239.606,8724.43 239.875,8734.9 240.15,8739C240.423,8743.11 240.996,8752.52 241.868,8767.26C242.74,8781.99 243.355,8795.93 243.714,8809.08C244.074,8822.22 244.229,8831.71 244.18,8837.54" style="fill:none;fill-rule:nonzero;stroke:black;stroke-width:9.6px;"/>
    </g>
    <g id="panels">
        <path id="panel-3" serif:id="panel 3" d="M5979.02,2630.16C5979.02,2624.2 5979.02,2622.01 5979.02,2623.57L5979.02,2041.09C5979.02,2014.12 5979.02,1993.64 5979.01,1979.64L5979.01,1560.72L6083.95,1560.72C6116.07,1560.72 6159.31,1560.72 6213.66,1560.72L6342.75,1560.72C6374.45,1560.72 6428.93,1560.72 6506.18,1560.72L6709.6,1560.72C6767.95,1560.72 6816.5,1560.72 6855.25,1560.72L7374.63,1560.72C7457.7,1560.72 7528.91,1560.72 7588.27,1560.72C7647.63,1560.72 7708.82,1560.72 7771.85,1560.72L8049.56,1560.72C8044.26,1560.72 8075.03,1560.72 8141.9,1560.72C8208.76,1560.72 8268.86,1560.72 8322.21,1560.72L8608.21,1560.72C8645.75,1560.72 8684.3,1560.72 8723.89,1560.71C8723.89,1574.77 8723.89,1581.46 8723.89,1580.79C8723.89,1593.51 8723.89,1598.55 8723.89,1595.9C8723.89,1593.24 8723.89,1612.93 8723.89,1654.96L8723.89,2150.91C8723.89,2202.61 8723.89,2242.62 8723.89,2270.94L8723.89,2353.03C8723.89,2379.43 8723.89,2482.49 8723.89,2662.19C8723.89,2841.89 8723.89,3022.55 8723.89,3204.16C8723.89,3385.77 8723.9,3518.26 8723.9,3601.64L8723.9,4310.29C8723.9,4330.94 8723.9,4345.23 8723.9,4353.16L8723.9,4466.07L8670.75,4466.07C8636.84,4466.07 8607.15,4466.07 8581.68,4466.07C8556.21,4466.07 8447,4466.07 8254.04,4466.07C8061.09,4466.07 7915.02,4466.07 7815.82,4466.08L7364.39,4466.08C7311.61,4466.08 7266.72,4466.08 7229.73,4466.08L6628.75,4466.08C6537.49,4466.08 6456.11,4466.08 6384.62,4466.08L5979.02,4466.08C5979.02,4436.88 5979.02,4378.07 5979.02,4289.64L5979.02,4053.37C5979.02,3984.28 5979.02,3935.2 5979.02,3906.13L5979.02,3408.27C5979.02,3380.87 5979.02,3352.68 5979.02,3323.7L5979.02,2916.47C5979.02,2888.61 5979.02,2870.95 5979.02,2863.48L5979.02,2838.35C5979.02,2829.06 5979.02,2817.27 5979.02,2802.97L5979.02,2767.22C5979.02,2757.68 5979.02,2751.51 5979.02,2748.69L5979.02,2722.89C5979.02,2723.53 5979.02,2723.82 5979.02,2723.73L5979.02,2717.91C5979.02,2714.11 5979.02,2712.46 5979.02,2712.97C5979.02,2713.48 5979.02,2713.73 5979.02,2713.71L5979.02,2703.97C5979.02,2703.95 5979.02,2704.23 5979.02,2704.8C5979.02,2710.39 5979.02,2703.97 5979.02,2685.51" style="fill:none;fill-rule:nonzero;stroke:black;stroke-width:28px;"/>
    </g>
</svg>
